<svg width="45" height="45" viewBox="0 0 45 45" fill="none" xmlns="http://www.w3.org/2000/svg">
<rect width="45" height="45" rx="10" fill="#062226"/>
<path d="M21.5476 30.185C21.4076 30.185 21.3143 30.1733 21.2676 30.15C21.2443 30.1033 21.2326 30.0217 21.2326 29.905V24.41H16.0876C15.9476 24.41 15.866 24.3867 15.8426 24.34C15.8193 24.2933 15.8076 24.2233 15.8076 24.13V22.45C15.8076 22.3333 15.8193 22.2633 15.8426 22.24C15.8893 22.1933 15.971 22.17 16.0876 22.17H21.2326V16.675C21.2326 16.5583 21.2443 16.4883 21.2676 16.465C21.3143 16.4183 21.4076 16.395 21.5476 16.395H23.3326C23.426 16.395 23.4843 16.4183 23.5076 16.465C23.5543 16.4883 23.5776 16.57 23.5776 16.71V22.17L28.8976 22.205C29.0143 22.205 29.0843 22.2283 29.1076 22.275C29.1543 22.2983 29.1776 22.3683 29.1776 22.485V24.2C29.1776 24.2933 29.1543 24.3633 29.1076 24.41C29.0843 24.4333 29.0143 24.445 28.8976 24.445L23.5776 24.41V29.94C23.5776 30.0567 23.5543 30.1267 23.5076 30.15C23.461 30.1733 23.3793 30.185 23.2626 30.185H21.5476Z" fill="white"/>
</svg>
