<svg width="20" height="21" viewBox="0 0 20 21" fill="none" xmlns="http://www.w3.org/2000/svg">
<path d="M10 0.744141C10.5523 0.744141 11 1.19186 11 1.74414V9.74414H19C19.5523 9.74414 20 10.1919 20 10.7441C20 11.2964 19.5523 11.7441 19 11.7441H11V19.7441C11 20.2964 10.5523 20.7441 10 20.7441C9.44772 20.7441 9 20.2964 9 19.7441V11.7441H1C0.447715 11.7441 0 11.2964 0 10.7441C0 10.1919 0.447715 9.74414 1 9.74414H9V1.74414C9 1.19186 9.44772 0.744141 10 0.744141Z" fill="black" fill-opacity="0.48"/>
</svg>
