<svg width="15" height="18" viewBox="0 0 15 18" fill="none" xmlns="http://www.w3.org/2000/svg">
<path d="M7.44555 5.17182C6.73455 5.17182 5.63395 4.36342 4.47492 4.39264C2.94578 4.41212 1.54325 5.27896 0.754327 6.65226C-0.833255 9.40862 0.345257 13.4798 1.89388 15.72C2.65358 16.8108 3.54964 18.0381 4.73789 17.9991C5.87745 17.9504 6.306 17.2589 7.68904 17.2589C9.06235 17.2589 9.45194 17.9991 10.6597 17.9699C11.8869 17.9504 12.6661 16.8595 13.416 15.7589C14.2829 14.4928 14.6432 13.2656 14.6627 13.1974C14.6335 13.1877 12.2765 12.2819 12.2473 9.55471C12.2278 7.27561 14.1076 6.18475 14.1952 6.13606C13.1238 4.56795 11.4778 4.39264 10.9032 4.35368C9.40324 4.2368 8.14681 5.17182 7.44555 5.17182V5.17182ZM9.97789 2.87323C10.611 2.11353 11.0298 1.0519 10.9129 0C10.0071 0.0389591 8.91626 0.603866 8.26369 1.36357C7.6793 2.03561 7.17284 3.11673 7.30919 4.14914C8.31239 4.22706 9.34481 3.63293 9.97789 2.87323V2.87323Z" fill="white"/>
</svg>
