<svg width="18" height="13" viewBox="0 0 18 13" fill="none" xmlns="http://www.w3.org/2000/svg">
<path fill-rule="evenodd" clip-rule="evenodd" d="M10.165 6.5055L10.1634 6.15853C10.1513 4.78229 10.0666 3.55441 9.92061 2.77627C9.92061 2.76223 9.76133 1.99048 9.65988 1.73359C9.50061 1.36229 9.21262 1.04711 8.85153 0.847425C8.56244 0.704947 8.25917 0.632629 7.94172 0.632629C7.69218 0.643963 7.28064 0.767011 6.98691 0.870176L6.74283 0.961838C5.12612 1.59111 2.03561 3.64732 0.85199 4.90479L0.764727 4.99269L0.375268 5.40454C0.129817 5.71972 0 6.10505 0 6.51953C0 6.89084 0.115635 7.26214 0.346905 7.56221C0.41614 7.65942 0.527664 7.78414 0.626929 7.88952L1.006 8.27834C2.31046 9.57343 5.13485 11.39 6.59883 11.992C6.59883 12.0049 7.50864 12.3773 7.94172 12.3913H7.99954C8.66389 12.3913 9.28461 12.02 9.60206 11.4199C9.68879 11.2558 9.77197 10.9344 9.83524 10.6522L9.94897 10.1192C10.0788 9.26222 10.165 7.94755 10.165 6.5055ZM16.4968 7.99967C17.3269 7.99967 18 7.3337 18 6.51229C18 5.69089 17.3269 5.02492 16.4968 5.02492L12.7975 5.34549C12.1463 5.34549 11.6183 5.86683 11.6183 6.51229C11.6183 7.15668 12.1463 7.6791 12.7975 7.6791L16.4968 7.99967Z" fill="#062226"/>
</svg>
