<svg width="70" height="70" viewBox="0 0 70 70" fill="none" xmlns="http://www.w3.org/2000/svg">
<g filter="url(#filter0_d_267_7990)">
<rect x="15" y="10" width="40" height="40" rx="8" fill="white"/>
</g>
<path fill-rule="evenodd" clip-rule="evenodd" d="M36.165 29.9934L36.1634 29.6393C36.1513 28.2348 36.0666 26.9817 35.9206 26.1876C35.9206 26.1733 35.7613 25.3857 35.6599 25.1236C35.5006 24.7446 35.2126 24.423 34.8515 24.2192C34.5624 24.0738 34.2592 24 33.9417 24C33.6922 24.0116 33.2806 24.1371 32.9869 24.2424L32.7428 24.336C31.1261 24.9782 28.0356 27.0766 26.852 28.3598L26.7647 28.4495L26.3753 28.8698C26.1298 29.1915 26 29.5847 26 30.0077C26 30.3866 26.1156 30.7656 26.3469 31.0718C26.4161 31.171 26.5277 31.2983 26.6269 31.4058L27.006 31.8026C28.3105 33.1243 31.1348 34.9782 32.5988 35.5924C32.5988 35.6057 33.5086 35.9857 33.9417 36H33.9995C34.6639 36 35.2846 35.6211 35.6021 35.0086C35.6888 34.8412 35.772 34.5132 35.8352 34.2252L35.949 33.6813C36.0788 32.8067 36.165 31.465 36.165 29.9934ZM42.4967 31.5183C43.3269 31.5183 44 30.8387 44 30.0004C44 29.1622 43.3269 28.4825 42.4967 28.4825L38.7975 28.8097C38.1463 28.8097 37.6183 29.3417 37.6183 30.0004C37.6183 30.6581 38.1463 31.1912 38.7975 31.1912L42.4967 31.5183Z" fill="#062226"/>
<defs>
<filter id="filter0_d_267_7990" x="0" y="0" width="70" height="70" filterUnits="userSpaceOnUse" color-interpolation-filters="sRGB">
<feFlood flood-opacity="0" result="BackgroundImageFix"/>
<feColorMatrix in="SourceAlpha" type="matrix" values="0 0 0 0 0 0 0 0 0 0 0 0 0 0 0 0 0 0 127 0" result="hardAlpha"/>
<feOffset dy="5"/>
<feGaussianBlur stdDeviation="7.5"/>
<feComposite in2="hardAlpha" operator="out"/>
<feColorMatrix type="matrix" values="0 0 0 0 0 0 0 0 0 0 0 0 0 0 0 0 0 0 0.1 0"/>
<feBlend mode="normal" in2="BackgroundImageFix" result="effect1_dropShadow_267_7990"/>
<feBlend mode="normal" in="SourceGraphic" in2="effect1_dropShadow_267_7990" result="shape"/>
</filter>
</defs>
</svg>
