<svg width="30" height="30" viewBox="0 0 30 30" fill="none" xmlns="http://www.w3.org/2000/svg">
<rect width="30" height="30" rx="7" fill="#6CC9E0"/>
<path fill-rule="evenodd" clip-rule="evenodd" d="M11.8987 12.2677L11.8987 12.2663L11.8993 12.2453C11.9001 12.225 11.9016 12.1926 11.9048 12.1498C11.9111 12.0641 11.924 11.9379 11.9498 11.7849C12.002 11.4762 12.1045 11.0734 12.3027 10.6775C12.4998 10.2838 12.7858 9.90765 13.2031 9.62873C13.6166 9.35227 14.1927 9.14851 15.0104 9.14851C15.8282 9.14851 16.4035 9.35227 16.8158 9.62845C17.2319 9.9071 17.5166 10.2829 17.7125 10.6764C17.9095 11.0721 18.0109 11.4748 18.0622 11.7834C18.0876 11.9363 18.1001 12.0625 18.1062 12.1482C18.1093 12.191 18.1107 12.2234 18.1114 12.2437L18.112 12.2647L18.112 12.267C18.112 12.2668 18.112 12.2661 18.6852 12.2659L18.112 12.2661C18.112 12.2666 18.112 12.2664 18.112 12.267C18.1131 12.5834 18.3694 12.8402 18.6854 12.8401C19.002 12.84 19.2585 12.5829 19.2584 12.2657L18.71 12.2659C19.2584 12.2657 19.2584 12.266 19.2584 12.2657L19.2584 12.2644L19.2584 12.2628L19.2584 12.2585L19.2583 12.2459C19.2581 12.2357 19.2578 12.2221 19.2572 12.2052C19.2561 12.1714 19.2539 12.1245 19.2498 12.0663C19.2415 11.9501 19.2252 11.7879 19.1931 11.5948C19.1293 11.2112 19.0009 10.691 18.7384 10.1638C18.4748 9.63435 18.0704 9.08722 17.453 8.67369C16.832 8.25769 16.0295 8 15.0104 8C13.9914 8 13.1885 8.25769 12.5667 8.67341C11.9485 9.08667 11.5429 9.63344 11.278 10.1626C11.0141 10.6896 10.8842 11.2097 10.8195 11.5932C10.7868 11.7864 10.7701 11.9486 10.7615 12.0647C10.7572 12.1229 10.7549 12.1698 10.7536 12.2036C10.753 12.2205 10.7527 12.2341 10.7525 12.2443L10.7523 12.2569L10.7523 12.2612L10.7523 12.2628C10.7523 12.2631 10.7522 12.2641 11.3007 12.2658L10.7522 12.2641C10.7513 12.5813 11.0071 12.8392 11.3237 12.8401C11.6401 12.8411 11.8974 12.5846 11.8987 12.2677Z" fill="#FCFCFC"/>
<path fill-rule="evenodd" clip-rule="evenodd" d="M8.00976 15.6205C7.98188 15.9593 8.01591 16.3684 8.08397 17.1866C8.14258 17.8912 8.17188 18.2434 8.24201 18.5409C8.62675 20.173 9.96447 21.4061 11.62 21.6547C11.9217 21.7 12.2746 21.7 12.9803 21.7H17.0407C17.7464 21.7 18.0993 21.7 18.401 21.6547C20.0565 21.4061 21.3942 20.173 21.779 18.5409C21.8491 18.2435 21.8784 17.8912 21.937 17.1867C22.0051 16.3685 22.0391 15.9593 22.0112 15.6205C21.8572 13.7487 20.4539 12.2208 18.6048 11.9116C18.27 11.8557 17.8602 11.8557 17.0407 11.8557H12.9803C12.1608 11.8557 11.751 11.8557 11.4162 11.9116C9.56709 12.2208 8.16379 13.7487 8.00976 15.6205ZM14.4372 18.4186C14.4372 18.7358 14.6939 18.9929 15.0104 18.9929C15.327 18.9929 15.5837 18.7358 15.5837 18.4186V16.7779C15.5837 16.4607 15.327 16.2036 15.0104 16.2036C14.6939 16.2036 14.4372 16.4607 14.4372 16.7779V18.4186Z" fill="#FCFCFC"/>
</svg>
