<svg width="30" height="30" viewBox="0 0 30 30" fill="none" xmlns="http://www.w3.org/2000/svg">
<rect width="30" height="30" rx="7" fill="#6CC9E0"/>
<path fill-rule="evenodd" clip-rule="evenodd" d="M8.40873 11.0475C8 11.8497 8 12.8998 8 15C8 17.1002 8 18.1503 8.40873 18.9525C8.76825 19.6581 9.34193 20.2317 10.0475 20.5913C10.8497 21 11.8998 21 14 21H17C19.1002 21 20.1503 21 20.9525 20.5913C21.6581 20.2317 22.2318 19.6581 22.5913 18.9525C23 18.1503 23 17.1002 23 15C23 12.8998 23 11.8497 22.5913 11.0475C22.2318 10.3419 21.6581 9.76825 20.9525 9.40873C20.1503 9 19.1002 9 17 9H14C11.8998 9 10.8497 9 10.0475 9.40873C9.34193 9.76825 8.76825 10.3419 8.40873 11.0475ZM12.7441 13.2153C12.5868 13.0805 12.3501 13.0987 12.2153 13.256C12.0805 13.4132 12.0987 13.6499 12.256 13.7847L12.2862 13.8106L12.3709 13.8826C12.444 13.9446 12.5486 14.033 12.6753 14.1391C12.9285 14.3511 13.2706 14.6343 13.6251 14.9178C13.9785 15.2006 14.3487 15.4873 14.6568 15.7048C14.8101 15.813 14.9546 15.9087 15.0774 15.9789C15.1385 16.0138 15.2011 16.0464 15.2611 16.0712C15.3112 16.092 15.3999 16.125 15.5 16.125C15.6001 16.125 15.6888 16.092 15.7389 16.0712C15.7989 16.0464 15.8615 16.0138 15.9226 15.9789C16.0454 15.9087 16.1899 15.813 16.3432 15.7048C16.6513 15.4873 17.0215 15.2006 17.3749 14.9178C17.7294 14.6343 18.0715 14.3511 18.3247 14.1391C18.4514 14.033 18.5561 13.9446 18.6291 13.8826L18.7138 13.8106L18.7435 13.7852C18.9007 13.6504 18.9195 13.4132 18.7847 13.256C18.6499 13.0987 18.4132 13.0805 18.256 13.2153L18.2271 13.24L18.1439 13.3107C18.0719 13.3718 17.9685 13.4592 17.8433 13.564C17.5926 13.7739 17.255 14.0533 16.9064 14.3322C16.5567 14.6119 16.2003 14.8877 15.9107 15.0921C15.7652 15.1948 15.6431 15.2749 15.5505 15.3277C15.5313 15.3387 15.5145 15.3479 15.5 15.3554C15.4855 15.3479 15.4687 15.3387 15.4495 15.3277C15.357 15.2749 15.2348 15.1948 15.0893 15.0921C14.7997 14.8877 14.4433 14.6119 14.0936 14.3322C13.745 14.0533 13.4074 13.7739 13.1567 13.564C13.0315 13.4592 12.9281 13.3718 12.8561 13.3107L12.773 13.24L12.7441 13.2153Z" fill="#FCFCFC"/>
</svg>
