<svg width="218" height="180" viewBox="0 0 218 180" fill="none" xmlns="http://www.w3.org/2000/svg">
<path d="M27.7676 75.6877L104.423 27.2559L181.079 75.6877V146.351H27.7676V75.6877Z" fill="#E6E7E8"/>
<path d="M181.079 146.706H27.7672C27.673 146.706 27.5827 146.669 27.5162 146.602C27.4496 146.536 27.4122 146.445 27.4122 146.351V75.6879C27.4109 75.6283 27.4253 75.5693 27.454 75.517C27.4827 75.4647 27.5246 75.4208 27.5755 75.3897L104.231 26.9863C104.288 26.9518 104.353 26.9336 104.42 26.9336C104.486 26.9336 104.551 26.9518 104.608 26.9863L181.292 75.4252C181.344 75.4559 181.387 75.4995 181.417 75.5518C181.446 75.6041 181.462 75.6632 181.462 75.7234V146.387C181.453 146.48 181.408 146.565 181.336 146.625C181.265 146.685 181.172 146.714 181.079 146.706ZM28.1009 145.996H180.759V75.8867L104.423 27.6964L28.1009 75.8867V145.996Z" fill="#062226"/>
<path d="M123.097 56.6665C125.646 52.456 126.292 47.3366 126.058 42.4231C125.888 37.0475 124.471 31.7849 121.918 27.0508C120.882 25.0177 119.36 23.2715 117.488 21.9669C115.187 20.5468 113.618 21.5053 111.367 21.1219C109.464 20.7953 107.476 19.4391 105.367 19.0912C100.502 18.2595 95.5033 19.305 91.3795 22.0166C84.1655 26.8945 80.8354 36.2174 73.38 40.7474C66.0737 45.1639 56.7225 43.8361 48.5286 46.2786C45.07 47.3152 41.8475 49.0181 39.0425 51.2915C37.1047 52.775 35.519 54.6687 34.3988 56.8369C32.4746 60.8557 32.9788 65.6414 34.3988 69.8803C35.8189 74.24 38.2189 78.4008 41.9395 81.1061C45.0565 83.3569 48.8837 84.3935 52.6682 85.0752C57.816 86.0053 63.1484 86.3533 68.289 85.2385C72.0831 84.4728 75.6192 82.7524 78.5633 80.2398C79.8272 79.1109 80.523 77.5701 81.7017 76.4482C83.3277 74.9074 85.8625 73.9631 87.7654 72.7844C90.7405 70.9312 93.7227 68.9573 97.1166 68.0768C105.737 65.8331 117.899 65.2225 123.097 56.6665Z" fill="white"/>
<path d="M61.4229 86.2879C58.4587 86.2627 55.5027 85.9728 52.59 85.4217C49.3097 84.8324 45.1133 83.8383 41.7264 81.4029C38.3396 78.9674 35.7053 75.0125 34.0722 70.0422C32.9078 66.492 31.9421 61.259 34.1219 56.7574C35.2515 54.5328 36.8678 52.5913 38.8508 51.0771C41.6867 48.7772 44.9456 47.0549 48.4434 46.0074C51.7537 45.133 55.1348 44.5533 58.5473 44.2749C63.8442 43.6927 68.85 43.1388 73.2096 40.5046C77.0154 38.2041 79.7917 34.5403 82.4827 30.9972C85.0318 27.6387 87.6731 24.1666 91.1949 21.7667C95.3778 19.0043 100.453 17.9309 105.396 18.7632C106.526 19.0022 107.623 19.3789 108.662 19.885C109.546 20.2984 110.472 20.615 111.424 20.8294C112.144 20.9301 112.873 20.9468 113.597 20.8791C115.008 20.6757 116.445 20.9748 117.658 21.724C119.583 23.0474 121.145 24.8319 122.202 26.9144C124.789 31.6909 126.221 37.0066 126.384 42.4359C126.661 48.2582 125.674 53.0865 123.374 56.8568C119.114 63.8294 110.394 65.6116 102.683 67.1879C100.738 67.5855 98.9059 67.9547 97.1947 68.4021C94.1345 69.1902 91.3653 70.9227 88.6743 72.5984L87.9642 73.0599C87.2542 73.4788 86.5441 73.8694 85.7986 74.2528C84.4137 74.8868 83.1215 75.7061 81.9573 76.6882C81.4305 77.2274 80.955 77.8145 80.5372 78.442C80.0431 79.186 79.4667 79.872 78.8189 80.4869C75.8293 83.0676 72.2245 84.8333 68.3529 85.6134C66.0742 86.0885 63.7505 86.3146 61.4229 86.2879ZM102.13 19.175C98.371 19.1554 94.6922 20.2581 91.5641 22.3418C88.1204 24.6636 85.5217 28.0931 83.001 31.409C80.2745 35.0018 77.4556 38.7224 73.5433 41.0797C69.063 43.7921 63.7519 44.3743 58.6325 44.9423C55.2607 45.2123 51.9197 45.7826 48.6493 46.6464C45.231 47.6763 42.047 49.3647 39.2768 51.6167C37.3716 53.0651 35.8142 54.9209 34.7184 57.0485C32.6592 61.3514 33.5752 66.3855 34.7184 69.8292C36.3088 74.7214 38.8721 78.5414 42.1312 80.8916C45.3902 83.2419 49.5227 84.2288 52.7321 84.8111C58.7106 85.8832 63.7661 85.94 68.2038 84.9744C71.9642 84.2197 75.4663 82.5078 78.3716 80.0041C78.9841 79.4205 79.5294 78.7703 79.9976 78.0657C80.4414 77.4033 80.9479 76.7851 81.51 76.2196C82.7175 75.1936 84.0602 74.3383 85.5004 73.6776C86.2601 73.2871 86.9702 72.9179 87.6305 72.5132L88.3831 72.0446C91.1026 70.3476 93.9144 68.5867 97.074 67.7843C98.8065 67.337 100.624 66.9607 102.591 66.563C110.181 65.0223 118.773 63.2685 122.863 56.5373L123.14 56.7077L122.863 56.5373C125.064 52.9019 126.044 48.173 125.774 42.4785C125.618 37.1512 124.215 31.9348 121.677 27.2482C120.672 25.259 119.189 23.5509 117.36 22.2779C116.256 21.6073 114.949 21.3554 113.675 21.5678C112.901 21.6337 112.122 21.6123 111.353 21.5039C110.353 21.2852 109.381 20.9541 108.456 20.517C107.469 20.047 106.43 19.6966 105.36 19.4732C104.294 19.2831 103.213 19.1833 102.13 19.175Z" fill="#062226"/>
<path d="M152.067 49.7081L148.332 63.7669L157.328 65.3716L162.455 46.591C162.455 46.591 154.46 40.4705 153.224 40.4279C151.989 40.3853 152.067 49.7081 152.067 49.7081Z" fill="white"/>
<path d="M157.328 65.7266H157.264L148.282 64.1433C148.233 64.1352 148.187 64.1169 148.146 64.0897C148.105 64.0625 148.071 64.0269 148.045 63.9853C148.018 63.9437 148.001 63.8971 147.995 63.8484C147.988 63.7998 147.991 63.7502 148.005 63.703L151.711 49.7082C151.711 48.2029 151.711 41.3013 152.762 40.2859C152.822 40.2223 152.895 40.1723 152.976 40.1392C153.057 40.1061 153.144 40.0908 153.231 40.0942C154.502 40.1368 161.304 45.2988 162.66 46.3284C162.716 46.3718 162.758 46.4306 162.78 46.4974C162.803 46.5643 162.806 46.6363 162.788 46.7047L157.654 65.4852C157.632 65.5546 157.589 65.6152 157.53 65.6585C157.471 65.7019 157.401 65.7257 157.328 65.7266ZM148.807 63.5042L157.086 64.9669L162.057 46.726C158.215 43.8006 153.913 40.8043 153.231 40.783C152.727 41.1593 152.414 45.7532 152.443 49.7295C152.447 49.7601 152.447 49.7911 152.443 49.8218L148.807 63.5042Z" fill="#062226"/>
<path d="M142.347 40.5121C142.347 40.5121 143.618 43.3523 145.45 43.8138C147.281 44.2753 151.265 42.3085 151.726 42.5641C152.188 42.8197 162.696 50.687 163.719 50.9213C164.741 51.1556 166.623 48.6776 167.425 45.7309C167.425 45.7309 157.201 38.7583 156.533 38.0199C155.866 37.2814 155.071 32.865 154.077 31.2461L142.347 40.5121Z" fill="white"/>
<path d="M163.825 51.2974C163.751 51.3043 163.678 51.3043 163.605 51.2974C162.965 51.1412 159.614 48.7626 154.04 44.6941C152.784 43.771 151.69 42.9829 151.555 42.8977C151.42 42.8125 150.703 43.1533 150.135 43.3521C148.651 43.842 146.62 44.5166 145.385 44.1899C143.411 43.6645 142.105 40.8031 142.048 40.6823C142.014 40.6117 142.005 40.5315 142.023 40.4552C142.041 40.3789 142.085 40.3111 142.147 40.2634L153.856 31.0329C153.896 31.0023 153.941 30.9803 153.99 30.9681C154.039 30.9558 154.09 30.9538 154.14 30.9619C154.239 30.9824 154.325 31.0411 154.381 31.1252C154.997 32.3878 155.473 33.714 155.801 35.0801C156.014 36.0372 156.343 36.9647 156.781 37.8422C157.25 38.3605 163.512 42.706 167.609 45.5035C167.671 45.5435 167.718 45.6024 167.744 45.6716C167.77 45.7407 167.772 45.8163 167.751 45.8869C167.02 48.4715 165.209 51.2974 163.825 51.2974ZM151.605 42.1876C151.706 42.1836 151.806 42.2056 151.896 42.2515C152.045 42.3296 152.791 42.8764 154.459 44.0905C157.299 46.1425 163.1 50.4028 163.768 50.5803C164.435 50.7578 166.125 48.7981 166.984 45.8798C165.259 44.7083 156.88 38.9712 156.241 38.254C155.879 37.8564 155.574 36.8339 155.098 35.215C154.796 34.0454 154.409 32.8993 153.941 31.7856L142.786 40.6113C143.134 41.2788 144.206 43.1178 145.534 43.4515C146.571 43.7213 148.566 43.061 149.879 42.6279C150.433 42.4065 151.013 42.2585 151.605 42.1876Z" fill="#062226"/>
<path d="M153.523 33.8941C153.439 34.6448 153.58 35.4035 153.927 36.074C154.503 37.1035 157.052 38.4739 157.052 38.4739L158.827 34.9237L155.347 32.4102L153.523 33.8941Z" fill="#062226"/>
<path d="M157.051 38.8293C156.994 38.8297 156.937 38.815 156.888 38.7867C156.611 38.6447 154.225 37.3311 153.621 36.2448C153.236 35.5074 153.08 34.6715 153.174 33.8448C153.185 33.7588 153.228 33.6801 153.295 33.6247L155.12 32.1194C155.182 32.0699 155.26 32.043 155.34 32.043C155.42 32.043 155.497 32.0699 155.56 32.1194L159.032 34.633C159.099 34.6815 159.148 34.7521 159.168 34.8325C159.189 34.913 159.181 34.9981 159.145 35.0732L157.37 38.6234C157.349 38.6658 157.319 38.7033 157.282 38.7338C157.245 38.7643 157.203 38.7871 157.157 38.8009C157.124 38.8174 157.088 38.8271 157.051 38.8293ZM153.863 34.0863C153.819 34.7152 153.949 35.344 154.239 35.904C154.608 36.614 156.078 37.5157 156.902 37.9915L158.372 35.0235L155.361 32.8437L153.863 34.0863Z" fill="#062226"/>
<path d="M164.655 43.8488C164.655 43.8488 165.586 40.9164 163.945 40.7105C163.93 40.4524 163.849 40.2025 163.71 39.9848C163.57 39.7672 163.377 39.5892 163.149 39.4679C162.92 39.3466 162.665 39.2861 162.406 39.2924C162.148 39.2986 161.895 39.3713 161.673 39.5034C161.673 39.5034 161.148 37.3236 159.429 37.7638C157.711 38.204 156.348 42.3151 156.589 43.3518C156.831 44.3885 158.166 43.7565 158.84 42.7838C158.84 42.7838 157.967 44.4027 158.549 44.8287C159.401 45.4535 160.296 44.3459 161.02 43.5364C161.02 43.5364 159.948 45.4322 161.524 45.6026C162.738 45.7375 163.867 43.2879 163.867 43.2879L164.655 43.8488Z" fill="white"/>
<path d="M161.588 45.9645H161.453C161.142 45.9645 160.843 45.8413 160.622 45.6218C160.402 45.4023 160.277 45.1043 160.275 44.793C159.685 45.3113 159.004 45.6379 158.301 45.1196C158.148 44.9824 158.038 44.8052 157.981 44.6081C157.925 44.4109 157.925 44.2019 157.981 44.0048C157.675 44.1968 157.31 44.2747 156.952 44.2249C156.761 44.1871 156.587 44.0909 156.453 43.9497C156.32 43.8085 156.233 43.6293 156.206 43.4368C155.944 42.2368 157.357 37.934 159.316 37.4299C159.559 37.3572 159.815 37.3361 160.067 37.3679C160.319 37.3997 160.561 37.4837 160.779 37.6145C161.284 37.9611 161.666 38.458 161.872 39.0346C162.102 38.9509 162.347 38.9153 162.591 38.93C162.836 38.9446 163.074 39.0092 163.292 39.1198C163.748 39.4164 164.074 39.8762 164.201 40.4049C164.51 40.4944 164.775 40.694 164.947 40.9659C165.579 41.9528 165.032 43.7492 164.947 43.9551C164.932 44.0083 164.904 44.0568 164.865 44.0965C164.827 44.1361 164.779 44.1656 164.727 44.1823C164.674 44.2004 164.617 44.2059 164.562 44.1986C164.507 44.1912 164.454 44.171 164.407 44.1397L163.924 43.806C163.584 44.5303 162.675 45.9645 161.588 45.9645ZM160.985 43.1812C161.062 43.1795 161.137 43.2046 161.198 43.2522C161.267 43.3045 161.315 43.3798 161.333 43.4645C161.351 43.5492 161.339 43.6376 161.297 43.7137C161.141 43.9906 160.871 44.6723 161.042 45.006C161.042 45.0557 161.141 45.2119 161.532 45.2545C162.242 45.3326 163.179 43.8344 163.513 43.1244C163.535 43.0782 163.566 43.0372 163.606 43.0041C163.645 42.9711 163.69 42.9467 163.74 42.9327C163.79 42.9175 163.843 42.914 163.895 42.9226C163.946 42.9313 163.995 42.9517 164.038 42.9824L164.436 43.2593C164.627 42.6284 164.605 41.9519 164.372 41.3351C164.317 41.2536 164.244 41.1858 164.16 41.1365C164.075 41.0873 163.98 41.0581 163.882 41.0511C163.805 41.0397 163.734 41.0039 163.679 40.9489C163.624 40.8939 163.588 40.8227 163.576 40.7457C163.515 40.34 163.295 39.975 162.966 39.7304C162.777 39.6548 162.573 39.6232 162.37 39.638C162.167 39.6528 161.97 39.7135 161.794 39.8156C161.747 39.8368 161.697 39.8477 161.645 39.8477C161.594 39.8477 161.543 39.8368 161.496 39.8156C161.449 39.7923 161.408 39.7594 161.375 39.719C161.342 39.6786 161.318 39.6317 161.304 39.5813C161.17 39.0344 160.855 38.5491 160.41 38.2038C160.272 38.125 160.12 38.0755 159.962 38.0584C159.804 38.0413 159.645 38.057 159.494 38.1044C157.981 38.4878 156.71 42.3646 156.902 43.2664C156.952 43.4865 157.044 43.5078 157.094 43.5149C157.387 43.4752 157.666 43.3695 157.912 43.206C158.158 43.0424 158.364 42.8251 158.514 42.5705C158.566 42.4966 158.644 42.4452 158.732 42.4267C158.82 42.4082 158.913 42.4241 158.99 42.4711C159.065 42.5195 159.12 42.5943 159.144 42.6809C159.167 42.7674 159.158 42.8597 159.117 42.9398C158.755 43.6498 158.556 44.4167 158.72 44.5374C159.217 44.8995 159.806 44.3172 160.573 43.4652L160.722 43.2948C160.756 43.259 160.797 43.2305 160.842 43.2109C160.887 43.1914 160.936 43.1813 160.985 43.1812Z" fill="#062226"/>
<path d="M157.065 35.0523C157.065 35.0523 156.093 33.3624 155.07 34.8464C154.048 36.3304 152.819 39.1067 154.523 39.4049C156.228 39.7031 157.506 36.5221 157.065 35.0523Z" fill="white"/>
<path d="M154.743 39.7658C154.651 39.7729 154.559 39.7729 154.466 39.7658C154.244 39.739 154.032 39.654 153.853 39.5194C153.673 39.3848 153.532 39.2053 153.444 38.999C152.947 37.8132 154.048 35.7044 154.779 34.6536C154.901 34.4296 155.079 34.2411 155.295 34.1067C155.512 33.9722 155.76 33.8964 156.014 33.8867C156.795 33.9222 157.314 34.7885 157.371 34.8808L157.406 34.9589C157.523 35.6674 157.486 36.3929 157.296 37.0854C157.106 37.778 156.768 38.4211 156.305 38.9706C156.116 39.2064 155.879 39.3992 155.61 39.5363C155.341 39.6735 155.045 39.7517 154.743 39.7658ZM155.965 34.5755C155.73 34.5755 155.503 34.824 155.361 35.0299C154.502 36.2725 153.799 37.9836 154.097 38.7008C154.139 38.796 154.207 38.8779 154.292 38.938C154.377 38.998 154.476 39.0338 154.58 39.0416C154.81 39.0559 155.04 39.012 155.248 38.914C155.457 38.8159 155.637 38.6669 155.773 38.4807C156.151 38.0258 156.431 37.4978 156.596 36.9297C156.761 36.3616 156.807 35.7657 156.732 35.179C156.618 34.9944 156.298 34.5897 155.979 34.5755H155.965Z" fill="#062226"/>
<path d="M152.06 50.658C152.06 50.658 150.938 45.2973 150.831 44.3387C150.654 42.7127 151.037 40.1708 152.464 39.7731C153.892 39.3755 157.158 38.9992 156.618 40.4335C156.128 41.74 153.267 41.9885 153.267 41.9885C153.267 41.9885 155.241 43.9766 154.943 45.9576" fill="white"/>
<path d="M152.06 51.0137C151.979 51.0141 151.9 50.9868 151.837 50.9364C151.774 50.8861 151.73 50.8157 151.712 50.7368C151.669 50.5167 150.59 45.3405 150.483 44.3464C150.299 42.6849 150.654 39.8803 152.372 39.3761C153.267 39.1276 156 38.6164 156.803 39.4897C156.924 39.6246 157.003 39.7921 157.029 39.9714C157.056 40.1507 157.029 40.3339 156.952 40.498C156.547 41.5915 154.914 42.0246 153.97 42.195C154.566 42.9476 155.525 44.4316 155.29 45.9511C155.283 45.9977 155.267 46.0425 155.243 46.0829C155.219 46.1233 155.187 46.1585 155.149 46.1865C155.111 46.2146 155.068 46.2348 155.022 46.2462C154.976 46.2576 154.929 46.2599 154.882 46.2529C154.835 46.2459 154.791 46.2298 154.75 46.2055C154.71 46.1812 154.675 46.1492 154.647 46.1112C154.619 46.0733 154.598 46.0303 154.587 45.9845C154.576 45.9388 154.573 45.8912 154.58 45.8446C154.85 44.0624 153.025 42.195 153.011 42.1808C152.964 42.132 152.93 42.0711 152.915 42.0047C152.9 41.9382 152.904 41.869 152.926 41.8045C152.95 41.7415 152.991 41.6867 153.046 41.6465C153.1 41.6063 153.164 41.5823 153.231 41.5773C153.941 41.5134 155.944 41.1512 156.277 40.2495C156.355 40.0578 156.277 40.001 156.277 39.9726C155.901 39.5537 153.934 39.6815 152.557 40.0578C151.399 40.3773 151.016 42.692 151.186 44.2399C151.293 45.1701 152.4 50.4812 152.408 50.5309C152.418 50.5766 152.419 50.624 152.41 50.6701C152.402 50.7163 152.384 50.7602 152.358 50.7994C152.333 50.8385 152.299 50.872 152.26 50.8979C152.221 50.9237 152.177 50.9414 152.131 50.9498L152.06 51.0137Z" fill="#062226"/>
<path d="M173.027 30.3309C173.027 30.3309 161.197 29.1593 156.369 31.9569C155.156 32.6813 153.993 33.4879 152.89 34.371C150.27 36.423 147.806 38.7519 145.889 40.0513C142.083 42.6075 138.405 43.1258 135.899 39.0573C133.769 35.5852 135.011 33.9379 137.894 30.8492C139.314 29.3226 142.325 26.802 144.916 24.0115C146.448 22.4602 147.74 20.6894 148.75 18.7572C150.937 14.1562 150.32 7.10547 150.32 7.10547L173.027 30.3309Z" fill="white"/>
<path d="M140.571 42.3861C140.189 42.3896 139.808 42.3491 139.435 42.2654C138.622 42.0562 137.862 41.6806 137.202 41.1624C136.542 40.6442 135.997 39.9946 135.601 39.2548C133.307 35.5342 134.72 33.7378 137.632 30.6136C138.242 29.9604 139.123 29.1367 140.145 28.1924C141.565 26.8717 143.163 25.3522 144.661 23.7759C146.169 22.2539 147.44 20.5138 148.431 18.614C150.561 14.1407 149.972 7.18232 149.965 7.11131C149.959 7.03825 149.976 6.9652 150.013 6.90182C150.05 6.83843 150.105 6.78769 150.171 6.75629C150.238 6.72449 150.313 6.71491 150.386 6.72896C150.459 6.74301 150.525 6.77995 150.576 6.8344L173.297 30.0811C173.347 30.1331 173.379 30.199 173.391 30.27C173.402 30.341 173.392 30.4138 173.361 30.4787C173.329 30.5449 173.279 30.6001 173.215 30.6368C173.152 30.6736 173.079 30.6903 173.006 30.6846C172.885 30.6846 161.233 29.5557 156.561 32.2751C155.362 32.9906 154.214 33.7877 153.125 34.6608C152.052 35.5058 150.995 36.3862 150.008 37.2312C148.761 38.3347 147.457 39.3728 146.102 40.3412C144.043 41.7044 142.197 42.3861 140.571 42.3861ZM150.732 8.00596C150.817 10.1361 150.81 15.2342 149.077 18.9193C148.05 20.8827 146.736 22.6823 145.179 24.2588C143.667 25.8848 142.055 27.3829 140.628 28.7107C139.62 29.648 138.739 30.4645 138.15 31.0965C135.31 34.1141 134.174 35.591 136.204 38.9069C136.553 39.5644 137.032 40.1432 137.614 40.6073C138.195 41.0715 138.866 41.4111 139.584 41.605C141.274 41.9743 143.326 41.3565 145.691 39.7731C147.025 38.8249 148.307 37.8057 149.532 36.72C150.547 35.8679 151.591 34.9804 152.67 34.1354C153.796 33.2385 154.982 32.42 156.22 31.6858C160.332 29.293 169.193 29.7048 172.132 29.9249L150.732 8.00596Z" fill="#062226"/>
<path d="M153.523 33.8942C150.903 35.9462 147.736 38.6657 145.89 40.0432C141.672 43.1957 139.002 43.5295 136.247 39.6313C133.407 35.6267 135.012 33.951 137.895 30.8553C139.315 29.3287 142.325 26.808 144.917 24.0176C144.917 24.0176 145.08 26.9216 147.97 30.4647C149.389 32.1927 151.342 33.3993 153.523 33.8942Z" fill="#062226"/>
<path d="M140.543 42.8342C140.324 42.8359 140.105 42.8193 139.889 42.7845C138.469 42.5644 137.22 41.6271 135.956 39.8379C132.967 35.6131 134.713 33.7457 137.596 30.6499C138.242 29.9399 139.123 29.1376 140.145 28.1932C141.565 26.8725 143.163 25.353 144.661 23.7768C144.707 23.725 144.768 23.6884 144.835 23.6719C144.902 23.6554 144.973 23.6598 145.037 23.6844C145.103 23.7079 145.16 23.75 145.201 23.8055C145.243 23.8611 145.267 23.9276 145.272 23.9969C145.272 23.9969 145.477 26.837 148.247 30.2381C149.615 31.8971 151.491 33.0598 153.586 33.5469C153.653 33.5601 153.715 33.5917 153.765 33.6381C153.815 33.6845 153.852 33.7438 153.87 33.8096C153.884 33.877 153.879 33.9468 153.857 34.0117C153.834 34.0767 153.795 34.1344 153.742 34.1788C152.535 35.1232 151.222 36.2024 149.944 37.2462C148.481 38.4462 147.103 39.5822 146.102 40.3278C143.837 42.039 142.062 42.8342 140.543 42.8342ZM144.675 24.7921C143.319 26.2122 141.899 27.5329 140.628 28.7115C139.62 29.6488 138.739 30.4653 138.15 31.0973C135.31 34.1575 133.89 35.6699 136.538 39.426C137.681 41.0449 138.782 41.8899 139.996 42.0816C141.466 42.3088 143.212 41.5987 145.676 39.7597C146.663 39.0497 148.041 37.8923 149.496 36.6995C150.576 35.8119 151.683 34.9031 152.734 34.0652C150.759 33.4567 149.006 32.2815 147.693 30.6854C146.237 28.9862 145.203 26.9669 144.675 24.7921Z" fill="#062226"/>
<path d="M176.307 29.3293C173.659 31.7079 167.787 29.7269 162.071 24.8915C160.606 23.6547 159.23 22.3165 157.953 20.8869C156.697 19.4839 155.539 17.9964 154.488 16.435C150.227 10.1724 148.9 4.10868 151.569 1.71585C154.864 -1.24502 163.086 2.53239 169.924 10.1582C176.761 17.784 179.616 26.3613 176.307 29.3293Z" fill="#062226"/>
<path d="M154.545 0.714662C158.571 0.714662 164.649 4.30746 169.903 10.1653C176.748 17.7911 179.617 26.3684 176.294 29.3364C175.457 30.0361 174.387 30.396 173.297 30.3446C170.294 30.3446 166.154 28.3494 162.057 24.8986C160.593 23.6618 159.216 22.3236 157.939 20.894C156.688 19.4882 155.535 17.9984 154.488 16.4349C150.228 10.1724 148.9 4.10865 151.57 1.71582C152.403 1.02428 153.464 0.667406 154.545 0.714662ZM154.545 0.00462277C153.279 -0.0497002 152.039 0.376361 151.073 1.19749C148.183 3.78913 149.312 10.073 153.878 16.8184C156.049 20.0249 158.643 22.9242 161.589 25.4382C165.849 28.9884 170.109 31.0476 173.283 31.0476C174.563 31.1013 175.815 30.6645 176.784 29.8263C178.608 28.1932 178.914 25.14 177.586 21.2348C175.988 16.9415 173.558 13.0059 170.436 9.65406C165.139 3.80334 158.919 0.00462277 154.545 0.00462277Z" fill="#062226"/>
<path d="M166.793 18.9837L162.071 24.8912C160.607 23.6543 159.231 22.3162 157.953 20.8866C156.698 19.4835 155.54 17.9961 154.488 16.4346L161.319 12.2383L166.793 18.9837Z" fill="white"/>
<path d="M166.801 18.9938C167.664 18.2844 167.13 16.206 165.606 14.3515C164.083 12.497 162.148 11.5687 161.284 12.278C160.421 12.9874 160.956 15.0659 162.479 16.9204C164.002 18.7749 165.937 19.7032 166.801 18.9938Z" fill="#062226"/>
<path d="M166.068 19.5663C164.954 19.5663 163.448 18.6645 162.192 17.1308C161.476 16.2892 160.944 15.3073 160.63 14.2481C160.367 13.2256 160.516 12.4233 161.048 11.9902C161.581 11.557 162.39 11.5641 163.342 11.9902C164.318 12.5122 165.173 13.2358 165.848 14.1132C167.524 16.151 168.028 18.4089 166.999 19.261C166.732 19.464 166.404 19.5715 166.068 19.5663ZM162.014 12.3807C161.828 12.3705 161.645 12.4258 161.496 12.5369C161.198 12.7854 161.134 13.3463 161.318 14.0706C161.602 15.032 162.086 15.9225 162.738 16.6835C164.229 18.5012 165.948 19.2113 166.558 18.7071C167.169 18.203 166.807 16.3782 165.316 14.5605C164.688 13.7718 163.902 13.1235 163.008 12.6576C162.7 12.4968 162.361 12.4024 162.014 12.3807Z" fill="#062226"/>
<path d="M160.985 43.8926C160.922 43.893 160.861 43.8758 160.808 43.8429C160.767 43.8201 160.731 43.7893 160.703 43.7525C160.674 43.7157 160.653 43.6735 160.641 43.6285C160.63 43.5835 160.627 43.5365 160.633 43.4904C160.64 43.4443 160.656 43.3999 160.68 43.36C161.121 42.6376 161.666 41.9844 162.299 41.4216C162.333 41.3853 162.375 41.3566 162.421 41.3375C162.467 41.3184 162.517 41.3093 162.567 41.3107C162.617 41.3121 162.666 41.3241 162.711 41.3459C162.756 41.3676 162.796 41.3986 162.828 41.4369C162.86 41.4751 162.884 41.5198 162.898 41.5678C162.912 41.6159 162.915 41.6664 162.908 41.7159C162.901 41.7654 162.883 41.8128 162.857 41.8551C162.83 41.8974 162.795 41.9336 162.753 41.9613C162.201 42.4805 161.724 43.073 161.333 43.7222C161.297 43.7806 161.245 43.8276 161.184 43.8578C161.122 43.888 161.053 43.9 160.985 43.8926Z" fill="#062226"/>
<path d="M158.805 43.1388H158.748C158.702 43.1294 158.659 43.1112 158.62 43.0851C158.582 43.059 158.548 43.0256 158.523 42.9867C158.497 42.9478 158.479 42.9042 158.47 42.8584C158.461 42.8126 158.462 42.7655 158.471 42.7198C158.728 41.7065 159.327 40.8133 160.168 40.1921C160.243 40.1356 160.338 40.1113 160.431 40.1247C160.524 40.138 160.609 40.1878 160.665 40.2631C160.722 40.3384 160.746 40.4331 160.733 40.5263C160.719 40.6195 160.669 40.7036 160.594 40.7601C159.899 41.2787 159.398 42.0167 159.174 42.8547C159.156 42.938 159.109 43.0121 159.041 43.064C158.974 43.1159 158.89 43.1424 158.805 43.1388Z" fill="#062226"/>
<path d="M163.833 43.6435C163.761 43.644 163.691 43.6216 163.634 43.5796C163.595 43.5527 163.563 43.5185 163.538 43.4789C163.512 43.4392 163.495 43.3951 163.488 43.3488C163.48 43.3026 163.481 43.2553 163.491 43.2096C163.502 43.1639 163.521 43.1207 163.549 43.0826L164.031 42.3725C164.088 42.298 164.171 42.2477 164.263 42.2319C164.355 42.2161 164.45 42.2359 164.528 42.2873C164.604 42.3429 164.656 42.4258 164.672 42.5186C164.688 42.6114 164.667 42.7067 164.614 42.7844L164.124 43.4944C164.092 43.5417 164.048 43.5801 163.997 43.6062C163.946 43.6322 163.89 43.6451 163.833 43.6435Z" fill="#062226"/>
<path d="M141.424 42.1174C141.347 42.118 141.272 42.093 141.211 42.0464C138.072 39.6607 136.127 36.7637 135.743 33.8952V33.8171C135.721 33.7418 135.724 33.6613 135.752 33.5881C135.781 33.5149 135.832 33.4531 135.899 33.4124C135.939 33.3866 135.983 33.3691 136.029 33.3608C136.075 33.3526 136.123 33.3538 136.169 33.3645C136.214 33.3751 136.258 33.3949 136.296 33.4226C136.333 33.4504 136.365 33.4855 136.389 33.526C136.432 33.6125 136.456 33.7067 136.46 33.8029C136.822 36.4868 138.661 39.2134 141.658 41.4784C141.718 41.5235 141.762 41.5864 141.784 41.6583C141.806 41.7301 141.805 41.8071 141.781 41.8781C141.756 41.9492 141.71 42.0106 141.648 42.0536C141.587 42.0966 141.513 42.119 141.438 42.1174H141.424Z" fill="white"/>
<path d="M139.67 30.7853C139.621 30.7846 139.573 30.7735 139.529 30.7527C139.485 30.7319 139.445 30.7018 139.414 30.6646C139.381 30.6322 139.355 30.5935 139.337 30.5508C139.319 30.5082 139.31 30.4624 139.31 30.4161C139.31 30.3698 139.319 30.324 139.337 30.2813C139.355 30.2386 139.381 30.1999 139.414 30.1676L143.234 26.6174C143.266 26.5834 143.304 26.5563 143.347 26.5378C143.39 26.5193 143.436 26.5098 143.483 26.5098C143.529 26.5098 143.575 26.5193 143.618 26.5378C143.661 26.5563 143.699 26.5834 143.731 26.6174C143.764 26.6497 143.79 26.6884 143.808 26.7311C143.826 26.7738 143.835 26.8196 143.835 26.8659C143.835 26.9122 143.826 26.958 143.808 27.0006C143.79 27.0433 143.764 27.082 143.731 27.1144L139.911 30.6646C139.881 30.7001 139.844 30.7291 139.803 30.7498C139.761 30.7706 139.716 30.7827 139.67 30.7853Z" fill="white"/>
<path d="M140.195 31.6366C140.096 31.6341 140.002 31.5934 139.932 31.523C139.867 31.4554 139.83 31.365 139.83 31.2709C139.83 31.1768 139.867 31.0864 139.932 31.0189L143.752 27.4687C143.819 27.4036 143.908 27.3672 144.001 27.3672C144.094 27.3672 144.183 27.4036 144.249 27.4687C144.283 27.5017 144.309 27.5409 144.327 27.5842C144.345 27.6275 144.354 27.6739 144.354 27.7207C144.354 27.7676 144.345 27.814 144.327 27.8573C144.309 27.9005 144.283 27.9398 144.249 27.9728L140.436 31.523C140.372 31.5891 140.287 31.6295 140.195 31.6366Z" fill="white"/>
<path d="M140.799 32.6161C140.75 32.6172 140.702 32.6077 140.658 32.588C140.614 32.5684 140.574 32.5391 140.543 32.5025C140.51 32.4701 140.484 32.4314 140.466 32.3887C140.448 32.3461 140.438 32.3002 140.438 32.254C140.438 32.2077 140.448 32.1618 140.466 32.1192C140.484 32.0765 140.51 32.0378 140.543 32.0054L144.363 28.4552C144.395 28.4213 144.433 28.3942 144.476 28.3757C144.519 28.3572 144.565 28.3477 144.611 28.3477C144.658 28.3477 144.704 28.3572 144.747 28.3757C144.79 28.3942 144.828 28.4213 144.86 28.4552C144.893 28.4876 144.919 28.5263 144.937 28.569C144.955 28.6116 144.964 28.6575 144.964 28.7038C144.964 28.75 144.955 28.7959 144.937 28.8385C144.919 28.8812 144.893 28.9199 144.86 28.9523L141.04 32.5025C141.01 32.537 140.973 32.5649 140.931 32.5844C140.89 32.604 140.844 32.6148 140.799 32.6161Z" fill="white"/>
<path d="M77.6054 87.3827L75.8232 126.733C75.8232 126.733 100.142 127.024 114.13 121.181C115.276 117.43 116.661 113.756 118.277 110.182C120.329 106.035 129.14 99.922 126.371 84.0455C126.371 84.0455 147.133 97.1813 152.983 91.1459C158.834 85.1106 161.759 56.922 161.759 56.922L149.603 53.0168L144.079 70.3986C144.079 70.3986 109.046 53.4499 100.881 51.3056C97.8487 50.5104 88.4264 55.5232 77.6267 62.4603" fill="#062226"/>
<path d="M100.127 63.1055C100.127 63.1055 105.758 80.6008 106.723 88.0066C107.689 95.4123 107.831 107.653 107.831 107.653C107.831 107.653 116.742 80.3594 115.641 63.5031L100.127 63.1055Z" fill="#062226"/>
<path d="M107.831 107.973H107.789C107.715 107.963 107.647 107.926 107.597 107.87C107.548 107.814 107.52 107.742 107.519 107.667C107.519 107.547 107.363 95.3554 106.411 88.0562C105.46 80.757 99.8859 63.3823 99.8291 63.2048C99.8147 63.1571 99.8116 63.1067 99.8202 63.0577C99.8287 63.0086 99.8486 62.9622 99.8783 62.9222C99.9079 62.8822 99.9465 62.8497 99.991 62.8272C100.035 62.8048 100.085 62.7931 100.134 62.793L115.642 63.1906C115.72 63.1905 115.796 63.2207 115.853 63.2749C115.91 63.3292 115.943 63.4032 115.947 63.4817C117.048 80.2031 108.222 107.504 108.137 107.753C108.116 107.818 108.076 107.874 108.021 107.914C107.966 107.954 107.899 107.974 107.831 107.973ZM100.56 63.432C101.42 66.1444 106.163 81.254 107.036 87.9639C107.746 93.5448 108.023 101.959 108.108 105.715C110.047 99.3245 116.167 77.9026 115.343 63.8225L100.56 63.432Z" fill="#062226"/>
<path d="M71.761 147.622H138.867L114.15 121.18L75.8437 126.732C75.8437 126.732 71.2569 137.113 71.69 144.398C71.7184 145.257 71.7397 146.358 71.761 147.622Z" fill="#062226"/>
<path d="M138.867 147.977H71.7613C71.7151 147.978 71.669 147.969 71.626 147.952C71.583 147.935 71.5438 147.91 71.5107 147.877C71.4777 147.845 71.4514 147.806 71.4335 147.764C71.4155 147.721 71.4063 147.675 71.4063 147.629C71.4063 146.436 71.3637 145.293 71.314 144.419C70.8809 137.127 75.3044 127.016 75.4961 126.583C75.5214 126.53 75.559 126.483 75.606 126.447C75.6529 126.412 75.7078 126.388 75.766 126.377L114.108 120.825C114.165 120.818 114.224 120.825 114.278 120.844C114.332 120.864 114.381 120.896 114.421 120.938L139.137 147.38C139.184 147.431 139.215 147.495 139.227 147.563C139.238 147.631 139.23 147.701 139.202 147.765C139.174 147.828 139.128 147.882 139.07 147.92C139.011 147.957 138.944 147.977 138.874 147.977H138.867ZM72.1235 147.267H138.044L114.016 121.556L76.0855 127.052C75.4819 128.472 71.6406 137.781 72.0383 144.377C72.0738 145.179 72.1235 146.195 72.1235 147.267Z" fill="#062226"/>
<path d="M113.711 53.6972L115.635 63.5029C115.635 63.5029 115.685 69.1832 109.394 68.6364C107.535 68.4619 105.739 67.8749 104.136 66.918C102.533 65.9611 101.164 64.6585 100.128 63.1052L97.5788 45.9791C97.7982 42.8607 97.5445 39.7271 96.8262 36.6847C104.061 35.1865 108.734 28.6328 108.734 28.6328C108.734 28.6328 111.936 31.899 113.242 32.893C114.293 33.6132 115.248 34.4651 116.082 35.4279C117.453 37.1249 117.858 39.4964 118.213 41.591C118.659 44.0772 118.88 46.5986 118.873 49.1246C118.759 53.9173 113.711 53.6972 113.711 53.6972Z" fill="white"/>
<path d="M110.21 68.9988C109.94 68.9988 109.656 68.9988 109.365 68.9988C107.454 68.8267 105.607 68.2267 103.96 67.2434C102.313 66.2601 100.908 64.9186 99.8502 63.3185C99.8298 63.2807 99.8154 63.24 99.8076 63.1978C99.8076 63.1978 97.2656 46.1568 97.2585 46.0716C97.2301 45.7859 97.2301 45.4981 97.2585 45.2125C97.4231 42.3837 97.1695 39.5461 96.5059 36.7914C96.495 36.7505 96.4932 36.7077 96.5005 36.666C96.5079 36.6243 96.5242 36.5847 96.5485 36.55C96.5718 36.514 96.602 36.4829 96.6373 36.4585C96.6726 36.4341 96.7124 36.417 96.7544 36.408C103.777 34.9879 108.413 28.5478 108.456 28.4839C108.484 28.4455 108.52 28.4136 108.562 28.3903C108.604 28.367 108.65 28.353 108.697 28.349C108.745 28.3445 108.792 28.3512 108.837 28.3684C108.881 28.3857 108.921 28.4131 108.953 28.4484C108.988 28.4484 112.155 31.7075 113.433 32.6661C114.485 33.4045 115.439 34.2729 116.273 35.2506C117.693 37.0399 118.127 39.5109 118.467 41.5629C118.919 44.0675 119.143 46.6081 119.135 49.1532C119.153 49.8021 119.037 50.4479 118.792 51.0493C118.548 51.6507 118.181 52.1947 117.715 52.6466C116.687 53.5217 115.393 54.0223 114.044 54.0667L115.897 63.4889C115.888 65.0537 115.266 66.5526 114.165 67.6639C113.063 68.5947 111.65 69.0719 110.21 68.9988ZM100.439 62.9919C101.456 64.4821 102.788 65.7313 104.339 66.6513C105.891 67.5714 107.626 68.14 109.421 68.3172C111.296 68.4734 112.759 68.0828 113.774 67.1456C114.726 66.1683 115.274 64.8672 115.308 63.5031L113.391 53.7613C113.383 53.7128 113.385 53.6631 113.397 53.6154C113.409 53.5678 113.431 53.5231 113.462 53.4844C113.493 53.4455 113.533 53.4147 113.579 53.3949C113.625 53.3751 113.675 53.3669 113.724 53.3708C115.036 53.3963 116.314 52.956 117.331 52.1283C117.725 51.7316 118.033 51.2586 118.237 50.7384C118.441 50.2183 118.536 49.6619 118.517 49.1035C118.524 46.5964 118.303 44.0939 117.857 41.6268C117.509 39.589 117.147 37.2671 115.798 35.6198C114.989 34.6823 114.066 33.8498 113.05 33.1418C111.942 32.3111 109.563 29.9395 108.79 29.1301C107.774 30.4436 103.521 35.5204 97.2372 36.9405C97.872 39.6491 98.1111 42.4353 97.9472 45.2125C97.9282 45.4488 97.9282 45.6862 97.9472 45.9225C97.9472 45.9225 97.9189 46.1 100.439 62.9919Z" fill="#062226"/>
<path d="M114.57 58.5259C114.57 58.5259 110.622 59.456 107.555 57.2904C104.487 55.1248 104.359 52.377 104.359 52.377C104.359 52.377 109.216 54.4432 113.711 53.6976L114.57 58.5259Z" fill="#062226"/>
<path d="M112.503 59.0436C110.681 59.0828 108.891 58.5597 107.377 57.5454C104.217 55.3158 104.075 52.5467 104.075 52.3905C104.071 52.3375 104.081 52.2843 104.105 52.2367C104.129 52.1892 104.165 52.149 104.21 52.1207C104.252 52.0889 104.302 52.0689 104.354 52.0626C104.407 52.0564 104.46 52.0642 104.508 52.0852C104.558 52.0852 109.344 54.1088 113.689 53.3845C113.77 53.3722 113.852 53.392 113.919 53.4398C113.985 53.4876 114.03 53.5596 114.044 53.6402L114.91 58.4684C114.925 58.5483 114.908 58.6308 114.863 58.6984C114.818 58.766 114.748 58.8134 114.669 58.8305C113.957 58.9823 113.231 59.0537 112.503 59.0436ZM104.785 52.8662C105.228 54.5755 106.288 56.0603 107.76 57.0341C110.21 58.7666 113.291 58.4542 114.236 58.2767L113.483 54.052C109.826 54.5561 106.106 53.3632 104.785 52.8662Z" fill="#062226"/>
<path d="M108.471 36.9766C108.471 36.9766 112.525 41.0948 111.929 42.0533C111.332 43.0119 109.131 42.877 109.131 42.877" fill="white"/>
<path d="M109.472 43.1966H109.109C109.068 43.1939 109.028 43.1831 108.991 43.1648C108.955 43.1466 108.922 43.1212 108.895 43.0902C108.868 43.0592 108.847 43.0231 108.834 42.9841C108.821 42.9451 108.815 42.9039 108.818 42.8629C108.824 42.7793 108.862 42.7013 108.924 42.6456C108.987 42.5898 109.068 42.5607 109.152 42.5646C109.713 42.5646 111.282 42.5646 111.666 41.8972C111.907 41.4996 110.317 39.3056 108.25 37.2038C108.221 37.1745 108.199 37.1397 108.183 37.1015C108.168 37.0633 108.16 37.0224 108.16 36.9812C108.16 36.94 108.169 36.8993 108.185 36.8613C108.201 36.8234 108.224 36.789 108.254 36.7601C108.283 36.7312 108.318 36.7083 108.356 36.6929C108.394 36.6774 108.435 36.6696 108.476 36.6699C108.518 36.6703 108.558 36.6787 108.596 36.6948C108.634 36.7108 108.669 36.7342 108.698 36.7636C109.969 38.0559 112.851 41.173 112.198 42.2309C111.658 43.0901 110.175 43.1966 109.472 43.1966Z" fill="#062226"/>
<path d="M114.079 39.2157C114.377 39.1469 114.514 38.6388 114.385 38.081C114.256 37.5232 113.91 37.1268 113.612 37.1956C113.314 37.2645 113.177 37.7725 113.306 38.3304C113.435 38.8882 113.781 39.2846 114.079 39.2157Z" fill="#062226"/>
<path d="M105.033 40.1356C105.331 40.0668 105.468 39.5588 105.339 39.0009C105.21 38.4431 104.864 38.0467 104.566 38.1156C104.268 38.1844 104.131 38.6924 104.26 39.2503C104.389 39.8081 104.735 40.2045 105.033 40.1356Z" fill="#062226"/>
<path d="M99.9001 40.3285C98.9132 38.7309 96.6056 38.5108 94.9938 39.1569C94.4591 39.3482 93.9941 39.6953 93.6587 40.1535C93.3233 40.6116 93.1329 41.1598 93.1122 41.7273C93.0998 42.4242 93.2252 43.1168 93.4814 43.7651C93.9102 44.9805 94.5549 46.1086 95.3843 47.0952C95.7708 47.6112 96.2812 48.0215 96.8683 48.288C97.2381 48.4186 97.6385 48.4356 98.0181 48.337C98.3976 48.2383 98.739 48.0284 98.9984 47.7342" fill="white"/>
<path d="M97.5362 48.7427C97.2688 48.7424 97.0038 48.6919 96.7552 48.5936C96.1182 48.3046 95.5622 47.8632 95.1363 47.3084C94.2841 46.291 93.6204 45.1296 93.1766 43.8789C92.9056 43.1872 92.7729 42.449 92.786 41.7062C92.8134 41.0792 93.0265 40.4745 93.3981 39.9688C93.7698 39.4632 94.2833 39.0793 94.8736 38.866C96.6487 38.156 99.1338 38.44 100.178 40.1654C100.213 40.2383 100.221 40.322 100.198 40.4001C100.176 40.4782 100.125 40.545 100.056 40.5876C99.9864 40.6302 99.9038 40.6455 99.8239 40.6304C99.7441 40.6154 99.6727 40.5711 99.6237 40.5062C98.7362 39.0861 96.6416 38.8518 95.115 39.4625C94.6386 39.6313 94.2234 39.9384 93.9224 40.3444C93.6214 40.7503 93.4483 41.2368 93.4251 41.7417C93.4155 42.3973 93.5336 43.0484 93.773 43.6588C94.1899 44.8376 94.8152 45.9318 95.6191 46.8895C95.9733 47.3609 96.4394 47.7367 96.9753 47.9829C97.289 48.0932 97.6286 48.1068 97.9501 48.022C98.2716 47.9372 98.5603 47.7579 98.7788 47.5072C98.8068 47.4701 98.8424 47.4395 98.8832 47.4173C98.9241 47.3951 98.9692 47.3818 99.0155 47.3784C99.0619 47.375 99.1084 47.3816 99.152 47.3976C99.1957 47.4137 99.2354 47.4388 99.2685 47.4714C99.3016 47.504 99.3274 47.5433 99.3441 47.5867C99.3608 47.6301 99.3681 47.6765 99.3654 47.7229C99.3627 47.7693 99.3502 47.8146 99.3286 47.8558C99.3071 47.8969 99.2769 47.933 99.2403 47.9616C99.0219 48.1979 98.7589 48.3886 98.4664 48.5227C98.1739 48.6567 97.8578 48.7315 97.5362 48.7427Z" fill="#062226"/>
<path d="M112.446 44.1543L107.696 44.6158C107.696 44.6158 108.683 51.9576 110.82 51.7588C112.958 51.56 112.965 46.256 112.446 44.1543Z" fill="white"/>
<path d="M110.728 52.0798C108.491 52.0798 107.547 45.9166 107.384 44.6599C107.376 44.6185 107.378 44.5759 107.389 44.5353C107.4 44.4947 107.42 44.4572 107.448 44.4256C107.472 44.3908 107.504 44.362 107.541 44.3411C107.577 44.3202 107.618 44.3078 107.661 44.3048L112.418 43.8433C112.492 43.8359 112.567 43.8555 112.628 43.8985C112.69 43.9415 112.733 44.0051 112.752 44.0776C113.156 45.7107 113.291 49.623 112.113 51.2774C111.975 51.4958 111.789 51.6806 111.571 51.8182C111.352 51.9558 111.105 52.0428 110.849 52.0727L110.728 52.0798ZM108.051 44.9013C108.449 47.5852 109.471 51.4478 110.728 51.4478H110.792C110.958 51.4242 111.116 51.3643 111.256 51.2722C111.396 51.1801 111.514 51.0583 111.601 50.9153C112.532 49.6017 112.574 46.3143 112.205 44.525L108.051 44.9013Z" fill="#062226"/>
<path d="M124.333 101.086C124.276 101.086 124.22 101.07 124.17 101.041C124.121 101.012 124.081 100.97 124.053 100.92C124.026 100.87 124.012 100.814 124.014 100.757C124.015 100.7 124.032 100.644 124.063 100.596C124.113 100.504 129.331 91.7275 124.34 73.4511C124.32 73.3683 124.332 73.281 124.374 73.2071C124.417 73.1332 124.486 73.0782 124.567 73.0534C124.608 73.0417 124.651 73.0382 124.693 73.0433C124.736 73.0484 124.777 73.0619 124.814 73.0831C124.851 73.1043 124.883 73.1327 124.909 73.1666C124.935 73.2005 124.954 73.2393 124.965 73.2807C130.041 91.8553 124.837 100.575 124.61 100.972C124.577 101.013 124.534 101.044 124.486 101.064C124.437 101.084 124.385 101.092 124.333 101.086Z" fill="#062226"/>
<path d="M27.7676 75.6875L104.423 130.992L181.079 75.6875V166.416H27.7676V75.6875Z" fill="white"/>
<path d="M181.079 166.772H27.7672C27.673 166.772 27.5827 166.734 27.5161 166.668C27.4496 166.601 27.4122 166.511 27.4122 166.417V75.6877C27.411 75.6228 27.4285 75.5589 27.4624 75.5035C27.4964 75.4482 27.5455 75.4037 27.6039 75.3753C27.6592 75.3406 27.7232 75.3223 27.7885 75.3223C27.8538 75.3223 27.9177 75.3406 27.9731 75.3753L104.423 130.524L180.866 75.3753C180.921 75.3406 180.985 75.3223 181.051 75.3223C181.116 75.3223 181.18 75.3406 181.235 75.3753C181.294 75.4034 181.344 75.4476 181.38 75.5028C181.415 75.5581 181.434 75.6222 181.434 75.6877V166.417C181.432 166.51 181.394 166.599 181.328 166.666C181.262 166.732 181.173 166.77 181.079 166.772ZM28.1009 166.062H180.759V76.3835L104.629 131.277C104.568 131.321 104.495 131.345 104.42 131.345C104.344 131.345 104.271 131.321 104.21 131.277L28.1009 76.3835V166.062Z" fill="#062226"/>
<path d="M27.7675 166.771C27.7036 166.771 27.6409 166.754 27.5859 166.721C27.5309 166.689 27.4857 166.642 27.4551 166.586C27.4109 166.504 27.4003 166.408 27.4255 166.318C27.4506 166.228 27.5096 166.151 27.59 166.103L97.7277 125.979C97.8096 125.933 97.9065 125.921 97.997 125.947C98.0875 125.972 98.1643 126.032 98.2105 126.114C98.2346 126.154 98.2503 126.198 98.2569 126.244C98.2635 126.29 98.2607 126.337 98.2488 126.382C98.2369 126.427 98.216 126.47 98.1875 126.506C98.159 126.543 98.1233 126.574 98.0827 126.597L27.9379 166.721C27.8861 166.752 27.8275 166.769 27.7675 166.771Z" fill="#062226"/>
<path d="M181.079 166.772C181.016 166.77 180.955 166.753 180.901 166.723L110.763 126.598C110.682 126.552 110.621 126.475 110.596 126.385C110.571 126.294 110.582 126.197 110.628 126.115C110.676 126.035 110.753 125.976 110.843 125.951C110.933 125.926 111.029 125.936 111.111 125.98L181.249 166.105C181.331 166.151 181.391 166.228 181.416 166.318C181.442 166.409 181.43 166.506 181.384 166.588C181.354 166.643 181.31 166.69 181.257 166.722C181.203 166.755 181.141 166.772 181.079 166.772Z" fill="#062226"/>
<path d="M64.3129 124.801C64.3129 124.801 67.4158 132.881 68.1471 133.321C68.8784 133.761 77.5196 137.297 76.9019 138.952C76.2842 140.606 72.3931 138.59 72.3931 138.59C72.3931 138.59 77.9954 145.072 76.5185 146.216C75.0416 147.359 70.0713 149.681 68.0761 148.736C66.0809 147.792 56.1332 135.466 54.0244 130.112" fill="white"/>
<path d="M69.2828 149.334C68.8199 149.348 68.3595 149.261 67.9338 149.078C65.8036 148.063 55.7921 135.587 53.6975 130.262C53.6807 130.218 53.6727 130.172 53.674 130.125C53.6752 130.078 53.6857 130.032 53.7048 129.989C53.724 129.946 53.7513 129.907 53.7854 129.875C53.8195 129.843 53.8596 129.817 53.9034 129.801C53.9472 129.784 53.9939 129.776 54.0408 129.777C54.0877 129.778 54.1339 129.789 54.1768 129.808C54.2196 129.827 54.2583 129.854 54.2906 129.889C54.3229 129.923 54.3481 129.963 54.3649 130.006C56.495 135.467 66.5066 147.615 68.232 148.468C69.9574 149.32 74.8069 147.161 76.3122 145.989C76.3446 145.959 76.3707 145.923 76.389 145.883C76.4073 145.843 76.4174 145.799 76.4187 145.755C76.5536 144.335 73.3656 140.309 72.1585 138.875C72.1045 138.812 72.0739 138.733 72.0722 138.65C72.0704 138.568 72.0975 138.487 72.1488 138.422C72.2002 138.358 72.2725 138.313 72.3533 138.296C72.4341 138.278 72.5184 138.29 72.5916 138.328C73.3017 138.697 75.3324 139.578 76.2412 139.23C76.3245 139.202 76.4003 139.155 76.463 139.094C76.5257 139.032 76.5737 138.958 76.6033 138.875C76.7738 138.413 75.6519 137.256 69.3254 134.324C68.5586 133.969 68.1539 133.777 67.9906 133.67C67.2237 133.18 64.7528 126.875 64.0143 124.958C63.9972 124.914 63.989 124.868 63.9901 124.821C63.9912 124.774 64.0017 124.727 64.0208 124.684C64.04 124.641 64.0675 124.603 64.1017 124.57C64.1359 124.538 64.1762 124.513 64.2203 124.497C64.3079 124.464 64.4047 124.468 64.4897 124.506C64.5748 124.545 64.6412 124.615 64.6747 124.702C66.1516 128.544 67.9409 132.726 68.3811 133.081C68.5018 133.159 69.0201 133.4 69.6237 133.677C74.7217 136.035 77.7749 137.774 77.2708 139.123C77.2054 139.301 77.1024 139.462 76.9688 139.595C76.8351 139.729 76.6741 139.832 76.4968 139.897C75.5395 140.093 74.5447 139.978 73.6567 139.571C75.0271 141.282 77.2921 144.356 77.1501 145.819C77.1386 145.957 77.0993 146.091 77.0346 146.213C76.9699 146.335 76.8812 146.442 76.7738 146.529C75.6022 147.417 71.8248 149.334 69.2828 149.334Z" fill="#062226"/>
<path d="M77.6264 62.4883C59.3642 74.2181 37.1542 91.4792 35.2797 95.5122C32.2833 101.903 54.6922 134.039 54.6922 134.039L66.8267 126.342L55.7359 102.25L77.6051 87.3752" fill="#062226"/>
<path d="M63.6031 97.2793C63.5505 97.2808 63.4983 97.2693 63.4512 97.2457C63.4042 97.2222 63.3636 97.1874 63.3332 97.1444C63.2853 97.0732 63.2666 96.9862 63.2812 96.9015C63.2957 96.8169 63.3424 96.7411 63.4113 96.69L87.9645 79.4999C87.9992 79.4744 88.0386 79.4561 88.0805 79.4461C88.1224 79.4362 88.1659 79.4348 88.2084 79.4421C88.2508 79.4494 88.2914 79.4652 88.3275 79.4886C88.3637 79.5119 88.3948 79.5424 88.4189 79.578C88.4432 79.6135 88.4603 79.6533 88.4691 79.6953C88.478 79.7374 88.4785 79.7807 88.4706 79.8229C88.4627 79.8651 88.4465 79.9054 88.423 79.9413C88.3995 79.9773 88.3692 80.0083 88.3337 80.0325L63.7877 97.2225C63.7341 97.2614 63.6692 97.2814 63.6031 97.2793Z" fill="#062226"/>
<path d="M170.286 145.996L200.044 127.783L174.83 138.285L170.286 145.996Z" fill="#062226"/>
<path d="M170.286 146.351C170.24 146.351 170.194 146.341 170.151 146.323C170.108 146.305 170.07 146.278 170.038 146.245C169.981 146.189 169.945 146.116 169.935 146.038C169.924 145.959 169.941 145.88 169.981 145.811L174.525 138.108C174.561 138.041 174.619 137.988 174.688 137.958L199.93 127.457C200.013 127.423 200.106 127.421 200.19 127.452C200.274 127.483 200.343 127.545 200.384 127.625C200.424 127.705 200.433 127.797 200.408 127.883C200.383 127.969 200.327 128.043 200.25 128.089L170.471 146.273C170.416 146.314 170.353 146.34 170.286 146.351ZM175.072 138.541L171.316 144.931L195.947 129.857L175.072 138.541Z" fill="#062226"/>
<path d="M174.831 138.285L184.559 143.262L200.045 127.783L174.831 138.285Z" fill="white"/>
<path d="M184.558 143.582C184.507 143.584 184.455 143.572 184.409 143.547L174.682 138.577C174.626 138.55 174.579 138.507 174.548 138.454C174.516 138.401 174.501 138.34 174.504 138.278C174.508 138.216 174.528 138.156 174.563 138.105C174.598 138.054 174.647 138.013 174.703 137.987L199.931 127.486C200 127.458 200.076 127.456 200.147 127.477C200.218 127.499 200.28 127.545 200.321 127.606C200.364 127.668 200.383 127.742 200.375 127.817C200.367 127.891 200.333 127.96 200.279 128.011L184.793 143.49C184.763 143.522 184.726 143.546 184.686 143.562C184.645 143.578 184.602 143.585 184.558 143.582ZM175.598 138.321L184.495 142.865L198.653 128.714L175.598 138.321Z" fill="#062226"/>
<path d="M200.045 127.783L168.008 135.437L160.723 131.269L200.045 127.783Z" fill="white"/>
<path d="M167.979 135.757C167.924 135.757 167.87 135.743 167.823 135.715L160.531 131.554C160.472 131.518 160.427 131.465 160.4 131.403C160.373 131.34 160.367 131.27 160.382 131.204C160.397 131.137 160.432 131.077 160.483 131.031C160.534 130.986 160.598 130.958 160.665 130.95L199.987 127.464C200.069 127.457 200.149 127.481 200.214 127.531C200.278 127.581 200.321 127.653 200.335 127.734C200.349 127.814 200.331 127.897 200.286 127.965C200.242 128.034 200.173 128.083 200.094 128.103L168.057 135.75L167.979 135.757ZM161.752 131.497L168.029 135.083L195.67 128.522L161.752 131.497Z" fill="#062226"/>
<path d="M168.007 135.437L170.286 145.996L174.83 138.285L200.044 127.783L168.007 135.437Z" fill="white"/>
<path d="M170.286 146.323H170.237C170.172 146.313 170.112 146.285 170.064 146.24C170.015 146.196 169.982 146.138 169.967 146.075L167.695 135.509C167.685 135.468 167.684 135.426 167.691 135.384C167.698 135.343 167.713 135.303 167.736 135.267C167.758 135.232 167.787 135.201 167.822 135.177C167.856 135.152 167.895 135.135 167.936 135.126L199.973 127.479C200.054 127.452 200.142 127.459 200.218 127.498C200.294 127.536 200.351 127.604 200.378 127.685C200.404 127.766 200.397 127.854 200.359 127.93C200.32 128.005 200.253 128.063 200.172 128.089L175.079 138.548L170.592 146.16C170.562 146.213 170.517 146.257 170.463 146.286C170.409 146.315 170.348 146.328 170.286 146.323ZM168.39 135.673L170.428 145.109L174.547 138.115C174.584 138.056 174.639 138.009 174.703 137.98L196.189 129.034L168.39 135.673Z" fill="#062226"/>
<path d="M163.718 147.465C163.642 147.464 163.569 147.438 163.509 147.391C163.449 147.345 163.405 147.28 163.384 147.207C163.364 147.134 163.367 147.056 163.394 146.985C163.421 146.914 163.47 146.853 163.534 146.812L164.719 146.052C164.798 146.001 164.895 145.982 164.987 146.002C165.08 146.021 165.161 146.076 165.213 146.155C165.265 146.234 165.283 146.331 165.264 146.423C165.244 146.516 165.189 146.597 165.11 146.649L163.91 147.416C163.851 147.449 163.785 147.466 163.718 147.465Z" fill="#D1D3D4"/>
<path d="M56.2331 180C56.1395 179.998 56.0503 179.96 55.9841 179.894C55.9179 179.827 55.8799 179.738 55.8781 179.645C55.8781 179.552 55.9145 179.462 55.9795 179.396C56.0446 179.33 56.1331 179.291 56.226 179.29L57.9159 179.254L59.0591 179.218C59.1523 179.218 59.2421 179.253 59.3106 179.316C59.3791 179.38 59.4211 179.466 59.4283 179.559C59.4302 179.607 59.4226 179.654 59.4061 179.698C59.3895 179.742 59.3643 179.783 59.3319 179.817C59.2995 179.851 59.2606 179.879 59.2174 179.898C59.1742 179.917 59.1276 179.928 59.0804 179.929L57.9372 179.964L56.2402 180H56.2331ZM53.3929 180C52.4273 180 51.4758 179.957 50.5528 179.921C50.4592 179.916 50.3715 179.874 50.3079 179.806C50.2444 179.737 50.21 179.646 50.212 179.552C50.2138 179.506 50.2248 179.46 50.2444 179.417C50.2639 179.375 50.2916 179.337 50.3259 179.305C50.3602 179.274 50.4004 179.249 50.4442 179.233C50.488 179.217 50.5346 179.21 50.5812 179.211C51.5042 179.247 52.4486 179.275 53.4214 179.29C53.5155 179.29 53.6058 179.327 53.6724 179.393C53.739 179.46 53.7764 179.55 53.7764 179.645C53.7755 179.693 53.7649 179.74 53.7454 179.784C53.7259 179.828 53.6979 179.868 53.6628 179.901C53.6278 179.934 53.5865 179.96 53.5413 179.977C53.4962 179.994 53.4482 180.001 53.4 180H53.3929ZM61.9134 179.808C61.8236 179.808 61.7371 179.773 61.6723 179.711C61.6074 179.649 61.5692 179.564 61.5655 179.474C61.5626 179.427 61.569 179.381 61.5842 179.337C61.5994 179.292 61.6232 179.252 61.6542 179.217C61.6852 179.182 61.7228 179.153 61.7649 179.133C61.8069 179.112 61.8526 179.101 61.8992 179.098C62.8436 179.055 63.7879 178.998 64.7394 178.934C64.7862 178.931 64.8334 178.936 64.878 178.951C64.9226 178.966 64.9637 178.99 64.9989 179.021C65.034 179.052 65.0625 179.09 65.0826 179.133C65.1027 179.175 65.1139 179.221 65.1157 179.268C65.1196 179.314 65.1141 179.361 65.0997 179.405C65.0853 179.449 65.0622 179.49 65.0317 179.525C65.0013 179.56 64.9641 179.589 64.9225 179.609C64.8808 179.63 64.8354 179.642 64.7891 179.645C63.8447 179.708 62.9004 179.765 61.9489 179.808H61.9134ZM47.7481 179.758C46.7825 179.687 45.8381 179.602 44.908 179.503C44.8149 179.492 44.7298 179.445 44.6713 179.372C44.6128 179.298 44.5856 179.205 44.5956 179.112C44.5989 179.065 44.612 179.02 44.6338 178.978C44.6557 178.936 44.6859 178.9 44.7226 178.87C44.7592 178.841 44.8016 178.82 44.8469 178.808C44.8923 178.795 44.9396 178.793 44.9861 178.8C45.902 178.892 46.8393 178.977 47.8262 179.048C47.9204 179.048 48.0107 179.085 48.0773 179.152C48.1439 179.219 48.1813 179.309 48.1813 179.403C48.1813 179.497 48.1439 179.588 48.0773 179.654C48.0107 179.721 47.9204 179.758 47.8262 179.758H47.7481ZM67.5795 179.439C67.4854 179.439 67.3951 179.401 67.3285 179.335C67.2619 179.268 67.2245 179.178 67.2245 179.084C67.2245 178.989 67.2619 178.899 67.3285 178.833C67.3951 178.766 67.4854 178.729 67.5795 178.729C68.5239 178.65 69.4611 178.565 70.4197 178.473C70.5132 178.467 70.6055 178.496 70.6781 178.556C70.7506 178.615 70.7978 178.7 70.8102 178.792C70.8151 178.839 70.8107 178.886 70.7973 178.931C70.7838 178.976 70.7616 179.018 70.7319 179.054C70.7022 179.091 70.6656 179.121 70.6242 179.143C70.5828 179.165 70.5374 179.179 70.4907 179.183C69.544 179.273 68.5973 179.358 67.6505 179.439H67.5795ZM42.1033 179.147H42.0536C41.1022 179.005 40.1578 178.849 39.2135 178.679C39.1668 178.67 39.1224 178.652 39.0827 178.626C39.043 178.6 39.0089 178.566 38.9822 178.527C38.9555 178.488 38.9368 178.444 38.9271 178.397C38.9174 178.351 38.917 178.303 38.9259 178.256C38.9347 178.21 38.9527 178.165 38.9787 178.126C39.0047 178.086 39.0383 178.052 39.0776 178.025C39.1168 177.998 39.1609 177.98 39.2074 177.97C39.2538 177.96 39.3017 177.96 39.3484 177.969C40.2501 178.139 41.1874 178.295 42.1317 178.43C42.1779 178.437 42.2223 178.453 42.2623 178.477C42.3023 178.501 42.3371 178.533 42.3648 178.571C42.3925 178.608 42.4125 178.651 42.4237 178.696C42.4349 178.742 42.437 178.789 42.4299 178.835C42.4184 178.919 42.3781 178.996 42.3159 179.053C42.2536 179.11 42.1734 179.143 42.0891 179.147H42.1033ZM73.2315 178.892C73.1848 178.895 73.1381 178.888 73.094 178.873C73.0498 178.858 73.0091 178.834 72.9742 178.803C72.9392 178.772 72.9107 178.734 72.8903 178.692C72.8699 178.65 72.8579 178.605 72.8551 178.558C72.8523 178.512 72.8587 178.465 72.874 178.421C72.8893 178.377 72.9131 178.336 72.944 178.301C72.975 178.266 73.0126 178.237 73.0546 178.217C73.0966 178.197 73.1422 178.185 73.1889 178.182C74.1356 178.078 75.0823 177.964 76.029 177.841C76.1232 177.829 76.2183 177.854 76.2936 177.912C76.3688 177.97 76.4179 178.056 76.4302 178.15C76.4424 178.244 76.4168 178.339 76.3588 178.414C76.3009 178.49 76.2155 178.539 76.1213 178.551L73.2812 178.885L73.2315 178.892ZM78.8621 178.182C78.7763 178.181 78.6936 178.15 78.6286 178.094C78.5636 178.038 78.5205 177.961 78.5071 177.877C78.5001 177.83 78.5024 177.782 78.514 177.736C78.5257 177.691 78.5463 177.648 78.5747 177.61C78.6032 177.572 78.6388 177.541 78.6796 177.517C78.7204 177.493 78.7655 177.478 78.8124 177.472L81.6099 177.053C81.6557 177.045 81.7026 177.046 81.7479 177.056C81.7932 177.067 81.836 177.086 81.8737 177.113C81.9114 177.14 81.9434 177.175 81.9676 177.214C81.9918 177.254 82.0078 177.298 82.0146 177.344C82.0228 177.39 82.0217 177.438 82.0115 177.483C82.0012 177.529 81.982 177.572 81.9549 177.611C81.9279 177.649 81.8935 177.681 81.8538 177.706C81.814 177.731 81.7698 177.748 81.7235 177.756L78.8834 178.175L78.8621 178.182ZM36.5366 178.111H36.4514C35.507 177.891 34.5769 177.649 33.6893 177.401C33.6 177.373 33.525 177.311 33.48 177.229C33.4349 177.147 33.4235 177.051 33.4479 176.961C33.461 176.916 33.4827 176.874 33.5119 176.838C33.5411 176.801 33.5772 176.771 33.618 176.749C33.6589 176.726 33.7038 176.712 33.7502 176.707C33.7965 176.702 33.8434 176.706 33.8882 176.719C34.7686 176.968 35.6846 177.209 36.6147 177.429C36.6603 177.439 36.7035 177.458 36.7416 177.485C36.7797 177.512 36.812 177.547 36.8365 177.586C36.861 177.626 36.8773 177.671 36.8843 177.717C36.8913 177.763 36.889 177.81 36.8774 177.855C36.854 177.93 36.8064 177.995 36.7422 178.04C36.678 178.085 36.6007 178.107 36.5224 178.104L36.5366 178.111ZM84.4643 177.294C84.3811 177.295 84.3002 177.267 84.2364 177.213C84.1725 177.16 84.1299 177.085 84.1164 177.003C84.1018 176.91 84.1241 176.815 84.1784 176.738C84.2328 176.661 84.3149 176.609 84.4075 176.591L87.1979 176.094C87.2437 176.085 87.2908 176.085 87.3366 176.095C87.3823 176.104 87.4257 176.122 87.4641 176.149C87.5025 176.175 87.5352 176.209 87.5602 176.249C87.5853 176.288 87.6021 176.332 87.6098 176.378C87.6264 176.471 87.6058 176.566 87.5526 176.643C87.4994 176.72 87.4179 176.773 87.3257 176.79L84.5282 177.294H84.4643ZM31.0764 176.52C31.0388 176.527 31.0004 176.527 30.9628 176.52C30.0539 176.201 29.1522 175.853 28.293 175.491C28.2501 175.472 28.2112 175.445 28.1786 175.412C28.146 175.378 28.1204 175.338 28.1032 175.295C28.0861 175.251 28.0777 175.205 28.0786 175.158C28.0795 175.111 28.0896 175.065 28.1084 175.022C28.1459 174.937 28.2152 174.87 28.3015 174.836C28.3878 174.801 28.4842 174.802 28.57 174.838C29.4149 175.193 30.3025 175.548 31.1971 175.853C31.2913 175.869 31.3752 175.922 31.4305 176C31.4857 176.077 31.5078 176.174 31.4918 176.268C31.4758 176.362 31.423 176.446 31.3451 176.502C31.2672 176.557 31.1706 176.579 31.0764 176.563V176.52ZM90.0097 176.251C89.9282 176.249 89.8495 176.221 89.7864 176.169C89.7233 176.117 89.6793 176.046 89.6618 175.967C89.6524 175.921 89.6522 175.874 89.6611 175.828C89.6699 175.782 89.6877 175.739 89.7134 175.7C89.7392 175.661 89.7723 175.627 89.8109 175.601C89.8496 175.575 89.893 175.557 89.9387 175.548L92.7149 174.965C92.7606 174.956 92.8077 174.956 92.8535 174.965C92.8993 174.974 92.9429 174.991 92.9818 175.017C93.0207 175.043 93.0541 175.076 93.0802 175.115C93.1063 175.153 93.1245 175.197 93.1339 175.242C93.1443 175.288 93.1455 175.334 93.1375 175.38C93.1295 175.426 93.1124 175.47 93.0873 175.509C93.0621 175.548 93.0294 175.581 92.9911 175.607C92.9528 175.634 92.9096 175.652 92.8641 175.661L90.0807 176.243L90.0097 176.251ZM95.5622 175.058C95.5156 175.063 95.4684 175.059 95.4234 175.046C95.3783 175.032 95.3363 175.011 95.2997 174.981C95.2631 174.952 95.2327 174.916 95.2101 174.875C95.1875 174.833 95.1733 174.788 95.1681 174.742C95.163 174.695 95.1671 174.648 95.1802 174.603C95.1933 174.558 95.2152 174.516 95.2445 174.479C95.2738 174.443 95.3101 174.412 95.3512 174.39C95.3923 174.367 95.4375 174.353 95.4841 174.348C96.4071 174.135 97.3231 173.922 98.2391 173.694C98.3304 173.673 98.4264 173.689 98.5062 173.738C98.5861 173.787 98.6432 173.866 98.6651 173.957C98.6767 174.003 98.6791 174.05 98.6722 174.097C98.6652 174.144 98.649 174.188 98.6246 174.229C98.6001 174.269 98.5679 174.304 98.5297 174.332C98.4916 174.36 98.4483 174.379 98.4024 174.39C97.4864 174.61 96.5705 174.83 95.6403 175.036L95.5622 175.058ZM25.8434 174.298C25.7864 174.296 25.7306 174.282 25.6801 174.255C24.8209 173.815 23.9831 173.339 23.1879 172.835C23.1482 172.811 23.1137 172.778 23.0865 172.74C23.0593 172.702 23.0399 172.659 23.0293 172.614C23.0188 172.568 23.0173 172.521 23.025 172.475C23.0327 172.429 23.0495 172.385 23.0743 172.345C23.0982 172.305 23.1301 172.27 23.1681 172.242C23.206 172.214 23.2492 172.194 23.2949 172.184C23.3407 172.173 23.3882 172.172 23.4345 172.18C23.4807 172.188 23.5249 172.206 23.5642 172.232C24.3381 172.707 25.1618 173.169 26.0067 173.602C26.1009 173.624 26.1826 173.682 26.2338 173.764C26.2851 173.846 26.3017 173.945 26.2801 174.039C26.2584 174.133 26.2003 174.215 26.1184 174.266C26.0365 174.317 25.9376 174.334 25.8434 174.312V174.298ZM101.108 173.716C101.013 173.727 100.919 173.7 100.844 173.642C100.77 173.583 100.721 173.497 100.71 173.403C100.699 173.309 100.725 173.214 100.784 173.14C100.842 173.065 100.928 173.017 101.022 173.006L103.763 172.296C103.81 172.283 103.858 172.281 103.906 172.287C103.954 172.294 104 172.31 104.041 172.334C104.083 172.359 104.119 172.391 104.148 172.429C104.177 172.468 104.198 172.512 104.21 172.558C104.223 172.605 104.225 172.654 104.219 172.701C104.212 172.749 104.196 172.795 104.172 172.836C104.147 172.878 104.115 172.914 104.077 172.943C104.038 172.972 103.994 172.994 103.948 173.006C103.039 173.252 102.123 173.488 101.2 173.716C101.165 173.726 101.128 173.726 101.093 173.716H101.108ZM106.589 172.232C106.512 172.233 106.437 172.208 106.375 172.162C106.313 172.116 106.269 172.05 106.248 171.976C106.224 171.885 106.237 171.788 106.283 171.705C106.329 171.623 106.406 171.562 106.497 171.536L109.216 170.748C109.306 170.721 109.402 170.731 109.484 170.775C109.567 170.818 109.629 170.893 109.656 170.982C109.671 171.027 109.675 171.074 109.671 171.121C109.666 171.167 109.652 171.212 109.63 171.254C109.607 171.295 109.576 171.331 109.54 171.36C109.503 171.389 109.46 171.41 109.415 171.422C108.513 171.692 107.604 171.962 106.689 172.218C106.652 172.231 106.613 172.236 106.575 172.232H106.589ZM21.0506 171.316C20.9737 171.316 20.8988 171.291 20.8376 171.245C20.0637 170.67 19.3181 170.059 18.6223 169.427C18.589 169.394 18.5626 169.355 18.5446 169.312C18.5266 169.268 18.5173 169.222 18.5173 169.175C18.5173 169.128 18.5266 169.082 18.5446 169.038C18.5626 168.995 18.589 168.956 18.6223 168.923C18.6547 168.89 18.6934 168.864 18.736 168.846C18.7787 168.828 18.8245 168.818 18.8708 168.818C18.9171 168.818 18.9629 168.828 19.0056 168.846C19.0483 168.864 19.0869 168.89 19.1193 168.923C19.8111 169.55 20.5339 170.143 21.285 170.698C21.3603 170.755 21.4101 170.839 21.4234 170.932C21.4367 171.025 21.4125 171.12 21.356 171.195C21.3182 171.238 21.2708 171.271 21.2178 171.292C21.1647 171.313 21.1074 171.321 21.0506 171.316ZM112.014 170.606C111.939 170.607 111.865 170.583 111.805 170.538C111.744 170.493 111.7 170.43 111.68 170.357C111.666 170.312 111.661 170.265 111.665 170.219C111.669 170.172 111.682 170.126 111.704 170.085C111.726 170.043 111.755 170.006 111.792 169.976C111.828 169.946 111.869 169.924 111.914 169.91C112.823 169.633 113.718 169.342 114.613 169.058C114.657 169.042 114.704 169.036 114.75 169.039C114.797 169.042 114.843 169.055 114.885 169.076C114.926 169.097 114.963 169.127 114.994 169.163C115.024 169.199 115.046 169.24 115.06 169.285C115.089 169.374 115.081 169.472 115.039 169.556C114.996 169.64 114.922 169.703 114.833 169.732C113.938 170.023 113.036 170.307 112.12 170.592C112.087 170.606 112.05 170.613 112.014 170.613V170.606ZM117.417 168.852C117.323 168.867 117.227 168.844 117.15 168.788C117.072 168.732 117.02 168.648 117.005 168.554C116.99 168.46 117.013 168.363 117.069 168.286C117.125 168.209 117.209 168.157 117.304 168.142C118.205 167.837 119.1 167.531 119.98 167.219C120.07 167.189 120.168 167.196 120.252 167.237C120.337 167.278 120.403 167.35 120.435 167.439C120.451 167.482 120.458 167.528 120.455 167.574C120.453 167.62 120.442 167.666 120.422 167.707C120.402 167.749 120.374 167.786 120.34 167.817C120.306 167.848 120.265 167.871 120.222 167.886C119.334 168.199 118.44 168.511 117.531 168.816L117.417 168.852ZM16.8685 167.503C16.8176 167.502 16.7674 167.491 16.721 167.471C16.6746 167.45 16.6329 167.42 16.5987 167.382C15.9607 166.668 15.3633 165.919 14.8094 165.138C14.7774 165.101 14.7535 165.057 14.7392 165.01C14.725 164.963 14.7207 164.914 14.7266 164.865C14.7325 164.816 14.7486 164.769 14.7736 164.726C14.7987 164.684 14.8324 164.648 14.8724 164.619C14.9124 164.59 14.9579 164.57 15.0061 164.56C15.0542 164.55 15.104 164.55 15.1521 164.56C15.2003 164.57 15.2458 164.59 15.2858 164.619C15.3258 164.648 15.3594 164.684 15.3845 164.727C15.9243 165.486 16.5075 166.214 17.1312 166.906C17.1967 166.974 17.2334 167.064 17.2334 167.158C17.2334 167.253 17.1967 167.343 17.1312 167.411C17.0965 167.444 17.0553 167.47 17.0101 167.487C16.9649 167.504 16.9168 167.512 16.8685 167.51V167.503ZM122.771 166.977C122.698 166.975 122.628 166.952 122.569 166.911C122.509 166.869 122.464 166.811 122.437 166.743C122.405 166.655 122.41 166.557 122.45 166.472C122.49 166.387 122.562 166.321 122.65 166.289C123.552 165.962 124.432 165.628 125.313 165.302C125.397 165.28 125.487 165.291 125.564 165.331C125.642 165.372 125.701 165.439 125.732 165.521C125.763 165.603 125.762 165.693 125.731 165.774C125.699 165.855 125.639 165.922 125.561 165.962C124.681 166.296 123.793 166.622 122.892 166.949C122.855 166.972 122.814 166.984 122.771 166.985V166.977ZM128.082 164.968C128.035 164.976 127.988 164.976 127.941 164.965C127.895 164.955 127.851 164.936 127.812 164.909C127.773 164.882 127.74 164.848 127.715 164.808C127.689 164.768 127.671 164.724 127.663 164.677C127.655 164.63 127.656 164.582 127.666 164.536C127.676 164.49 127.695 164.446 127.722 164.407C127.749 164.368 127.783 164.335 127.823 164.309C127.863 164.284 127.908 164.266 127.954 164.258L130.588 163.214C130.675 163.179 130.772 163.179 130.859 163.215C130.945 163.251 131.014 163.32 131.05 163.406C131.086 163.494 131.085 163.592 131.05 163.679C131.014 163.767 130.945 163.837 130.858 163.875L128.217 164.954C128.173 164.968 128.128 164.975 128.082 164.975V164.968ZM13.5881 162.895C13.5241 162.896 13.4611 162.879 13.4059 162.846C13.3508 162.814 13.3058 162.767 13.2757 162.71C12.8118 161.871 12.3969 161.006 12.0331 160.118C11.9974 160.031 11.9978 159.933 12.0344 159.845C12.0711 159.758 12.1408 159.689 12.2284 159.653C12.316 159.618 12.4142 159.618 12.5014 159.655C12.5886 159.691 12.6577 159.761 12.6935 159.849C13.0424 160.713 13.4456 161.555 13.9005 162.369C13.9441 162.452 13.9536 162.549 13.9271 162.639C13.9006 162.729 13.8402 162.806 13.7585 162.852C13.7059 162.88 13.6475 162.894 13.5881 162.895ZM133.351 162.845C133.28 162.847 133.211 162.826 133.152 162.787C133.094 162.747 133.049 162.691 133.024 162.625C132.988 162.539 132.987 162.443 133.022 162.356C133.056 162.27 133.123 162.201 133.209 162.163C134.096 161.794 134.969 161.453 135.821 161.056C135.908 161.018 136.006 161.016 136.094 161.051C136.182 161.086 136.252 161.154 136.29 161.24C136.328 161.327 136.329 161.425 136.295 161.513C136.26 161.601 136.192 161.671 136.105 161.709L133.485 162.817C133.443 162.836 133.397 162.846 133.351 162.845ZM138.562 160.594C138.494 160.593 138.427 160.574 138.37 160.537C138.312 160.501 138.266 160.449 138.236 160.388C138.216 160.346 138.205 160.299 138.203 160.252C138.202 160.205 138.21 160.158 138.228 160.114C138.245 160.071 138.271 160.031 138.304 159.997C138.337 159.964 138.377 159.937 138.42 159.92C139.301 159.522 140.16 159.139 140.998 158.748C141.083 158.709 141.181 158.705 141.27 158.737C141.358 158.77 141.43 158.836 141.47 158.922C141.509 159.008 141.513 159.106 141.481 159.194C141.448 159.283 141.382 159.355 141.296 159.394C140.451 159.785 139.592 160.175 138.704 160.566C138.66 160.586 138.611 160.596 138.562 160.594ZM143.724 158.223C143.657 158.225 143.591 158.207 143.535 158.171C143.478 158.136 143.433 158.085 143.405 158.024C143.384 157.982 143.372 157.936 143.369 157.89C143.366 157.843 143.372 157.796 143.388 157.752C143.403 157.708 143.426 157.667 143.457 157.632C143.488 157.597 143.526 157.569 143.568 157.548C144.448 157.136 145.3 156.724 146.124 156.32C146.209 156.278 146.307 156.272 146.396 156.303C146.485 156.333 146.558 156.398 146.6 156.483C146.641 156.568 146.647 156.665 146.617 156.755C146.586 156.844 146.521 156.917 146.437 156.959L143.873 158.194C143.826 158.214 143.775 158.224 143.724 158.223ZM11.4438 157.633C11.3661 157.633 11.2906 157.607 11.2291 157.559C11.1675 157.512 11.1232 157.446 11.103 157.371C10.843 156.448 10.6344 155.512 10.4781 154.566C10.4631 154.472 10.486 154.375 10.542 154.298C10.5979 154.221 10.6822 154.169 10.7764 154.154C10.8705 154.139 10.9668 154.162 11.044 154.218C11.1213 154.274 11.1731 154.358 11.1882 154.452C11.33 155.381 11.5244 156.301 11.7704 157.207C11.7835 157.252 11.7876 157.299 11.7825 157.345C11.7774 157.392 11.7633 157.436 11.7409 157.477C11.7185 157.518 11.6882 157.554 11.6519 157.584C11.6155 157.613 11.5738 157.634 11.529 157.647L11.4438 157.633ZM148.808 155.737C148.741 155.738 148.676 155.72 148.619 155.685C148.562 155.65 148.517 155.599 148.489 155.539C148.446 155.455 148.439 155.358 148.469 155.269C148.498 155.179 148.561 155.106 148.645 155.063C149.518 154.623 150.363 154.197 151.173 153.771C151.256 153.727 151.354 153.719 151.444 153.748C151.534 153.776 151.608 153.84 151.652 153.923C151.695 154.007 151.703 154.105 151.675 154.195C151.646 154.284 151.583 154.359 151.499 154.403C150.69 154.822 149.845 155.255 148.964 155.695C148.917 155.722 148.863 155.737 148.808 155.737ZM153.849 153.117C153.785 153.118 153.722 153.102 153.667 153.069C153.612 153.037 153.567 152.989 153.537 152.933C153.493 152.85 153.484 152.753 153.51 152.663C153.537 152.573 153.597 152.496 153.679 152.45C154.559 151.981 155.39 151.527 156.171 151.101C156.212 151.072 156.258 151.052 156.307 151.042C156.356 151.033 156.407 151.033 156.456 151.044C156.505 151.056 156.55 151.077 156.59 151.107C156.63 151.137 156.663 151.175 156.687 151.219C156.712 151.263 156.726 151.311 156.73 151.361C156.735 151.411 156.728 151.461 156.712 151.508C156.695 151.555 156.669 151.598 156.634 151.635C156.6 151.671 156.558 151.7 156.512 151.719C155.731 152.152 154.9 152.606 154.013 153.082C153.969 153.104 153.92 153.117 153.871 153.117H153.849ZM10.4923 152.074C10.4018 152.074 10.3146 152.039 10.2486 151.977C10.1826 151.915 10.1428 151.83 10.1373 151.74C10.1373 151.186 10.0947 150.618 10.0947 150.057C10.0947 149.66 10.0947 149.262 10.0947 148.871C10.0956 148.824 10.106 148.778 10.1252 148.735C10.1444 148.693 10.1721 148.654 10.2066 148.622C10.2411 148.59 10.2817 148.566 10.3259 148.55C10.3701 148.534 10.4171 148.528 10.464 148.531C10.5106 148.532 10.5564 148.543 10.5988 148.563C10.6411 148.583 10.6793 148.61 10.7109 148.645C10.7426 148.679 10.7672 148.719 10.7833 148.763C10.7994 148.807 10.8067 148.853 10.8048 148.9C10.8048 149.283 10.8048 149.674 10.8048 150.057C10.8048 150.604 10.8048 151.158 10.8474 151.697C10.8502 151.744 10.8439 151.791 10.8287 151.835C10.8134 151.879 10.7896 151.92 10.7586 151.955C10.7276 151.99 10.69 152.018 10.648 152.039C10.606 152.059 10.5603 152.071 10.5137 152.074H10.4923ZM158.82 150.37C158.742 150.369 158.667 150.343 158.606 150.295C158.545 150.248 158.501 150.182 158.48 150.107C158.46 150.032 158.465 149.953 158.494 149.881C158.524 149.809 158.575 149.749 158.642 149.709C159.558 149.184 160.382 148.708 161.092 148.289C161.132 148.265 161.176 148.248 161.223 148.241C161.269 148.234 161.316 148.236 161.362 148.247C161.407 148.259 161.45 148.279 161.488 148.307C161.526 148.334 161.558 148.37 161.582 148.41C161.629 148.491 161.643 148.588 161.621 148.679C161.598 148.771 161.541 148.85 161.461 148.9C160.751 149.326 159.92 149.809 158.997 150.32C158.949 150.348 158.896 150.364 158.841 150.37H158.82ZM10.7409 146.415H10.6912C10.5974 146.401 10.5129 146.35 10.4559 146.275C10.3988 146.199 10.3736 146.104 10.3858 146.01C10.5137 145.08 10.677 144.128 10.89 143.17C10.912 143.078 10.9688 142.999 11.0483 142.949C11.1278 142.898 11.2238 142.881 11.316 142.9C11.3618 142.91 11.4051 142.929 11.4435 142.956C11.4819 142.983 11.5146 143.017 11.5397 143.057C11.5648 143.096 11.5818 143.141 11.5897 143.187C11.5976 143.233 11.5963 143.28 11.5858 143.326C11.3799 144.242 11.2095 145.172 11.0888 146.088C11.0817 146.176 11.0422 146.258 10.9779 146.319C10.9136 146.379 10.8291 146.413 10.7409 146.415ZM11.9763 140.883C11.9412 140.89 11.905 140.89 11.8698 140.883C11.8249 140.87 11.7832 140.847 11.747 140.817C11.7109 140.787 11.6811 140.75 11.6593 140.709C11.6375 140.667 11.6241 140.622 11.6201 140.575C11.616 140.528 11.6212 140.481 11.6355 140.436C11.9124 139.541 12.239 138.633 12.6012 137.738C12.6425 137.66 12.7115 137.6 12.7945 137.57C12.8775 137.54 12.9687 137.543 13.0503 137.576C13.1319 137.61 13.198 137.673 13.2357 137.753C13.2735 137.832 13.2801 137.923 13.2544 138.008C12.9065 138.881 12.587 139.769 12.3101 140.649C12.2871 140.719 12.2422 140.779 12.1821 140.822C12.122 140.864 12.0498 140.886 11.9763 140.883ZM14.1065 135.629C14.0388 135.649 13.9666 135.647 13.9005 135.622C13.8585 135.602 13.821 135.573 13.79 135.538C13.759 135.503 13.7353 135.462 13.7201 135.418C13.7049 135.374 13.6986 135.327 13.7016 135.281C13.7045 135.234 13.7166 135.188 13.7372 135.146C14.1562 134.301 14.6177 133.456 15.1076 132.633C15.1304 132.592 15.1611 132.557 15.1979 132.528C15.2348 132.499 15.2769 132.479 15.322 132.467C15.367 132.455 15.414 132.452 15.4601 132.459C15.5062 132.465 15.5505 132.481 15.5904 132.505C15.6715 132.554 15.7303 132.632 15.7542 132.724C15.7781 132.815 15.7652 132.913 15.7182 132.995C15.2354 133.797 14.7881 134.628 14.3763 135.466C14.3436 135.513 14.3002 135.552 14.2496 135.579C14.1989 135.606 14.1426 135.621 14.0852 135.622L14.1065 135.629ZM16.9963 130.744C16.9025 130.747 16.8111 130.714 16.7407 130.652C16.7025 130.626 16.67 130.592 16.645 130.553C16.62 130.514 16.603 130.47 16.5951 130.425C16.5871 130.379 16.5884 130.332 16.5988 130.287C16.6092 130.242 16.6284 130.199 16.6555 130.162C17.1951 129.381 17.7774 128.607 18.3738 127.868C18.4334 127.796 18.519 127.751 18.6121 127.741C18.7051 127.732 18.7981 127.76 18.8708 127.819C18.944 127.877 18.991 127.962 19.0016 128.056C19.0123 128.149 18.9857 128.242 18.9276 128.316C18.3383 129.026 17.7703 129.8 17.2377 130.567C17.2103 130.614 17.1723 130.655 17.1268 130.686C17.0813 130.716 17.0294 130.736 16.975 130.744H16.9963ZM20.5465 126.342C20.4764 126.344 20.4071 126.326 20.3478 126.288C20.2885 126.25 20.242 126.196 20.2144 126.131C20.1867 126.067 20.1792 125.995 20.1929 125.926C20.2066 125.858 20.2407 125.794 20.2909 125.745C20.9441 125.035 21.6329 124.382 22.3429 123.743C22.3753 123.71 22.414 123.684 22.4566 123.666C22.4993 123.648 22.5451 123.639 22.5914 123.639C22.6377 123.639 22.6835 123.648 22.7262 123.666C22.7689 123.684 22.8075 123.71 22.8399 123.743C22.8732 123.776 22.8996 123.815 22.9177 123.859C22.9357 123.902 22.945 123.948 22.945 123.995C22.945 124.042 22.9357 124.088 22.9177 124.132C22.8996 124.175 22.8732 124.214 22.8399 124.247C22.1299 124.872 21.4696 125.532 20.8305 126.214C20.7957 126.255 20.7521 126.288 20.703 126.31C20.6538 126.332 20.6004 126.343 20.5465 126.342Z" fill="#D1D3D4"/>
<path d="M24.7925 122.515C24.7391 122.516 24.6863 122.504 24.6383 122.48C24.5903 122.457 24.5483 122.423 24.5156 122.381C24.4579 122.305 24.4323 122.21 24.4443 122.115C24.4562 122.021 24.5048 121.935 24.5795 121.876C24.9629 121.592 25.3464 121.308 25.7369 121.031C25.7749 121.002 25.8186 120.98 25.8653 120.968C25.9119 120.956 25.9605 120.954 26.0081 120.961C26.0557 120.968 26.1014 120.985 26.1423 121.011C26.1831 121.036 26.2184 121.07 26.2459 121.109C26.2734 121.149 26.2926 121.194 26.3022 121.241C26.3119 121.288 26.3118 121.337 26.302 121.384C26.2923 121.431 26.273 121.476 26.2454 121.515C26.2179 121.555 26.1825 121.588 26.1416 121.614C25.7582 121.884 25.3819 122.16 25.0126 122.444C24.9492 122.492 24.8718 122.517 24.7925 122.515Z" fill="#D1D3D4"/>
<path d="M184.026 80.0909C183.981 80.0922 183.936 80.0841 183.894 80.067C183.853 80.0498 183.815 80.0241 183.784 79.9915C183.751 79.9591 183.725 79.9204 183.707 79.8777C183.689 79.8351 183.68 79.7892 183.68 79.743C183.68 79.6967 183.689 79.6508 183.707 79.6082C183.725 79.5655 183.751 79.5268 183.784 79.4944C183.784 79.4944 184.132 79.1252 184.736 78.4578C184.764 78.416 184.801 78.3809 184.844 78.3546C184.887 78.3283 184.936 78.3115 184.986 78.3054C185.036 78.2992 185.087 78.3038 185.135 78.3189C185.183 78.334 185.228 78.3592 185.265 78.3928C185.303 78.4264 185.333 78.4677 185.353 78.5139C185.374 78.56 185.384 78.6101 185.384 78.6606C185.384 78.7111 185.372 78.7609 185.351 78.8067C185.33 78.8526 185.299 78.8934 185.261 78.9264C184.65 79.6364 184.295 79.9844 184.295 79.9844C184.261 80.0205 184.219 80.0487 184.172 80.0671C184.126 80.0855 184.076 80.0936 184.026 80.0909Z" fill="#D1D3D4"/>
<path d="M186.866 76.887C186.78 76.8866 186.697 76.8565 186.631 76.8018C186.598 76.7694 186.572 76.7307 186.554 76.6881C186.536 76.6454 186.527 76.5996 186.527 76.5533C186.527 76.507 186.536 76.4612 186.554 76.4185C186.572 76.3758 186.598 76.3372 186.631 76.3048C187.178 75.6515 187.789 74.8847 188.442 74.0965C188.5 74.0234 188.585 73.9764 188.679 73.9657C188.772 73.9551 188.865 73.9817 188.939 74.0397C188.976 74.0682 189.007 74.1037 189.03 74.1444C189.053 74.185 189.067 74.2298 189.073 74.2762C189.078 74.3226 189.074 74.3695 189.061 74.4143C189.047 74.4591 189.025 74.5007 188.996 74.5368C188.342 75.3604 187.725 76.106 187.171 76.7592C187.135 76.8042 187.088 76.8394 187.034 76.8617C186.981 76.884 186.923 76.8927 186.866 76.887ZM190.416 72.4137C190.339 72.4106 190.266 72.386 190.203 72.3427C190.128 72.2839 190.079 72.1981 190.067 72.1038C190.056 72.0094 190.081 71.9142 190.139 71.8386C190.686 71.1286 191.254 70.3475 191.829 69.5452C191.883 69.468 191.966 69.4156 192.06 69.3996C192.153 69.3837 192.248 69.4054 192.326 69.46C192.403 69.5146 192.455 69.5976 192.471 69.6908C192.487 69.7841 192.466 69.8798 192.411 69.957C191.829 70.7665 191.261 71.5404 190.7 72.2717C190.671 72.3152 190.634 72.3517 190.59 72.3788C190.545 72.4058 190.496 72.4226 190.444 72.4279L190.416 72.4137ZM193.753 67.7488C193.688 67.7508 193.623 67.7345 193.567 67.7016C193.51 67.6687 193.464 67.6207 193.434 67.5629C193.404 67.5052 193.39 67.44 193.395 67.375C193.4 67.3099 193.423 67.2475 193.462 67.195C193.98 66.421 194.506 65.6258 195.017 64.8021C195.068 64.7234 195.147 64.6676 195.239 64.6464C195.33 64.6252 195.426 64.6403 195.507 64.6885C195.586 64.7394 195.641 64.8196 195.661 64.9115C195.681 65.0033 195.664 65.0993 195.613 65.1784C195.123 65.9666 194.598 66.776 194.051 67.5926C194.021 67.6374 193.981 67.6748 193.934 67.7019C193.888 67.729 193.835 67.745 193.781 67.7488H193.753ZM196.792 62.8921C196.729 62.8933 196.667 62.8761 196.614 62.8424C196.574 62.8196 196.538 62.7889 196.51 62.7521C196.481 62.7152 196.46 62.6731 196.448 62.628C196.436 62.583 196.434 62.536 196.44 62.4899C196.447 62.4438 196.463 62.3995 196.487 62.3596C196.969 61.5217 197.431 60.6768 197.85 59.8602C197.893 59.7764 197.968 59.7133 198.058 59.6847C198.148 59.656 198.245 59.6643 198.329 59.7076C198.413 59.7509 198.476 59.8257 198.505 59.9156C198.533 60.0055 198.525 60.1031 198.482 60.1869C198.056 61.0176 197.587 61.8626 197.097 62.7146C197.069 62.7643 197.029 62.8065 196.981 62.8374C196.932 62.8683 196.877 62.8871 196.82 62.8921H196.792ZM199.426 57.8011C199.377 57.8113 199.326 57.8113 199.277 57.8011C199.235 57.782 199.196 57.7547 199.165 57.7206C199.133 57.6865 199.109 57.6465 199.093 57.6028C199.077 57.5591 199.07 57.5127 199.072 57.4663C199.075 57.4198 199.086 57.3744 199.107 57.3325C199.511 56.445 199.888 55.5645 200.214 54.7125C200.231 54.6684 200.256 54.6281 200.288 54.5939C200.32 54.5597 200.359 54.5322 200.402 54.513C200.445 54.4939 200.491 54.4834 200.538 54.4823C200.585 54.4812 200.632 54.4894 200.676 54.5065C200.763 54.5415 200.834 54.6092 200.873 54.6954C200.911 54.7817 200.914 54.8795 200.882 54.9681C200.541 55.8343 200.172 56.729 199.753 57.6236C199.721 57.6754 199.678 57.7186 199.626 57.7496C199.574 57.7806 199.515 57.7982 199.454 57.8011H199.426ZM201.492 52.4616H201.386C201.296 52.4323 201.222 52.3691 201.178 52.2856C201.134 52.202 201.125 52.1047 201.151 52.0143C201.436 51.0842 201.677 50.1611 201.862 49.2736C201.882 49.1826 201.937 49.1033 202.016 49.0528C202.094 49.0023 202.189 48.9847 202.28 49.0037C202.372 49.0242 202.452 49.0793 202.503 49.1574C202.555 49.2355 202.574 49.3306 202.557 49.4227C202.359 50.3315 202.117 51.2759 201.847 52.2628C201.817 52.3231 201.77 52.3737 201.712 52.4089C201.655 52.444 201.588 52.4623 201.521 52.4616H201.492ZM202.685 46.8665H202.65C202.557 46.8575 202.471 46.8122 202.411 46.7404C202.351 46.6687 202.322 46.5762 202.33 46.4831C202.33 46.1849 202.387 45.8938 202.401 45.5956C202.401 44.9352 202.465 44.282 202.486 43.65C202.486 43.6031 202.496 43.5567 202.514 43.5135C202.533 43.4704 202.559 43.4314 202.593 43.3989C202.627 43.3664 202.667 43.341 202.711 43.3244C202.755 43.3078 202.802 43.3002 202.848 43.3021C202.942 43.3058 203.031 43.3456 203.095 43.4131C203.16 43.4806 203.196 43.5706 203.196 43.6642C203.196 44.3104 203.147 44.9636 203.111 45.6382C203.111 45.9435 203.069 46.2417 203.04 46.547C203.03 46.6343 202.988 46.7148 202.923 46.7736C202.858 46.8324 202.773 46.8654 202.685 46.8665ZM202.848 41.1436C202.756 41.1436 202.666 41.1072 202.6 41.0421C202.534 40.9771 202.495 40.8886 202.493 40.7957C202.493 39.83 202.422 38.8786 202.351 37.9555C202.348 37.9092 202.353 37.8627 202.367 37.8185C202.382 37.7744 202.405 37.7336 202.435 37.6985C202.466 37.6634 202.503 37.6348 202.545 37.6143C202.586 37.5938 202.632 37.5819 202.678 37.5792C202.725 37.5753 202.772 37.5807 202.816 37.595C202.861 37.6094 202.902 37.6324 202.938 37.6627C202.973 37.6931 203.003 37.7302 203.024 37.7719C203.045 37.8136 203.058 37.8591 203.062 37.9058C203.133 38.836 203.182 39.8016 203.203 40.7815C203.204 40.8751 203.167 40.9651 203.103 41.0326C203.038 41.1002 202.949 41.1399 202.856 41.1436H202.848ZM202.387 35.4633C202.301 35.4627 202.218 35.4316 202.153 35.3757C202.088 35.3198 202.045 35.2427 202.032 35.158C201.897 34.2065 201.72 33.2693 201.514 32.3746C201.493 32.2805 201.51 32.1819 201.562 32.1007C201.614 32.0195 201.696 31.9622 201.791 31.9415C201.885 31.9208 201.983 31.9383 202.064 31.9902C202.146 32.0422 202.203 32.1242 202.224 32.2184C202.43 33.1273 202.607 34.0858 202.749 35.0586C202.761 35.1515 202.737 35.2456 202.682 35.3211C202.626 35.3966 202.543 35.4476 202.451 35.4633H202.387ZM201.102 29.8966C201.027 29.8975 200.953 29.8747 200.892 29.8313C200.831 29.7879 200.785 29.7263 200.761 29.6552C200.471 28.7615 200.132 27.8844 199.746 27.028C199.726 26.9856 199.715 26.9397 199.713 26.893C199.711 26.8463 199.719 26.7997 199.735 26.7559C199.751 26.7121 199.776 26.6718 199.807 26.6375C199.839 26.6032 199.877 26.5754 199.92 26.5558C199.962 26.5363 200.008 26.5252 200.055 26.5234C200.101 26.5215 200.148 26.5289 200.192 26.545C200.236 26.5612 200.276 26.5858 200.31 26.6175C200.344 26.6492 200.372 26.6874 200.392 26.7298C200.79 27.6115 201.138 28.5146 201.436 29.435C201.465 29.5236 201.458 29.6201 201.417 29.7038C201.376 29.7876 201.304 29.8517 201.215 29.8824C201.177 29.8865 201.139 29.8841 201.102 29.8753V29.8966ZM198.73 24.7062C198.67 24.7066 198.61 24.6919 198.557 24.6634C198.503 24.6349 198.458 24.5934 198.425 24.5429C197.935 23.7431 197.39 22.9791 196.792 22.2565C196.733 22.1839 196.705 22.0909 196.715 21.9978C196.724 21.9047 196.769 21.8191 196.842 21.7595C196.877 21.7291 196.918 21.706 196.962 21.6916C197.006 21.6772 197.053 21.6719 197.099 21.6758C197.145 21.6798 197.19 21.693 197.232 21.7147C197.273 21.7364 197.309 21.7661 197.339 21.8021C197.955 22.5434 198.52 23.3263 199.028 24.1453C199.054 24.1846 199.072 24.2287 199.08 24.275C199.088 24.3212 199.087 24.3687 199.076 24.4145C199.066 24.4603 199.046 24.5034 199.018 24.5414C198.99 24.5793 198.955 24.6112 198.915 24.6352C198.859 24.669 198.795 24.6863 198.73 24.6849V24.7062ZM195.081 20.3252C194.995 20.3237 194.913 20.2937 194.846 20.24C194.147 19.6164 193.402 19.0467 192.617 18.5359C192.575 18.5121 192.538 18.4799 192.509 18.4414C192.48 18.4029 192.459 18.359 192.448 18.3121C192.436 18.2653 192.435 18.2167 192.443 18.1691C192.45 18.1216 192.468 18.0761 192.494 18.0356C192.52 17.995 192.554 17.9602 192.594 17.9333C192.634 17.9063 192.679 17.8878 192.727 17.8788C192.774 17.8698 192.823 17.8705 192.87 17.881C192.917 17.8914 192.961 17.9113 193 17.9395C193.817 18.4698 194.594 19.0608 195.322 19.7075C195.388 19.7751 195.424 19.8655 195.424 19.9596C195.424 20.0537 195.388 20.1441 195.322 20.2116C195.256 20.271 195.17 20.3039 195.081 20.3039V20.3252ZM190.302 17.2224C190.253 17.2321 190.202 17.2321 190.153 17.2224C189.298 16.833 188.418 16.5009 187.519 16.2283C187.425 16.201 187.345 16.1374 187.298 16.0515C187.251 15.9656 187.239 15.8645 187.267 15.7703C187.294 15.6762 187.358 15.5967 187.443 15.5495C187.529 15.5022 187.63 15.491 187.725 15.5183C188.656 15.7972 189.566 16.1388 190.451 16.5407C190.494 16.5598 190.532 16.5872 190.563 16.6213C190.595 16.6553 190.619 16.6954 190.635 16.7391C190.651 16.7828 190.658 16.8292 190.656 16.8756C190.653 16.922 190.642 16.9675 190.622 17.0094C190.592 17.0683 190.546 17.1176 190.49 17.1516C190.433 17.1855 190.368 17.2027 190.302 17.2011V17.2224ZM184.835 15.5538H184.771C183.843 15.3924 182.907 15.2857 181.966 15.2343C181.92 15.2315 181.874 15.2196 181.832 15.1992C181.79 15.1788 181.752 15.1503 181.721 15.1154C181.69 15.0804 181.666 15.0397 181.651 14.9955C181.636 14.9513 181.63 14.9046 181.633 14.8579C181.632 14.8103 181.642 14.7631 181.661 14.7196C181.681 14.676 181.709 14.6371 181.745 14.6055C181.78 14.5739 181.822 14.5503 181.868 14.5363C181.914 14.5222 181.962 14.5181 182.009 14.5242C182.975 14.5784 183.938 14.6875 184.892 14.8508C184.984 14.8682 185.066 14.9209 185.121 14.9977C185.175 15.0746 185.197 15.1696 185.183 15.2627C185.165 15.3409 185.12 15.4104 185.057 15.4596C184.993 15.5088 184.915 15.5345 184.835 15.5325V15.5538Z" fill="#D1D3D4"/>
<path d="M177.685 15.3488C177.639 15.3525 177.592 15.347 177.547 15.3326C177.503 15.3182 177.462 15.2952 177.426 15.2649C177.39 15.2346 177.361 15.1975 177.34 15.1559C177.319 15.1142 177.306 15.0688 177.302 15.0222C177.298 14.9755 177.304 14.9286 177.318 14.8841C177.332 14.8396 177.355 14.7984 177.386 14.7628C177.447 14.6909 177.534 14.6463 177.629 14.6387C178.099 14.5652 178.573 14.5178 179.049 14.4967C179.143 14.4911 179.235 14.5231 179.306 14.5857C179.376 14.6482 179.419 14.7363 179.425 14.8305C179.431 14.9246 179.399 15.0172 179.336 15.0877C179.273 15.1583 179.185 15.2011 179.091 15.2068C178.232 15.2565 177.721 15.3346 177.721 15.3346L177.685 15.3488Z" fill="#D1D3D4"/>
<path d="M22.8045 26.4922L1.39642 43.9895C0.625198 44.6199 0.51099 45.7561 1.14133 46.5273L10.1237 57.5172C10.754 58.2884 11.8902 58.4026 12.6614 57.7723L34.0695 40.2749C34.8407 39.6446 34.9549 38.5084 34.3246 37.7372L25.3423 26.7473C24.7119 25.976 23.5757 25.8618 22.8045 26.4922Z" fill="white"/>
<path d="M11.529 58.5341H11.3089C10.7511 58.471 10.2408 58.1904 9.88882 57.7531L0.871315 46.7475C0.689157 46.5297 0.552361 46.2777 0.468971 46.0064C0.38558 45.735 0.357275 45.4497 0.385719 45.1672C0.414164 44.8848 0.498786 44.6109 0.634609 44.3616C0.770431 44.1123 0.954717 43.8926 1.17663 43.7156L22.5843 26.2131C22.8021 26.031 23.054 25.8942 23.3254 25.8108C23.5968 25.7274 23.8821 25.6991 24.1645 25.7275C24.447 25.756 24.7209 25.8406 24.9702 25.9764C25.2195 26.1122 25.4391 26.2965 25.6162 26.5184L34.6053 37.5169C34.7875 37.7347 34.9242 37.9866 35.0076 38.258C35.091 38.5294 35.1193 38.8147 35.0909 39.0971C35.0624 39.3796 34.9778 39.6535 34.842 39.9028C34.7062 40.1521 34.5219 40.3718 34.3 40.5488L12.8923 58.0442C12.5091 58.3617 12.0267 58.5351 11.529 58.5341ZM23.9476 26.4403C23.6151 26.4412 23.2926 26.5537 23.0317 26.7598L1.62396 44.2623C1.47969 44.383 1.36084 44.5311 1.2743 44.6981C1.18776 44.8651 1.13525 45.0476 1.11983 45.2351C1.08427 45.6181 1.19883 45.9999 1.43935 46.3001L10.4284 57.2915C10.5472 57.4397 10.6945 57.5626 10.8616 57.6528C11.0287 57.7431 11.2122 57.7989 11.4012 57.817C11.7821 57.8529 12.1619 57.7382 12.4592 57.4975L33.8527 39.995C34.0022 39.877 34.1264 39.7302 34.2181 39.5633C34.3097 39.3964 34.3668 39.2127 34.386 39.0233C34.4052 38.8338 34.3861 38.6424 34.3299 38.4605C34.2736 38.2786 34.1814 38.1098 34.0586 37.9643L25.0695 26.9871C24.9365 26.8165 24.7662 26.6786 24.5718 26.5838C24.3774 26.4891 24.1639 26.44 23.9476 26.4403Z" fill="#D1D3D4"/>
<path d="M0.764167 45.4462C0.67001 45.4462 0.579709 45.4088 0.51313 45.3422C0.446551 45.2756 0.409148 45.1853 0.409148 45.0911C0.404264 45.0449 0.408714 44.9981 0.422236 44.9535C0.435757 44.909 0.458075 44.8676 0.487867 44.8319C0.51766 44.7961 0.554321 44.7667 0.595683 44.7454C0.637044 44.7241 0.682264 44.7113 0.728666 44.7077L18.572 43.1598L23.6416 25.984C23.6538 25.9387 23.6751 25.8963 23.7041 25.8595C23.733 25.8226 23.7692 25.792 23.8103 25.7694C23.8514 25.7469 23.8967 25.7329 23.9433 25.7283C23.99 25.7236 24.0371 25.7285 24.0819 25.7426C24.1709 25.7704 24.2455 25.8322 24.2893 25.9146C24.3332 25.997 24.3428 26.0933 24.3162 26.1828L19.1897 43.593C19.1711 43.6617 19.1318 43.723 19.0772 43.7688C19.0226 43.8145 18.9553 43.8423 18.8844 43.8486L0.799669 45.4462H0.764167Z" fill="#D1D3D4"/>
<path d="M19.5806 41.3001C19.4864 41.3001 19.3961 41.2627 19.3296 41.1961C19.263 41.1295 19.2256 41.0392 19.2256 40.9451C19.2256 40.8509 19.263 40.7606 19.3296 40.694C19.3961 40.6275 19.4864 40.5901 19.5806 40.5901L34.676 38.8647C34.7688 38.8565 34.8612 38.8844 34.9339 38.9426C35.0066 39.0008 35.0541 39.0848 35.0666 39.1771C35.0725 39.2238 35.0691 39.2712 35.0566 39.3165C35.044 39.3619 35.0226 39.4043 34.9935 39.4413C34.9645 39.4783 34.9283 39.5091 34.8872 39.532C34.8461 39.5549 34.8009 39.5694 34.7542 39.5747L19.6445 41.3001H19.5806Z" fill="#D1D3D4"/>
<path d="M11.5074 58.5333C11.4722 58.54 11.4361 58.54 11.4009 58.5333C11.3561 58.5196 11.3145 58.4971 11.2786 58.4669C11.2427 58.4368 11.2132 58.3998 11.192 58.358C11.1708 58.3162 11.1582 58.2706 11.1551 58.2238C11.1519 58.1771 11.1583 58.1302 11.1737 58.0859L15.867 43.6366C15.8815 43.59 15.905 43.5467 15.9362 43.5091C15.9674 43.4716 16.0057 43.4406 16.0488 43.4178C16.092 43.3951 16.1393 43.3811 16.1879 43.3766C16.2365 43.3721 16.2855 43.3772 16.3321 43.3917C16.3787 43.4061 16.4221 43.4296 16.4596 43.4608C16.4971 43.492 16.5282 43.5303 16.5509 43.5735C16.5737 43.6167 16.5877 43.6639 16.5922 43.7125C16.5967 43.7611 16.5915 43.8101 16.5771 43.8567L11.8837 58.306C11.8546 58.38 11.802 58.4422 11.734 58.4833C11.666 58.5243 11.5864 58.5419 11.5074 58.5333Z" fill="#D1D3D4"/>
<path d="M215.892 103.25L195.495 94.4063C194.761 94.088 193.908 94.4251 193.59 95.159L189.048 105.634C188.73 106.368 189.067 107.221 189.801 107.539L210.198 116.383C210.932 116.701 211.785 116.364 212.103 115.63L216.644 105.155C216.963 104.421 216.626 103.568 215.892 103.25Z" fill="white"/>
<path d="M210.787 116.848C210.543 116.846 210.301 116.796 210.077 116.699L189.685 107.852C189.466 107.76 189.268 107.625 189.102 107.456C188.936 107.286 188.806 107.086 188.719 106.865C188.538 106.421 188.538 105.924 188.719 105.481L193.256 95.0075C193.448 94.5701 193.805 94.2261 194.249 94.0506C194.693 93.875 195.189 93.8821 195.628 94.0702L216.027 102.91C216.244 103.005 216.441 103.141 216.605 103.312C216.77 103.482 216.899 103.684 216.986 103.904C217.077 104.122 217.124 104.357 217.124 104.593C217.124 104.83 217.077 105.064 216.986 105.282L212.441 115.741C212.348 115.958 212.213 116.154 212.044 116.319C211.874 116.483 211.674 116.612 211.454 116.699C211.243 116.791 211.017 116.841 210.787 116.848ZM194.96 94.6312C194.747 94.6317 194.539 94.6945 194.361 94.8118C194.183 94.9292 194.043 95.0959 193.959 95.2915L189.386 105.8C189.275 106.064 189.272 106.361 189.378 106.627C189.484 106.893 189.692 107.106 189.954 107.22L210.354 116.067C210.622 116.177 210.923 116.177 211.192 116.067C211.325 116.015 211.447 115.937 211.549 115.837C211.652 115.737 211.733 115.617 211.788 115.485L216.332 105.005C216.442 104.739 216.442 104.44 216.332 104.174C216.282 104.039 216.204 103.916 216.104 103.812C216.003 103.708 215.883 103.626 215.75 103.571L195.365 94.7235C195.238 94.665 195.1 94.6335 194.96 94.6312Z" fill="#D1D3D4"/>
<path d="M202.295 107.036C202.236 107.037 202.177 107.023 202.124 106.994C202.072 106.965 202.028 106.923 201.997 106.873L194.187 94.5321C194.162 94.4924 194.145 94.4483 194.138 94.4023C194.13 94.3562 194.131 94.3091 194.142 94.2636C194.153 94.2181 194.172 94.1751 194.199 94.1371C194.226 94.0991 194.261 94.0668 194.3 94.0421C194.34 94.0174 194.384 94.0008 194.43 93.9931C194.476 93.9854 194.523 93.9869 194.569 93.9975C194.614 94.008 194.657 94.0274 194.695 94.0546C194.733 94.0817 194.765 94.1161 194.79 94.1557L202.444 106.29L216.539 103.585C216.584 103.575 216.632 103.574 216.678 103.582C216.724 103.591 216.768 103.608 216.807 103.634C216.846 103.66 216.88 103.694 216.906 103.733C216.932 103.772 216.949 103.816 216.958 103.862C216.974 103.955 216.954 104.051 216.901 104.129C216.848 104.208 216.766 104.262 216.674 104.281L202.345 107.036H202.295Z" fill="#D1D3D4"/>
<path d="M211.199 116.784C211.14 116.784 211.082 116.77 211.03 116.743C210.978 116.716 210.934 116.676 210.9 116.628L204.098 106.51C204.047 106.432 204.029 106.336 204.047 106.245C204.066 106.153 204.12 106.072 204.198 106.02C204.236 105.994 204.28 105.975 204.325 105.966C204.371 105.957 204.418 105.957 204.464 105.966C204.509 105.975 204.553 105.994 204.591 106.02C204.63 106.046 204.662 106.08 204.688 106.119L211.49 116.266C211.542 116.345 211.56 116.442 211.542 116.535C211.523 116.628 211.469 116.71 211.39 116.763C211.329 116.787 211.263 116.794 211.199 116.784Z" fill="#D1D3D4"/>
<path d="M189.102 107.22C189.017 107.222 188.935 107.192 188.869 107.137C188.804 107.083 188.761 107.006 188.747 106.922C188.74 106.876 188.742 106.829 188.753 106.784C188.765 106.738 188.785 106.696 188.812 106.658C188.84 106.62 188.875 106.589 188.915 106.565C188.955 106.54 188.999 106.524 189.045 106.517L201.116 104.544C201.163 104.536 201.21 104.538 201.256 104.549C201.302 104.56 201.346 104.58 201.384 104.607C201.422 104.635 201.454 104.67 201.479 104.71C201.504 104.75 201.52 104.795 201.528 104.842C201.535 104.888 201.534 104.936 201.523 104.982C201.512 105.028 201.492 105.071 201.464 105.109C201.436 105.148 201.401 105.18 201.361 105.205C201.321 105.23 201.276 105.246 201.23 105.254L189.159 107.228L189.102 107.22Z" fill="#D1D3D4"/>
<path d="M73.6805 16.4958L58.2532 11.3817C57.6986 11.1979 57.1 11.4984 56.9161 12.053L54.2887 19.979C54.1049 20.5336 54.4055 21.1322 54.9601 21.3161L70.3873 26.4301C70.942 26.614 71.5406 26.3134 71.7244 25.7588L74.3518 17.8329C74.5357 17.2782 74.2351 16.6796 73.6805 16.4958Z" fill="white"/>
<path d="M70.7037 26.8296C70.5541 26.8293 70.4055 26.8053 70.2635 26.7586L54.8343 21.6463C54.4791 21.5267 54.1856 21.2715 54.0177 20.9363C53.8503 20.601 53.8222 20.213 53.9396 19.857L56.5668 11.933C56.6853 11.5783 56.9389 11.2847 57.2726 11.1159C57.6062 10.947 57.993 10.9166 58.349 11.0313L73.7782 16.1435C74.1332 16.2634 74.4264 16.5188 74.594 16.8539C74.7616 17.1891 74.7899 17.5769 74.6728 17.9328L72.0527 25.8569C71.9587 26.1403 71.7777 26.3868 71.5355 26.5614C71.2933 26.7361 71.0023 26.8299 70.7037 26.8296ZM70.4836 26.0841C70.6564 26.1551 70.8503 26.1551 71.0232 26.0841C71.1065 26.0421 71.1808 25.9842 71.2417 25.9135C71.3026 25.8428 71.349 25.7609 71.3782 25.6723L74.0125 17.7553C74.0835 17.5825 74.0835 17.3886 74.0125 17.2157C73.9294 17.0488 73.784 16.9213 73.6077 16.8607L58.1786 11.7484C58.0001 11.6908 57.8061 11.7061 57.639 11.791C57.4748 11.8755 57.35 12.0207 57.291 12.1957L54.6639 20.1198C54.5965 20.2933 54.5965 20.4858 54.6639 20.6594C54.7501 20.825 54.898 20.95 55.0757 21.0073L70.4836 26.0841Z" fill="#D1D3D4"/>
<path d="M63.9934 20.2405C63.9384 20.24 63.8842 20.2269 63.835 20.2023C63.7858 20.1777 63.7428 20.1422 63.7094 20.0985L57.2125 11.6207C57.1618 11.5459 57.1415 11.4546 57.1558 11.3653C57.1701 11.2761 57.2179 11.1957 57.2894 11.1404C57.3609 11.0852 57.4508 11.0593 57.5408 11.0681C57.6307 11.0768 57.7139 11.1196 57.7735 11.1875L64.0999 19.4737L74.1257 16.6335C74.1709 16.6206 74.2183 16.6168 74.265 16.6223C74.3117 16.6279 74.3568 16.6426 74.3978 16.6657C74.4387 16.6889 74.4747 16.7199 74.5036 16.757C74.5324 16.7942 74.5536 16.8367 74.5659 16.8821C74.5899 16.9724 74.5772 17.0686 74.5307 17.1497C74.4841 17.2308 74.4075 17.2903 74.3174 17.3152L64.0644 20.2547L63.9934 20.2405Z" fill="#D1D3D4"/>
<path d="M71.1079 26.7583C71.0543 26.7592 71.0014 26.7474 70.9533 26.7239C70.9052 26.7005 70.8633 26.6661 70.8309 26.6234L65.2216 19.6792C65.1623 19.6058 65.1346 19.5118 65.1446 19.4179C65.1546 19.324 65.2014 19.238 65.2749 19.1787C65.3483 19.1193 65.4423 19.0916 65.5362 19.1016C65.6301 19.1116 65.7161 19.1585 65.7754 19.2319L71.3848 26.1832C71.4428 26.2568 71.4694 26.3503 71.4588 26.4434C71.4481 26.5365 71.4011 26.6216 71.328 26.6802C71.2652 26.7299 71.1878 26.7573 71.1079 26.7583Z" fill="#D1D3D4"/>
<path d="M54.3718 21.22C54.3252 21.2255 54.278 21.2219 54.2327 21.2092C54.1875 21.1966 54.1453 21.1751 54.1083 21.1461C54.0714 21.1171 54.0406 21.0811 54.0176 21.0402C53.9945 20.9992 53.9798 20.9542 53.9742 20.9075C53.9686 20.8609 53.9723 20.8136 53.9849 20.7684C53.9976 20.7232 54.0191 20.6809 54.0481 20.644C54.0771 20.6071 54.1131 20.5763 54.154 20.5532C54.195 20.5302 54.24 20.5155 54.2866 20.5099L62.9349 18.2946C62.9801 18.2829 63.0272 18.2802 63.0735 18.2867C63.1198 18.2932 63.1643 18.3087 63.2046 18.3325C63.2448 18.3562 63.2799 18.3877 63.308 18.425C63.3361 18.4624 63.3565 18.5049 63.368 18.5502C63.3797 18.595 63.3823 18.6416 63.3757 18.6874C63.3692 18.7332 63.3535 18.7772 63.3297 18.8169C63.3059 18.8566 63.2744 18.8911 63.2371 18.9184C63.1998 18.9458 63.1574 18.9654 63.1124 18.9762L54.4642 21.1987L54.3718 21.22Z" fill="#D1D3D4"/>
</svg>
