<svg width="11" height="11" viewBox="0 0 11 11" fill="none" xmlns="http://www.w3.org/2000/svg">
<path d="M9.81173 9.73723C10.1457 9.40323 10.1457 8.8617 9.81173 8.5277L7.22521 5.94118C6.93231 5.64829 6.93231 5.17341 7.22521 4.88052L9.84894 2.25678C10.1932 1.9125 10.1932 1.35432 9.84894 1.01004C9.50467 0.665762 8.94648 0.665762 8.6022 1.01004L5.97847 3.63378C5.68557 3.92667 5.2107 3.92667 4.91781 3.63378L2.31267 1.02865C1.97867 0.694647 1.43715 0.694647 1.10315 1.02865C0.769149 1.36265 0.769149 1.90417 1.10315 2.23817L3.70828 4.8433C4.00117 5.1362 4.00117 5.61107 3.70828 5.90396L1.01011 8.60213C0.665832 8.94641 0.665832 9.5046 1.01011 9.84888C1.35439 10.1932 1.91257 10.1932 2.25685 9.84887L4.95502 7.1507C5.24791 6.85781 5.72279 6.85781 6.01568 7.1507L8.6022 9.73723C8.9362 10.0712 9.47773 10.0712 9.81173 9.73723Z" fill="#062226" stroke="#062226" stroke-width="0.5"/>
</svg>
