<svg width="24" height="18" viewBox="0 0 24 18" fill="none" xmlns="http://www.w3.org/2000/svg">
<path fill-rule="evenodd" clip-rule="evenodd" d="M5.7587 0.5H18.2413C19.0463 0.499988 19.7106 0.499978 20.2518 0.544195C20.8139 0.59012 21.3306 0.688685 21.816 0.935975C22.5686 1.31947 23.1805 1.93139 23.564 2.68404C23.8113 3.16937 23.9099 3.68608 23.9558 4.24818C24 4.78937 24 5.45372 24 6.25868V11.7413C24 12.5463 24 13.2106 23.9558 13.7518C23.9099 14.3139 23.8113 14.8306 23.564 15.316C23.1805 16.0686 22.5686 16.6805 21.816 17.064C21.3306 17.3113 20.8139 17.4099 20.2518 17.4558C19.7106 17.5 19.0463 17.5 18.2413 17.5H5.75868C4.95372 17.5 4.28937 17.5 3.74818 17.4558C3.18608 17.4099 2.66938 17.3113 2.18404 17.064C1.43139 16.6805 0.819469 16.0686 0.435976 15.316C0.188685 14.8306 0.0901205 14.3139 0.0441953 13.7518C-2.13683e-05 13.2106 -1.15315e-05 12.5463 3.89773e-07 11.7413V6.2587C-1.15315e-05 5.45375 -2.13683e-05 4.78936 0.0441953 4.24818C0.0901205 3.68608 0.188685 3.16937 0.435976 2.68404C0.819469 1.93139 1.43139 1.31947 2.18404 0.935975C2.66938 0.688685 3.18608 0.59012 3.74818 0.544195C4.28937 0.499978 4.95374 0.499988 5.7587 0.5ZM3.91104 2.53755C3.47262 2.57337 3.24842 2.6383 3.09202 2.71799C2.7157 2.90974 2.40974 3.2157 2.21799 3.59202C2.1383 3.74842 2.07337 3.97262 2.03755 4.41104C2.00078 4.86113 2 5.44342 2 6.3V11.7C2 12.5566 2.00078 13.1389 2.03755 13.589C2.07337 14.0274 2.1383 14.2516 2.21799 14.408C2.40974 14.7843 2.7157 15.0903 3.09202 15.282C3.24842 15.3617 3.47262 15.4266 3.91104 15.4624C4.36113 15.4992 4.94342 15.5 5.8 15.5H7L7 12C5.34315 12 4 10.6569 4 9C4 7.34315 5.34315 6 7 6L7 2.5H5.8C4.94342 2.5 4.36113 2.50078 3.91104 2.53755ZM15 15.5H9V2.5H15V15.5ZM17 15.5H18.2C19.0566 15.5 19.6389 15.4992 20.089 15.4624C20.5274 15.4266 20.7516 15.3617 20.908 15.282C21.2843 15.0903 21.5903 14.7843 21.782 14.408C21.8617 14.2516 21.9266 14.0274 21.9625 13.589C21.9992 13.1389 22 12.5566 22 11.7V6.3C22 5.44342 21.9992 4.86113 21.9625 4.41104C21.9266 3.97262 21.8617 3.74842 21.782 3.59202C21.5903 3.2157 21.2843 2.90974 20.908 2.71799C20.7516 2.6383 20.5274 2.57337 20.089 2.53755C19.6389 2.50078 19.0566 2.5 18.2 2.5H17V6C18.6569 6 20 7.34315 20 9C20 10.6569 18.6569 12 17 12V15.5Z" fill="black" fill-opacity="0.48"/>
</svg>
