<svg width="15" height="17" viewBox="0 0 15 17" fill="none" xmlns="http://www.w3.org/2000/svg">
<path fill-rule="evenodd" clip-rule="evenodd" d="M11.1841 0.219896C10.5051 -0.185371 9.64277 -0.0128515 9.13406 0.592592L8.11681 1.80328C8.19886 1.83944 8.27388 1.89491 8.33463 1.96898L8.33467 1.96902L8.33468 1.96904L8.33514 1.9696L8.33755 1.97252L8.34808 1.98524C8.35759 1.9967 8.37201 2.01399 8.39093 2.03649C8.42879 2.08149 8.48461 2.14724 8.55525 2.22867C8.69672 2.39175 8.89662 2.61665 9.12978 2.8633C9.60553 3.36659 10.1853 3.9233 10.6781 4.24777C11.2242 4.60733 11.8369 4.99028 12.3149 5.28442C12.5535 5.43124 12.7576 5.55541 12.9021 5.64282C12.9743 5.68652 13.0315 5.72101 13.0706 5.74452L13.1153 5.77133L13.1266 5.77814L13.1295 5.77982L13.1301 5.78022L13.1303 5.78031L13.1303 5.78033C13.1701 5.80414 13.2061 5.8319 13.2381 5.86282L14.1427 4.78617C14.6481 4.1847 14.6731 3.31229 14.1621 2.71559C13.7584 2.24416 13.2675 1.71052 12.8238 1.33778C12.373 0.958958 11.7376 0.550205 11.1841 0.219896ZM12.6932 6.51139L12.8258 6.2895L12.6931 6.51147L12.6932 6.51139ZM12.4791 6.76619L12.4624 6.75616C12.4224 6.73212 12.3642 6.69705 12.2909 6.65273C12.1445 6.5641 11.9377 6.43837 11.6962 6.28974C11.214 5.99299 10.5897 5.60287 10.029 5.2337C9.415 4.82946 8.75712 4.18744 8.27195 3.67419C8.02465 3.41258 7.81327 3.17475 7.66357 3.00217C7.58862 2.91577 7.5289 2.84546 7.4876 2.79636C7.46694 2.7718 7.45087 2.75253 7.4398 2.73918L7.42697 2.72369L7.42345 2.71942L7.42243 2.71818L7.42211 2.71779L7.422 2.71765C7.42196 2.7176 7.42192 2.71755 7.8783 2.3433L7.42192 2.71755C7.40959 2.70252 7.39813 2.68706 7.38753 2.67123L0.579144 10.7743C0.205533 11.2189 -0.00500192 11.7773 9.0279e-05 12.3581C0.0109931 13.6015 0.0816055 15.731 0.432648 16.026C0.78369 16.3209 2.89346 16.0235 4.12018 15.8199C4.69313 15.7248 5.2069 15.4212 5.58051 14.9765L12.4791 6.76619Z" fill="#062226"/>
</svg>
