<svg width="163" height="180" viewBox="0 0 163 180" fill="none" xmlns="http://www.w3.org/2000/svg">
<path d="M81.3176 171.247C126.013 171.247 162.247 135.013 162.247 90.3176C162.247 45.6218 126.013 9.38867 81.3176 9.38867C36.6218 9.38867 0.388672 45.6218 0.388672 90.3176C0.388672 135.013 36.6218 171.247 81.3176 171.247Z" fill="white"/>
<path d="M81.3171 171.634C65.2341 171.634 49.5123 166.865 36.1398 157.93C22.7673 148.995 12.3446 136.295 6.18993 121.436C0.0352333 106.577 -1.57512 90.2269 1.56252 74.453C4.70016 58.679 12.4449 44.1897 23.8173 32.8173C35.1897 21.4449 49.679 13.7002 65.453 10.5625C81.2269 7.42488 97.5771 9.03523 112.436 15.1899C127.295 21.3446 139.995 31.7673 148.93 45.1398C157.865 58.5123 162.634 74.2341 162.634 90.3171C162.61 111.876 154.034 132.545 138.79 147.79C123.545 163.034 102.876 171.61 81.3171 171.634ZM81.3171 9.77633C65.3877 9.77633 49.8159 14.5 36.5711 23.3499C23.3262 32.1998 13.0031 44.7786 6.90714 59.4955C0.811195 74.2124 -0.783779 90.4065 2.32391 106.03C5.43159 121.653 13.1024 136.004 24.3662 147.268C35.63 158.532 49.981 166.203 65.6044 169.31C81.2278 172.418 97.4219 170.823 112.139 164.727C126.856 158.631 139.434 148.308 148.284 135.063C157.134 121.818 161.858 106.247 161.858 90.3171C161.835 68.9633 153.343 48.4906 138.243 33.3912C123.144 18.2917 102.671 9.79894 81.3171 9.77633Z" fill="#D1D3D4"/>
<path d="M121.414 174.473L131.957 122.32L135.437 90.3108C135.437 90.3108 100.424 55.9096 90.42 44.6413C80.4162 33.3729 69.1478 17.2074 63.9929 18.4155C58.8379 19.6237 57.8472 25.5036 61.2221 32.7446C62.6075 35.7168 64.7097 39.0192 65.6602 42.096C66.4656 44.601 66.1998 51.6568 63.7754 53.4288C60.8677 55.5552 58.0889 45.2776 54.3999 47.106C52.4587 48.0645 50.5337 53.0503 52.1929 58.3824C53.1903 60.9445 54.4423 63.4001 55.9302 65.7121C58.9668 70.6012 58.991 73.6539 60.9321 79.0102C62.9297 84.5195 62.4222 77.0771 60.5616 82.1273C58.2983 88.2568 55.1167 95.4254 54.9798 102.07C54.7704 112.694 67.5611 129.891 72.8207 138.276C78.0803 146.661 67.9316 166.572 67.9316 166.572L121.414 174.473Z" fill="white"/>
<path d="M121.414 174.883H121.366L67.8754 166.998C67.8128 166.989 67.7532 166.965 67.7014 166.928C67.6496 166.892 67.6071 166.844 67.5774 166.788C67.5496 166.73 67.5351 166.667 67.5351 166.603C67.5351 166.539 67.5496 166.475 67.5774 166.418C67.6821 166.216 77.5731 146.619 72.4907 138.525C71.6288 137.147 70.5334 135.496 69.3816 133.748C63.4212 124.727 54.4081 111.099 54.5853 102.094C54.6981 96.4072 57.0017 90.3099 59.0879 84.9294C59.4664 83.9387 59.8369 82.9641 60.1913 82.0217C60.3732 81.4256 60.6448 80.8607 60.9968 80.3463C60.8518 80.0403 60.6988 79.6536 60.5296 79.1784C59.8692 77.3661 59.4342 75.8358 59.0234 74.3457C58.3144 71.3818 57.1458 68.5471 55.56 65.9447C54.0512 63.6015 52.7855 61.1105 51.7824 58.5104C50.0506 52.9205 52.0562 47.8058 54.1987 46.7426C56.3412 45.6794 58.226 48.1361 59.8369 50.3269C60.4442 51.2315 61.1433 52.0709 61.9231 52.8319C62.7285 53.5165 63.1957 53.3554 63.534 53.1057C65.7409 51.4948 66.0631 44.729 65.2818 42.2159C64.5299 40.1019 63.5919 38.0588 62.4788 36.1106C61.8909 34.999 61.3351 33.9519 60.8679 32.8887C58.7093 28.2412 58.2743 24.1334 59.6436 21.3062C60.0555 20.4654 60.6544 19.7299 61.3943 19.1561C62.1342 18.5823 62.9956 18.1854 63.9125 17.9958C68.0204 17.0534 75.0037 25.5027 83.0905 35.297C85.6196 38.3578 88.2374 41.5232 90.7424 44.3504C100.609 55.4738 135.381 89.6172 135.735 89.9635C135.778 90.0062 135.811 90.0582 135.83 90.1155C135.85 90.1727 135.856 90.2337 135.848 90.2937L132.377 122.343L121.825 174.529C121.815 174.629 121.767 174.722 121.69 174.788C121.614 174.853 121.515 174.888 121.414 174.883ZM68.5359 166.265L121.1 174.013L131.571 122.246L135.018 90.4226C132.602 88.0062 99.6991 55.6993 90.1302 44.9062C87.6172 42.0709 84.9914 38.8974 82.4623 35.8286C75.2131 27.0492 67.7063 17.9555 64.0898 18.8093C63.2872 18.9653 62.5322 19.3064 61.8847 19.8056C61.2373 20.3048 60.7154 20.9483 60.3605 21.6848C59.112 24.2462 59.555 28.2171 61.5928 32.5746C62.068 33.5895 62.6158 34.6285 63.2037 35.732C64.3337 37.7277 65.2851 39.8193 66.047 41.9824C66.8525 44.4873 66.6914 51.8009 64.0092 53.7662C63.2037 54.3461 62.3419 54.2414 61.4076 53.4521C60.5727 52.6571 59.8297 51.7709 59.1926 50.8102C57.7105 48.7804 56.1721 46.6782 54.5773 47.4756C52.9825 48.273 50.9366 53.001 52.5798 58.2848C53.5681 60.8166 54.8038 63.2447 56.2687 65.534C57.8995 68.1988 59.0983 71.1048 59.8208 74.1443C60.2316 75.6022 60.6263 77.1164 61.3109 78.9046C61.4559 79.3153 61.5928 79.6456 61.7056 79.8953C61.7752 79.8874 61.8454 79.8874 61.915 79.8953C62.1327 79.9653 62.3204 80.1069 62.4476 80.2969C62.5747 80.487 62.634 80.7144 62.6158 80.9424C62.6353 81.0847 62.6006 81.2292 62.5186 81.3471C62.4365 81.465 62.313 81.5477 62.1728 81.5787C61.9472 81.5787 61.7217 81.5304 61.4559 81.1437C61.2567 81.4986 61.0896 81.8706 60.9565 82.2553C60.6021 83.2057 60.2316 84.1884 59.845 85.1791C57.8152 90.4951 55.5116 96.5199 55.3989 102.094C55.2297 110.841 64.1542 124.349 70.0582 133.289C71.2181 135.045 72.3135 136.696 73.1834 138.082C78.0806 145.886 70.1146 163.043 68.5359 166.265Z" fill="#062226"/>
<path d="M40.6888 124.219L94.5337 140.969C96.7043 141.644 99.0112 140.432 99.6865 138.261L135.503 23.1265C136.178 20.9559 134.966 18.649 132.795 17.9738L78.9504 1.22355C76.7799 0.548331 74.4729 1.76053 73.7977 3.93108L37.9813 119.066C37.3061 121.236 38.5183 123.543 40.6888 124.219Z" fill="white"/>
<path d="M95.76 141.545C95.3067 141.546 94.856 141.478 94.4229 141.344L40.578 124.59C39.4406 124.231 38.4907 123.437 37.9344 122.382C37.378 121.326 37.26 120.094 37.6059 118.952L73.4327 3.79583C73.7907 2.6571 74.5841 1.7059 75.64 1.14926C76.696 0.592623 77.9291 0.475608 79.0709 0.823686L132.908 17.5772C134.046 17.9353 134.998 18.7286 135.554 19.7846C136.111 20.8405 136.228 22.0736 135.88 23.2154L100.085 138.364C99.796 139.285 99.2208 140.09 98.443 140.662C97.6653 141.234 96.7255 141.543 95.76 141.545ZM40.8197 123.817L94.6565 140.571C95.5943 140.862 96.6093 140.772 97.4809 140.319C98.3525 139.867 99.0105 139.089 99.3121 138.154L135.131 22.998C135.424 22.0601 135.335 21.0443 134.882 20.1721C134.43 19.2998 133.65 18.6421 132.714 18.3424L78.8776 1.58887C77.9398 1.29531 76.9239 1.38463 76.0517 1.83734C75.1795 2.29004 74.5217 3.06937 74.222 4.00524L38.4033 119.17C38.11 120.106 38.1995 121.121 38.6523 121.992C39.1052 122.863 39.8844 123.519 40.8197 123.817Z" fill="#062226"/>
<path d="M45.2256 106.749L100.447 123.928L129.895 29.2665L74.6731 12.088L45.2256 106.749Z" fill="#062226"/>
<path d="M74.1583 130.776C73.8608 130.777 73.5649 130.734 73.2803 130.647L62.8094 127.377C62.4418 127.262 62.1004 127.076 61.8047 126.83C61.509 126.583 61.2648 126.281 61.086 125.94C60.9073 125.598 60.7975 125.225 60.7628 124.842C60.7282 124.458 60.7695 124.072 60.8843 123.704L62.1328 119.677C62.3647 118.934 62.8814 118.314 63.5699 117.952C64.2583 117.589 65.0623 117.515 65.8057 117.744L76.2766 121.014C77.0193 121.246 77.6397 121.763 78.002 122.451C78.3644 123.14 78.439 123.944 78.2097 124.687L76.9613 128.714C76.7733 129.311 76.4004 129.832 75.8965 130.203C75.3926 130.574 74.7838 130.774 74.1583 130.776ZM64.8955 118.429C64.4416 118.429 63.9997 118.575 63.6345 118.844C63.2692 119.114 62.9999 119.493 62.8658 119.927L61.6173 123.954C61.5327 124.221 61.5019 124.502 61.5267 124.781C61.5514 125.06 61.6313 125.332 61.7617 125.58C61.892 125.827 62.0702 126.047 62.286 126.226C62.5018 126.404 62.7509 126.538 63.0188 126.62L73.4897 129.89C73.7568 129.975 74.038 130.006 74.317 129.981C74.596 129.956 74.8673 129.876 75.1153 129.746C75.3632 129.616 75.5828 129.437 75.7615 129.222C75.9401 129.006 76.0741 128.757 76.1558 128.489L77.4043 124.461C77.5709 123.921 77.5171 123.337 77.2546 122.836C76.992 122.335 76.542 121.958 76.0028 121.787L65.5318 118.525C65.3258 118.461 65.1113 118.429 64.8955 118.429Z" fill="#D1D3D4"/>
<path d="M115.293 18.9623H115.181L99.45 14.0732C99.3432 14.0411 99.2535 13.968 99.2006 13.8698C99.1478 13.7716 99.1361 13.6565 99.1681 13.5496C99.2002 13.4428 99.2733 13.3531 99.3715 13.3003C99.4697 13.2474 99.5849 13.2357 99.6917 13.2677L115.414 18.1569C115.516 18.1902 115.601 18.2618 115.65 18.3566C115.7 18.4514 115.711 18.5618 115.68 18.6643C115.657 18.7495 115.607 18.8247 115.537 18.8786C115.467 18.9324 115.382 18.9618 115.293 18.9623Z" fill="#D1D3D4"/>
<path d="M97.4272 13.1946H97.3064L95.1961 12.5341C95.0893 12.5021 94.9996 12.4289 94.9467 12.3307C94.8939 12.2326 94.8822 12.1174 94.9142 12.0106C94.9463 11.9038 95.0194 11.8141 95.1176 11.7612C95.2158 11.7083 95.331 11.6966 95.4378 11.7287L97.5481 12.3891C97.6497 12.4225 97.7344 12.4941 97.784 12.5889C97.8336 12.6837 97.8444 12.794 97.8139 12.8966C97.7898 12.9811 97.7392 13.0556 97.6696 13.1093C97.6 13.1629 97.5151 13.1928 97.4272 13.1946Z" fill="#D1D3D4"/>
<path d="M69.4135 57.7541C69.1185 58.8505 68.4994 59.8324 67.6371 60.5711C66.7748 61.3098 65.7095 61.7709 64.5808 61.8941C61.7745 62.2294 58.9444 61.5025 56.647 59.8563C55.3264 58.9316 54.1991 57.7578 53.3285 56.4009C51.8304 54.057 51.3552 51.391 52.2814 49.3451C53.7957 46.0024 59.0151 45.2292 63.5095 47.2026C67.714 49.0471 70.1062 54.6289 69.4135 57.7541Z" fill="white"/>
<path d="M63.2032 62.4013C60.7691 62.3596 58.4036 61.588 56.4132 60.1863C55.0488 59.2333 53.8856 58.0208 52.99 56.6181C51.3791 54.0728 50.9602 51.286 51.9107 49.1757C53.4813 45.7283 58.749 44.6812 63.6703 46.8398C67.9957 48.7327 70.5651 54.4111 69.7999 57.8424C69.4942 59.0195 68.8371 60.0755 67.9162 60.8698C66.9952 61.6641 65.8542 62.159 64.645 62.2885C64.1684 62.367 63.6861 62.4047 63.2032 62.4013ZM58.5396 46.5418C55.8171 46.5418 53.5055 47.5889 52.6356 49.514C51.7657 51.439 52.1684 53.8634 53.6504 56.1831C54.4939 57.4985 55.5888 58.6345 56.8723 59.5258C59.0784 61.1147 61.8001 61.8188 64.5 61.4992C65.5516 61.3921 66.5459 60.9681 67.3514 60.2835C68.1568 59.5989 68.7354 58.6858 69.0105 57.6652C69.6307 54.8783 67.5204 49.4092 63.3723 47.5728C61.8496 46.8999 60.2043 46.5489 58.5396 46.5418Z" fill="#062226"/>
<path d="M63.7832 73.0419C64.0282 73.8054 64.0968 74.6145 63.9838 75.4084C63.8708 76.2022 63.5791 76.9601 63.1307 77.6249C62.51 78.3775 61.7208 78.9735 60.8271 79.3647C58.4108 80.5407 55.5192 80.9756 53.1189 79.8319C51.6785 79.0453 50.4341 77.9441 49.4782 76.61C47.7304 74.387 46.2 71.7773 46.2564 68.9501C46.353 64.8584 50.7911 60.2109 55.0278 62.136C58.5396 63.6824 62.7763 69.4576 63.7832 73.0419Z" fill="white"/>
<path d="M56.2358 80.9103C55.0975 80.9254 53.9707 80.6802 52.9415 80.1935C51.4435 79.3719 50.1518 78.2206 49.1639 76.8266C46.8523 73.8867 45.8052 71.3737 45.8615 68.909C45.9518 67.565 46.3559 66.2609 47.0413 65.1013C47.7267 63.9417 48.6744 62.9589 49.8083 62.2317C50.5908 61.6954 51.4977 61.3686 52.4425 61.2826C53.3873 61.1966 54.3383 61.3542 55.2049 61.7404C58.8053 63.3513 63.1467 69.2634 64.1696 72.9363C64.4321 73.7598 64.504 74.6322 64.3798 75.4876C64.2556 76.3429 63.9386 77.1589 63.4528 77.8737C62.8019 78.6704 61.9747 79.3046 61.0364 79.7263C59.5484 80.4844 57.9057 80.8895 56.2358 80.9103ZM53.014 62.0626C52.0356 62.0651 51.0778 62.3444 50.2513 62.8681C49.2299 63.5247 48.3756 64.4104 47.7562 65.4548C47.1368 66.4992 46.7694 67.6736 46.6831 68.8848C46.6267 71.1562 47.6255 73.5082 49.8083 76.287C50.7271 77.5825 51.9243 78.6558 53.312 79.4283C55.3579 80.419 58.0401 80.2337 60.6659 78.9611C61.505 78.6064 62.2457 78.0537 62.8245 77.3502C63.237 76.7362 63.5043 76.0363 63.6062 75.3037C63.7081 74.571 63.6418 73.8248 63.4125 73.1215C62.454 69.6822 58.2414 63.9635 54.8827 62.4412C54.2895 62.179 53.6462 62.0498 52.9979 62.0626H53.014Z" fill="#062226"/>
<path d="M57.847 84.4393C58.5172 85.2958 58.9927 86.2881 59.2404 87.3471C59.4325 88.5518 59.2786 89.7863 58.7966 90.907C58.3147 92.0278 57.5245 92.9886 56.518 93.6779C55.4994 94.3457 54.3576 94.803 53.1597 95.0229C51.9618 95.2428 50.732 95.221 49.5427 94.9586C48.126 94.6986 46.7799 94.1432 45.592 93.3286C44.4041 92.514 43.401 91.4584 42.648 90.2306C41.9169 88.987 41.5234 87.574 41.5064 86.1316C41.4895 84.6891 41.8497 83.2673 42.5513 82.0069C46.4578 75.4665 54.4399 79.8402 57.847 84.4393Z" fill="white"/>
<path d="M51.5564 95.5611C50.8532 95.5585 50.1519 95.4883 49.4622 95.3517C47.9902 95.0794 46.592 94.5005 45.3584 93.6527C44.1248 92.8048 43.0833 91.7069 42.3016 90.4303C41.5314 89.1254 41.1171 87.6412 41.1002 86.126C41.0832 84.6108 41.4642 83.1176 42.205 81.7958C42.7344 80.7967 43.5118 79.9505 44.4625 79.3384C45.4131 78.7262 46.5052 78.3687 47.6338 78.3001C51.5 78.0826 55.8736 81.1112 58.1692 84.1961C58.8775 85.0988 59.378 86.1466 59.6351 87.2649C59.8392 88.5462 59.6768 89.859 59.1665 91.052C58.6563 92.2449 57.8191 93.2692 56.7516 94.0065C55.2205 95.0458 53.4066 95.5885 51.5564 95.5611ZM48.0123 79.0975H47.674C46.6772 79.1553 45.7126 79.4716 44.8751 80.0153C44.0376 80.5591 43.3561 81.3115 42.8977 82.1985C42.2297 83.3957 41.8872 84.7471 41.9041 86.1179C41.9211 87.4887 42.297 88.8312 42.9943 90.0115C43.7179 91.1921 44.6823 92.2068 45.8245 92.9896C46.9667 93.7723 48.2611 94.3055 49.6233 94.5543C50.7583 94.8094 51.9332 94.8333 53.0776 94.6243C54.2221 94.4153 55.3127 93.9778 56.2844 93.338C57.2257 92.6927 57.9655 91.7947 58.4187 90.7473C58.8719 89.6999 59.0199 88.5458 58.8458 87.4179C58.6115 86.4168 58.1606 85.4792 57.5248 84.6713C55.4226 81.8522 51.5322 79.0975 48.0123 79.0975Z" fill="#062226"/>
<path d="M128.172 179.603L129.888 146.789L67.2874 147.57L54.8672 179.603H128.172Z" fill="#062226"/>
<path d="M128.171 179.998H54.8747C54.8104 179.997 54.7471 179.982 54.6899 179.952C54.6326 179.923 54.5828 179.881 54.5445 179.829C54.5084 179.775 54.4859 179.713 54.4789 179.649C54.4719 179.584 54.4806 179.519 54.5042 179.459L66.9244 147.426C66.9524 147.35 67.0029 147.285 67.0692 147.238C67.1354 147.192 67.2142 147.168 67.2949 147.168L129.895 146.362C129.95 146.358 130.004 146.367 130.055 146.388C130.105 146.409 130.15 146.442 130.185 146.483C130.223 146.523 130.253 146.569 130.272 146.621C130.292 146.672 130.3 146.726 130.298 146.781L128.614 179.62C128.611 179.674 128.597 179.727 128.573 179.776C128.549 179.825 128.515 179.868 128.474 179.904C128.433 179.939 128.384 179.966 128.332 179.982C128.28 179.998 128.226 180.004 128.171 179.998ZM55.4547 179.193H127.809L129.484 147.184L67.5849 147.989L55.4547 179.193Z" fill="#062226"/>
<path d="M131.386 124.138C131.386 124.138 141.269 91.0342 139.441 83.3018C137.612 75.5694 134.044 44.2854 130.83 43.0772C127.616 41.869 121.165 50.7693 121.334 60.5073C121.379 66.2534 122.308 71.9583 124.089 77.4219C124.089 77.4219 113.408 82.1258 112.208 108.352" fill="white"/>
<path d="M131.385 124.557H131.273C131.171 124.524 131.086 124.453 131.035 124.358C130.984 124.264 130.971 124.154 130.999 124.05C131.104 123.72 140.825 90.9699 139.053 83.4227C138.498 81.0063 137.773 76.4474 136.935 71.1475C135.324 61.0793 132.706 44.2372 130.701 43.4881C130.311 43.4097 129.908 43.4227 129.523 43.5261C129.139 43.6295 128.784 43.8205 128.486 44.0841C125.167 46.4119 121.647 53.363 121.744 60.5396C121.804 66.2299 122.724 71.8785 124.475 77.2932C124.51 77.3886 124.509 77.4939 124.47 77.5881C124.431 77.6823 124.358 77.7582 124.265 77.8006C124.265 77.8006 121.623 79.0169 118.901 83.3502C116.372 87.3775 113.263 94.981 112.618 108.376C112.617 108.43 112.605 108.483 112.583 108.532C112.561 108.581 112.529 108.625 112.489 108.662C112.449 108.698 112.402 108.725 112.35 108.743C112.299 108.76 112.245 108.767 112.191 108.762C112.086 108.756 111.987 108.709 111.916 108.63C111.846 108.552 111.808 108.449 111.813 108.344C112.908 84.4456 121.736 78.2758 123.605 77.2287C121.906 71.815 121.01 66.1812 120.947 60.5074C120.842 53.073 124.547 45.832 128.035 43.3834C128.433 43.0339 128.91 42.7878 129.426 42.667C129.942 42.5462 130.479 42.5543 130.991 42.6907C133.262 43.5445 135.219 54.9578 137.741 70.9784C138.546 76.2702 139.295 80.8372 139.843 83.1972C141.663 90.9537 132.175 122.89 131.788 124.276C131.763 124.361 131.709 124.436 131.636 124.487C131.563 124.538 131.475 124.563 131.385 124.557Z" fill="#062226"/>
<path d="M89.5337 16.7227H13.5951C11.6875 16.7227 9.85796 17.4805 8.50906 18.8294C7.16016 20.1783 6.40235 22.0078 6.40235 23.9154V74.0552C6.40129 75.0004 6.58656 75.9366 6.94755 76.8102C7.30855 77.6838 7.83819 78.4777 8.50621 79.1464C9.17422 79.8152 9.9675 80.3457 10.8407 80.7077C11.7139 81.0697 12.6498 81.256 13.5951 81.256H77.9834L88.5833 94.7393V81.256H89.5337C90.479 81.256 91.4149 81.0697 92.2881 80.7077C93.1613 80.3457 93.9546 79.8152 94.6226 79.1464C95.2906 78.4777 95.8203 77.6838 96.1813 76.8102C96.5423 75.9366 96.7275 75.0004 96.7265 74.0552V23.9154C96.7265 22.9708 96.5404 22.0355 96.1789 21.1629C95.8175 20.2902 95.2877 19.4973 94.6198 18.8294C93.9518 18.1615 93.1589 17.6316 92.2863 17.2702C91.4136 16.9087 90.4783 16.7227 89.5337 16.7227Z" fill="white"/>
<path d="M88.5836 95.1425C88.5212 95.1419 88.4598 95.127 88.4039 95.0991C88.3481 95.0712 88.2994 95.0309 88.2615 94.9814L77.7905 81.6591H13.5955C11.5809 81.6548 9.65026 80.8521 8.22653 79.4269C6.80279 78.0016 6.00213 76.0701 6 74.0556V23.9158C6.00213 21.902 6.80305 19.9713 8.22702 18.5473C9.65098 17.1234 11.5817 16.3224 13.5955 16.3203H89.5341C91.5479 16.3224 93.4786 17.1234 94.9025 18.5473C96.3265 19.9713 97.1274 21.902 97.1296 23.9158V74.0556C97.1274 76.0701 96.3268 78.0016 94.903 79.4269C93.4793 80.8521 91.5486 81.6548 89.5341 81.6591H88.9864V94.7397C88.9846 94.8232 88.9574 94.9041 88.9085 94.9717C88.8596 95.0394 88.7912 95.0905 88.7125 95.1183C88.6714 95.1341 88.6277 95.1423 88.5836 95.1425ZM13.5955 17.1258C11.7953 17.1279 10.0695 17.844 8.79656 19.1169C7.52365 20.3898 6.80759 22.1156 6.80546 23.9158V74.0556C6.80758 75.8565 7.52339 77.5831 8.79607 78.8573C10.0688 80.1315 11.7946 80.8494 13.5955 80.8536H77.9838C78.0454 80.8544 78.106 80.8685 78.1616 80.8949C78.2173 80.9213 78.2665 80.9594 78.306 81.0067L88.1809 93.5718V81.2564C88.1809 81.1495 88.2233 81.0471 88.2989 80.9716C88.3744 80.8961 88.4768 80.8536 88.5836 80.8536H89.5341C91.335 80.8494 93.0608 80.1315 94.3335 78.8573C95.6062 77.5831 96.322 75.8565 96.3241 74.0556V23.9158C96.322 22.1156 95.6059 20.3898 94.333 19.1169C93.0601 17.844 91.3342 17.1279 89.5341 17.1258H13.5955Z" fill="#062226"/>
<path d="M76.3006 42.0557L52.9987 24.529C52.5826 24.2209 52.0786 24.0547 51.561 24.0547C51.0433 24.0547 50.5393 24.2209 50.1232 24.529L26.8213 42.0557V71.5436H76.3006V42.0557Z" fill="#062226"/>
<path d="M76.3008 71.9466H26.8214C26.7696 71.9466 26.7183 71.9364 26.6704 71.9165C26.6225 71.8967 26.579 71.8676 26.5424 71.831C26.5057 71.7943 26.4767 71.7508 26.4568 71.7029C26.437 71.655 26.4268 71.6037 26.4268 71.5519V42.056C26.4261 41.9934 26.4404 41.9315 26.4684 41.8755C26.4964 41.8194 26.5374 41.7709 26.5879 41.7338L49.8817 24.2151C50.3659 23.8511 50.9553 23.6543 51.5611 23.6543C52.1669 23.6543 52.7563 23.8511 53.2405 24.2151L76.5424 41.7338C76.5915 41.7722 76.6315 41.821 76.6593 41.8767C76.6872 41.9324 76.7023 41.9937 76.7035 42.056V71.5519C76.7032 71.6046 76.6923 71.6566 76.6716 71.7051C76.6508 71.7535 76.6206 71.7972 76.5827 71.8338C76.507 71.9067 76.4058 71.9472 76.3008 71.9466ZM27.2242 71.1411H75.898V42.2574L52.7653 24.8514C52.4172 24.5888 51.9931 24.4467 51.5571 24.4467C51.1211 24.4467 50.6969 24.5888 50.3489 24.8514L27.2242 42.2574V71.1411Z" fill="#062226"/>
<path d="M70.4527 32.4062H31.4443V69.3526H70.4527V32.4062Z" fill="white"/>
<path d="M70.4531 69.7226H31.4447C31.3961 69.7226 31.3479 69.713 31.3029 69.6943C31.258 69.6757 31.2171 69.6484 31.1827 69.614C31.1483 69.5796 31.121 69.5388 31.1024 69.4938C31.0838 69.4489 31.0742 69.4007 31.0742 69.352V32.4057C31.0742 32.357 31.0838 32.3088 31.1024 32.2639C31.121 32.2189 31.1483 32.1781 31.1827 32.1437C31.2171 32.1093 31.258 32.082 31.3029 32.0634C31.3479 32.0447 31.3961 32.0352 31.4447 32.0352H70.4531C70.5507 32.0372 70.6438 32.0769 70.7128 32.1459C70.7818 32.215 70.8215 32.308 70.8236 32.4057V69.3681C70.8176 69.4629 70.7761 69.552 70.7075 69.6176C70.6388 69.6833 70.548 69.7207 70.4531 69.7226ZM31.7911 68.9896H70.0665V32.744H31.8072L31.7911 68.9896Z" fill="#062226"/>
<path d="M64.726 52.0984H37.1713C37.0645 52.0984 36.962 52.056 36.8865 51.9805C36.811 51.9049 36.7686 51.8025 36.7686 51.6957C36.7686 51.5889 36.811 51.4865 36.8865 51.4109C36.962 51.3354 37.0645 51.293 37.1713 51.293H64.726C64.8328 51.293 64.9353 51.3354 65.0108 51.4109C65.0863 51.4865 65.1287 51.5889 65.1287 51.6957C65.1267 51.8019 65.0836 51.9031 65.0085 51.9782C64.9334 52.0533 64.8322 52.0964 64.726 52.0984Z" fill="#D1D3D4"/>
<path d="M52.2092 56.0379H37.1713C37.0645 56.0379 36.962 55.9955 36.8865 55.9199C36.811 55.8444 36.7686 55.742 36.7686 55.6352C36.7686 55.5283 36.811 55.4259 36.8865 55.3504C36.962 55.2749 37.0645 55.2324 37.1713 55.2324H52.2092C52.316 55.2324 52.4184 55.2749 52.494 55.3504C52.5695 55.4259 52.6119 55.5283 52.6119 55.6352C52.6119 55.742 52.5695 55.8444 52.494 55.9199C52.4184 55.9955 52.316 56.0379 52.2092 56.0379Z" fill="#D1D3D4"/>
<path d="M64.726 40.2742H37.1713C37.0645 40.2742 36.962 40.2318 36.8865 40.1563C36.811 40.0807 36.7686 39.9783 36.7686 39.8715C36.7686 39.7647 36.811 39.6622 36.8865 39.5867C36.962 39.5112 37.0645 39.4688 37.1713 39.4688H64.726C64.8328 39.4688 64.9353 39.5112 65.0108 39.5867C65.0863 39.6622 65.1287 39.7647 65.1287 39.8715C65.1287 39.9783 65.0863 40.0807 65.0108 40.1563C64.9353 40.2318 64.8328 40.2742 64.726 40.2742Z" fill="#D1D3D4"/>
<path d="M64.726 44.2137H37.1713C37.0645 44.2137 36.962 44.1712 36.8865 44.0957C36.811 44.0202 36.7686 43.9177 36.7686 43.8109C36.7686 43.7041 36.811 43.6017 36.8865 43.5262C36.962 43.4506 37.0645 43.4082 37.1713 43.4082H64.726C64.8322 43.4103 64.9334 43.4534 65.0085 43.5284C65.0836 43.6035 65.1267 43.7048 65.1287 43.8109C65.1287 43.9177 65.0863 44.0202 65.0108 44.0957C64.9353 44.1712 64.8328 44.2137 64.726 44.2137Z" fill="#D1D3D4"/>
<path d="M64.726 48.1609H37.1713C37.0645 48.1609 36.962 48.1185 36.8865 48.043C36.811 47.9674 36.7686 47.865 36.7686 47.7582C36.7686 47.6514 36.811 47.549 36.8865 47.4734C36.962 47.3979 37.0645 47.3555 37.1713 47.3555H64.726C64.8328 47.3555 64.9353 47.3979 65.0108 47.4734C65.0863 47.549 65.1287 47.6514 65.1287 47.7582C65.1267 47.8644 65.0836 47.9656 65.0085 48.0407C64.9334 48.1158 64.8322 48.1589 64.726 48.1609Z" fill="#D1D3D4"/>
<path d="M76.3004 42.0547V73.7495H26.8291V42.0547L51.5647 60.6608L76.3004 42.0547Z" fill="white"/>
<path d="M76.3008 74.1199H26.8215C26.7732 74.1199 26.7254 74.1103 26.6809 74.0915C26.6364 74.0728 26.5961 74.0454 26.5623 74.0109C26.5286 73.9764 26.5021 73.9355 26.4843 73.8906C26.4666 73.8456 26.458 73.7976 26.4591 73.7494V42.0546C26.4598 41.9865 26.479 41.9199 26.5144 41.8618C26.5498 41.8037 26.6003 41.7562 26.6604 41.7243C26.7186 41.6888 26.7855 41.6699 26.8538 41.6699C26.922 41.6699 26.9889 41.6888 27.0471 41.7243L51.5652 60.1693L76.0834 41.7243C76.1416 41.6888 76.2085 41.6699 76.2767 41.6699C76.3449 41.6699 76.4118 41.6888 76.47 41.7243C76.5301 41.7562 76.5806 41.8037 76.616 41.8618C76.6515 41.9199 76.6706 41.9865 76.6713 42.0546V73.7494C76.6713 73.8476 76.6323 73.9419 76.5628 74.0114C76.4933 74.0808 76.3991 74.1199 76.3008 74.1199ZM27.1679 73.3869H75.9062V42.7876L51.7424 60.9506C51.6779 60.9972 51.6004 61.0222 51.5209 61.0222C51.4414 61.0222 51.3639 60.9972 51.2994 60.9506L27.192 42.7876L27.1679 73.3869Z" fill="#062226"/>
<path d="M26.8212 74.1211C26.7649 74.1211 26.7094 74.108 26.6591 74.0829C26.6087 74.0577 26.565 74.0212 26.5312 73.9762C26.4722 73.899 26.4459 73.8017 26.4579 73.7052C26.47 73.6088 26.5194 73.521 26.5956 73.4607L47.2637 57.2871C47.3409 57.2281 47.4382 57.2017 47.5346 57.2138C47.6311 57.2259 47.7189 57.2753 47.7792 57.3515C47.8094 57.3893 47.8318 57.4328 47.845 57.4794C47.8581 57.526 47.8618 57.5748 47.8558 57.6228C47.8498 57.6709 47.8342 57.7173 47.81 57.7592C47.7858 57.8011 47.7534 57.8378 47.7148 57.867L27.0548 74.0406C26.9884 74.0934 26.906 74.1218 26.8212 74.1211Z" fill="#062226"/>
<path d="M76.3003 74.1216C76.2219 74.121 76.1458 74.0956 76.0828 74.0491L55.004 58.1977C54.938 58.135 54.8974 58.0503 54.8899 57.9597C54.8824 57.869 54.9085 57.7788 54.9633 57.7062C55.018 57.6335 55.0975 57.5835 55.1867 57.5657C55.2759 57.548 55.3685 57.5636 55.447 57.6097L76.5258 73.4611C76.5856 73.5087 76.6293 73.5736 76.6508 73.647C76.6723 73.7203 76.6705 73.7985 76.6458 73.8708C76.6211 73.9432 76.5747 74.0061 76.5128 74.051C76.4509 74.0959 76.3767 74.1205 76.3003 74.1216Z" fill="#062226"/>
<path d="M76.3003 68.2569C82.0166 68.2569 86.6505 63.623 86.6505 57.9068C86.6505 52.1906 82.0166 47.5566 76.3003 47.5566C70.5841 47.5566 65.9502 52.1906 65.9502 57.9068C65.9502 63.623 70.5841 68.2569 76.3003 68.2569Z" fill="#062226"/>
<path d="M76.3 54.4102L73.0781 56.0211V53.5242L76.453 51.8086H78.7727V61.5708H76.2597L76.3 54.4102Z" fill="white"/>
<path d="M21.223 39.6477H21.1264L11.8636 37.4488C11.7568 37.4242 11.6641 37.3582 11.6059 37.2653C11.5478 37.1724 11.5289 37.0602 11.5535 36.9534C11.5781 36.8466 11.644 36.7539 11.7369 36.6958C11.8298 36.6376 11.942 36.6188 12.0488 36.6433L21.3116 38.8422C21.3634 38.8536 21.4123 38.8752 21.4555 38.9058C21.4988 38.9365 21.5354 38.9755 21.5632 39.0206C21.591 39.0657 21.6094 39.116 21.6174 39.1683C21.6254 39.2207 21.6227 39.2742 21.6096 39.3255C21.5943 39.4165 21.5468 39.499 21.4759 39.5581C21.405 39.6172 21.3153 39.649 21.223 39.6477Z" fill="#D1D3D4"/>
<path d="M23.72 34.3314C23.6327 34.3319 23.5477 34.3036 23.4783 34.2508L14.4572 27.2675C14.4146 27.2358 14.3788 27.1959 14.352 27.1501C14.3252 27.1043 14.3078 27.0536 14.3011 27.001C14.2943 26.9483 14.2982 26.8949 14.3126 26.8438C14.327 26.7927 14.3515 26.7451 14.3847 26.7037C14.4512 26.6212 14.547 26.5676 14.652 26.5541C14.7571 26.5406 14.8633 26.5682 14.9485 26.6312L23.9696 33.6145C24.0345 33.6666 24.0817 33.7375 24.1047 33.8174C24.1277 33.8974 24.1253 33.9825 24.098 34.0611C24.0706 34.1397 24.0195 34.2078 23.9519 34.2562C23.8842 34.3046 23.8032 34.3309 23.72 34.3314Z" fill="#D1D3D4"/>
<path d="M29.1887 28.6278C29.1071 28.6273 29.0276 28.6025 28.9602 28.5566C28.8927 28.5107 28.8405 28.4458 28.8101 28.3701L26.4421 21.9264C26.4076 21.8248 26.4135 21.7139 26.4585 21.6164C26.5034 21.519 26.5841 21.4426 26.6837 21.4029C26.7841 21.3666 26.8948 21.3717 26.9915 21.417C27.0882 21.4623 27.1629 21.5441 27.1992 21.6445L29.5673 28.0882C29.5864 28.1378 29.5952 28.1908 29.5933 28.2439C29.5915 28.297 29.5789 28.3493 29.5563 28.3974C29.5337 28.4455 29.5017 28.4886 29.462 28.5241C29.4224 28.5595 29.376 28.5866 29.3256 28.6037C29.2819 28.6201 29.2354 28.6283 29.1887 28.6278Z" fill="#D1D3D4"/>
</svg>
