<svg width="40" height="38" viewBox="0 0 40 38" fill="none" xmlns="http://www.w3.org/2000/svg">
<rect x="1.55234" y="0.9" width="36.8628" height="36.2" rx="7.9" stroke="#B1DBE6" stroke-width="1.8"/>
<path d="M12.1317 18.8879L12.1314 18.887C10.9791 15.4931 13.0427 12.7617 15.2753 12.0784C17.5615 11.3788 19.0988 12.1148 19.8119 12.9694L20.4261 13.7055L21.0403 12.9694C21.7535 12.1149 23.2907 11.3818 25.567 12.0784C27.9576 12.81 29.8772 15.4807 28.7198 18.8868L28.7198 18.8868L28.7178 18.8928C27.9597 21.1828 26.0685 23.2787 24.1768 24.8294C23.2409 25.5965 22.3302 26.2094 21.6058 26.6264C21.2428 26.8354 20.9362 26.9896 20.7036 27.0888C20.587 27.1386 20.4987 27.1703 20.4376 27.1884C20.4332 27.1897 20.4291 27.1909 20.4253 27.192C20.4215 27.1909 20.4174 27.1897 20.413 27.1884C20.3522 27.1707 20.2645 27.1394 20.1487 27.0904C19.9177 26.9926 19.6132 26.8404 19.2525 26.6338C18.5328 26.2215 17.6276 25.6143 16.6953 24.851C14.8126 23.3094 12.9177 21.2118 12.1317 18.8879Z" stroke="#A8D6E2" stroke-width="1.6"/>
</svg>
