<svg width="163" height="180" viewBox="0 0 163 180" fill="none" xmlns="http://www.w3.org/2000/svg">
<path d="M81.3176 166.913C126.013 166.913 162.247 130.679 162.247 85.9837C162.247 41.2878 126.013 5.05469 81.3176 5.05469C36.6218 5.05469 0.388672 41.2878 0.388672 85.9837C0.388672 130.679 36.6218 166.913 81.3176 166.913Z" fill="white"/>
<path d="M81.3171 167.3C65.2341 167.3 49.5123 162.531 36.1398 153.596C22.7673 144.661 12.3446 131.961 6.18993 117.102C0.0352333 102.243 -1.57512 85.893 1.56252 70.119C4.70016 54.345 12.4449 39.8557 23.8173 28.4833C35.1897 17.1109 49.679 9.36618 65.453 6.22854C81.2269 3.0909 97.5771 4.70125 112.436 10.8559C127.295 17.0106 139.995 27.4333 148.93 40.8058C157.865 54.1783 162.634 69.9002 162.634 85.9832C162.61 107.542 154.034 128.211 138.79 143.456C123.545 158.7 102.876 167.276 81.3171 167.3ZM81.3171 5.44235C65.3877 5.44235 49.8159 10.166 36.5711 19.0159C23.3262 27.8659 13.0031 40.4446 6.90714 55.1615C0.811195 69.8784 -0.783779 86.0725 2.32391 101.696C5.43159 117.319 13.1024 131.67 24.3662 142.934C35.63 154.198 49.981 161.869 65.6044 164.976C81.2278 168.084 97.4219 166.489 112.139 160.393C126.856 154.297 139.434 143.974 148.284 130.729C157.134 117.484 161.858 101.913 161.858 85.9832C161.835 64.6293 153.343 44.1566 138.243 29.0572C123.144 13.9577 102.671 5.46495 81.3171 5.44235Z" fill="#D1D3D4"/>
<path d="M147.838 148.816C147.838 148.816 139.423 128.951 137.21 121.188C135.855 115.889 135.295 110.419 135.549 104.956L129.572 74.4705C129.572 74.4705 87.5274 52.8661 75.1067 45.3593C62.6859 37.8525 47.6646 26.2081 43.2785 28.7931C38.8924 31.3782 39.6532 37.0762 44.8311 42.7665C46.9582 45.0954 49.8382 47.5407 51.6004 50.1025C53.0366 52.183 54.8376 58.7427 53.1064 61.0716C51.0415 63.8585 45.5375 55.195 42.6652 57.9664C41.1515 59.4103 40.8176 64.5416 43.8685 68.9898C45.5228 71.0634 47.3795 72.9669 49.4113 74.6723C53.6033 78.2976 54.496 81.1 57.8185 85.4706C61.2343 89.9653 58.6414 83.2659 58.3697 88.4438C58.0437 94.7318 57.1665 102.239 58.9442 108.395C61.7932 118.23 78.4913 130.395 85.7342 136.605C92.977 142.816 89.3285 164.047 89.3285 164.047L147.838 148.816Z" fill="white"/>
<path d="M89.3128 164.389C89.2564 164.387 89.2011 164.374 89.1504 164.349C89.0997 164.324 89.0548 164.289 89.0188 164.246C88.9828 164.202 88.9564 164.152 88.9415 164.097C88.9266 164.043 88.9235 163.986 88.9324 163.931C88.9712 163.721 92.4645 142.854 85.4701 136.853C84.2824 135.836 82.8074 134.633 81.2393 133.36C73.1735 126.761 60.9702 116.794 58.5559 108.456C57.0033 103.193 57.438 96.9128 57.7796 91.3778C57.8494 90.3531 57.9116 89.3517 57.9581 88.3813C57.9695 87.7775 58.0689 87.1787 58.2531 86.6036C58.0358 86.3552 57.7796 86.0447 57.4768 85.6643C56.3512 84.1738 55.5206 82.9006 54.7132 81.6586C53.2163 79.1323 51.33 76.8583 49.1239 74.9203C48.7124 74.5555 45.025 71.3416 43.519 69.1602C40.3207 64.5024 40.701 59.2314 42.3701 57.64C44.0391 56.0485 46.4689 57.7719 48.5805 59.3245C49.395 59.9889 50.2801 60.5616 51.2199 61.0324C52.1592 61.4283 52.5396 61.1488 52.7725 60.8228C54.3251 58.7112 52.6948 52.3922 51.2199 50.3039C49.9231 48.573 48.4762 46.9598 46.8959 45.4831C46.0342 44.6292 45.2269 43.8219 44.4816 43.0068C41.1591 39.3582 39.5832 35.694 40.0334 32.7053C40.1725 31.8126 40.5142 30.9637 41.0322 30.2236C41.5503 29.4835 42.231 28.8719 43.0222 28.4357C46.5233 26.3785 55.3731 32.1619 65.6202 38.8613C68.8263 40.9573 72.1333 43.1232 75.254 45.0018C87.5195 52.4155 129.3 73.8878 129.719 74.0975C129.771 74.1241 129.817 74.1625 129.852 74.2096C129.887 74.2568 129.91 74.3114 129.921 74.3691L135.898 104.854C135.902 104.888 135.902 104.922 135.898 104.955C135.652 110.374 136.206 115.799 137.544 121.056C139.71 128.71 148.055 148.443 148.141 148.637C148.164 148.689 148.176 148.744 148.176 148.8C148.176 148.857 148.164 148.912 148.141 148.964C148.113 149.013 148.077 149.056 148.033 149.09C147.989 149.125 147.938 149.151 147.884 149.165L89.4137 164.389H89.3128ZM58.8897 87.2169C58.8064 87.613 58.757 88.0156 58.7422 88.4201C58.6956 89.3983 58.6257 90.3997 58.5636 91.4244C58.2143 96.8973 57.7873 103.108 59.3011 108.239C61.63 116.344 73.7325 126.218 81.7361 132.754C83.2887 134.035 84.7792 135.246 85.9747 136.263C92.7052 142.039 90.3375 159.917 89.7941 163.434L147.302 148.552C146.083 145.657 138.856 128.368 136.853 121.289C134.749 113.867 135.138 105.708 135.176 104.986L129.245 74.7107C126.327 73.2125 86.7976 52.8657 74.9047 45.6772C71.7995 43.7908 68.4614 41.6172 65.2476 39.5212C56.0562 33.5126 46.5543 27.3023 43.5112 29.111C42.815 29.4834 42.2157 30.0137 41.7614 30.6595C41.3071 31.3052 41.0104 32.0484 40.8951 32.8295C40.4837 35.5465 42.0363 39.0399 45.1492 42.4944C45.879 43.2707 46.7018 44.0936 47.5325 44.9397C49.1493 46.4475 50.6276 48.0973 51.9496 49.8692C53.3857 51.9497 55.3575 58.719 53.4478 61.2963C52.8812 62.0726 52.0505 62.2123 50.9637 61.7543C49.9692 61.2609 49.032 60.6595 48.169 59.9611C46.2205 58.5172 44.2099 57.0267 42.9678 58.2067C41.7258 59.3866 41.2056 64.3394 44.2254 68.7255C45.8485 70.7699 47.6686 72.6498 49.6595 74.3381C51.9246 76.3237 53.8609 78.6556 55.3963 81.2471C56.1726 82.4737 57.0188 83.7391 58.1289 85.1985C58.3851 85.5323 58.5947 85.7962 58.7732 85.9748C58.8381 85.9486 58.9058 85.9303 58.9751 85.9204C59.1968 85.9231 59.4109 86.0015 59.5818 86.1428C59.7527 86.284 59.8701 86.4795 59.9144 86.6967C59.9719 86.8225 59.9807 86.9652 59.9391 87.0971C59.8975 87.229 59.8085 87.3408 59.6893 87.4109C59.4797 87.5351 59.2468 87.5351 58.8897 87.2401V87.2169Z" fill="#062226"/>
<path d="M52.2451 124.541L106.594 124.541C108.785 124.541 110.561 122.765 110.561 120.574L110.561 4.36248C110.561 2.17164 108.785 0.395607 106.594 0.395607L52.2451 0.395607C50.0543 0.395607 48.2782 2.17164 48.2782 4.36248L48.2782 120.574C48.2782 122.765 50.0543 124.541 52.2451 124.541Z" fill="white"/>
<path d="M106.593 124.929H52.2525C51.0967 124.927 49.9891 124.467 49.1726 123.649C48.3561 122.831 47.8975 121.722 47.8975 120.567V4.36279C47.8975 3.20705 48.3561 2.09853 49.1726 1.28057C49.9891 0.462613 51.0967 0.00205648 52.2525 0H106.593C107.75 0 108.86 0.459648 109.678 1.27783C110.496 2.09601 110.956 3.2057 110.956 4.36279V120.567C110.956 121.724 110.496 122.833 109.678 123.652C108.86 124.47 107.75 124.929 106.593 124.929ZM52.2525 0.776297C51.3094 0.788546 50.4091 1.17181 49.7465 1.84308C49.084 2.51436 48.7125 3.41961 48.7126 4.36279V120.567C48.7126 121.517 49.0894 122.428 49.7603 123.1C50.4312 123.772 51.3415 124.151 52.2913 124.153H106.632C107.583 124.153 108.496 123.775 109.168 123.103C109.841 122.43 110.219 121.518 110.219 120.567V4.36279C110.219 3.41159 109.841 2.49935 109.168 1.82675C108.496 1.15416 107.583 0.776297 106.632 0.776297H52.2525Z" fill="#062226"/>
<path d="M51.4299 107.168H107.168L107.168 11.6213H51.4299L51.4299 107.168Z" fill="#062226"/>
<path d="M84.0803 121.141H73.4761C72.726 121.139 72.0073 120.84 71.4776 120.308C70.9478 119.777 70.6504 119.058 70.6504 118.308V114.255C70.6504 113.505 70.9478 112.786 71.4776 112.255C72.0073 111.723 72.726 111.424 73.4761 111.422H84.0803C84.8305 111.424 85.5492 111.723 86.0789 112.255C86.6086 112.786 86.9061 113.505 86.9061 114.255V118.308C86.9061 119.058 86.6086 119.777 86.0789 120.308C85.5492 120.84 84.8305 121.139 84.0803 121.141ZM73.4761 112.198C72.9319 112.2 72.4106 112.418 72.0265 112.803C71.6424 113.189 71.4267 113.711 71.4267 114.255V118.308C71.4267 118.852 71.6424 119.374 72.0265 119.76C72.4106 120.145 72.9319 120.363 73.4761 120.365H84.0803C84.6246 120.363 85.1458 120.145 85.53 119.76C85.9141 119.374 86.1298 118.852 86.1298 118.308V114.255C86.1298 113.711 85.9141 113.189 85.53 112.803C85.1458 112.418 84.6246 112.2 84.0803 112.198H73.4761Z" fill="#D1D3D4"/>
<path d="M90.6327 6.35052H74.7807C74.6778 6.35052 74.579 6.30962 74.5063 6.23683C74.4335 6.16404 74.3926 6.06531 74.3926 5.96237C74.3926 5.85942 74.4335 5.7607 74.5063 5.68791C74.579 5.61512 74.6778 5.57422 74.7807 5.57422H90.6327C90.7357 5.57422 90.8344 5.61512 90.9072 5.68791C90.98 5.7607 91.0209 5.85942 91.0209 5.96237C91.0209 6.06531 90.98 6.16404 90.9072 6.23683C90.8344 6.30962 90.7357 6.35052 90.6327 6.35052Z" fill="#D1D3D4"/>
<path d="M72.5525 6.1552H70.4487C70.3458 6.1552 70.247 6.11431 70.1742 6.04152C70.1014 5.96873 70.0605 5.87 70.0605 5.76705C70.0605 5.66411 70.1014 5.56539 70.1742 5.49259C70.247 5.4198 70.3458 5.37891 70.4487 5.37891H72.5758C72.6787 5.37891 72.7774 5.4198 72.8502 5.49259C72.923 5.56539 72.9639 5.66411 72.9639 5.76705C72.964 5.82005 72.9532 5.8725 72.9323 5.92118C72.9113 5.96986 72.8807 6.01373 72.8421 6.05009C72.8036 6.08646 72.758 6.11454 72.7082 6.13262C72.6583 6.1507 72.6054 6.15838 72.5525 6.1552Z" fill="#D1D3D4"/>
<path d="M59.5189 63.4701C59.5608 64.5643 59.2712 65.6456 58.688 66.5723C58.1048 67.499 57.2553 68.2279 56.2507 68.6636C53.7644 69.7689 50.9559 69.91 48.3713 69.0595C46.8927 68.5831 45.5196 67.8267 44.3268 66.8315C42.2774 65.1003 41.0819 62.7792 41.3458 60.6211C41.7806 57.1045 46.3607 54.9076 51.0651 55.4355C55.4589 55.9245 59.2628 60.3649 59.5189 63.4701Z" fill="white"/>
<path d="M51.9107 69.9679C50.6707 69.967 49.438 69.7785 48.2544 69.4089C46.7255 68.9081 45.3075 68.1174 44.0779 67.08C41.8499 65.2014 40.6855 62.7561 40.9727 60.5359C41.4307 56.9183 45.9798 54.4419 51.1267 55.0164C55.6525 55.5287 59.6659 60.0157 59.9221 63.3926C59.9747 64.5635 59.6703 65.7228 59.0492 66.7168C58.4281 67.7108 57.5197 68.4926 56.4443 68.9587C55.0307 69.639 53.4794 69.9843 51.9107 69.9679ZM49.6672 55.7073C45.5761 55.7073 42.0828 57.7878 41.7335 60.629C41.485 62.5775 42.5563 64.7667 44.5825 66.4745C45.7224 67.4413 47.0412 68.1746 48.464 68.6326C50.9521 69.4629 53.6612 69.33 56.0562 68.26C56.9917 67.8604 57.7841 67.1864 58.3288 66.3272C58.8735 65.4679 59.1448 64.4636 59.107 63.447C58.8741 60.6989 55.373 56.274 50.9947 55.7849C50.5541 55.7331 50.1108 55.7072 49.6672 55.7073Z" fill="#062226"/>
<path d="M58.7119 79.1286C59.1575 79.7598 59.4534 80.4842 59.5772 81.2469C59.701 82.0096 59.6493 82.7905 59.4261 83.5302C59.073 84.4039 58.5168 85.181 57.8036 85.797C55.9405 87.5592 53.3865 88.809 50.8169 88.4286C49.2583 88.1112 47.7926 87.4421 46.5318 86.4724C44.2883 84.9198 42.1302 82.9635 41.3849 80.3474C40.3059 76.559 43.0539 71.0318 47.5021 71.5674C51.1818 72.0099 56.7634 76.1088 58.7119 79.1286Z" fill="white"/>
<path d="M51.7712 88.8863C51.441 88.8878 51.1112 88.8618 50.7853 88.8087C49.1808 88.4706 47.6751 87.7696 46.3837 86.7593C43.4182 84.7254 41.7259 82.707 41.0816 80.4247C40.7787 79.1613 40.7762 77.8446 41.0741 76.58C41.3721 75.3155 41.9622 74.1383 42.7972 73.143C43.3636 72.4266 44.104 71.8671 44.9478 71.5178C45.7917 71.1686 46.711 71.0413 47.618 71.148C51.4063 71.6215 57.0811 75.8057 59.0761 78.9109C59.5606 79.5891 59.8826 80.3695 60.0172 81.192C60.1518 82.0145 60.0954 82.8569 59.8524 83.6541C59.4789 84.5828 58.891 85.4101 58.1368 86.0684C56.4537 87.7877 54.1755 88.7962 51.7712 88.8863ZM46.9271 71.9165C46.2373 71.9269 45.5584 72.0903 44.9395 72.3951C44.3206 72.6998 43.7771 73.1383 43.3484 73.6787C42.595 74.5747 42.0622 75.6349 41.7926 76.774C41.5229 77.9132 41.524 79.0997 41.7958 80.2384C42.3935 82.3422 43.9849 84.2208 46.7951 86.1538C48.0067 87.0864 49.4131 87.7339 50.9095 88.0479C53.0831 88.3662 55.5052 87.4424 57.5468 85.5094C58.2259 84.94 58.7584 84.2159 59.0994 83.3979C59.3054 82.7147 59.3516 81.9932 59.2345 81.2893C59.1174 80.5853 58.8401 79.9177 58.424 79.3379C56.5609 76.4501 51.0492 72.39 47.5559 71.9475C47.3473 71.9225 47.1372 71.9121 46.9271 71.9165Z" fill="#062226"/>
<path d="M56.5142 91.3076C57.3776 91.9059 58.1007 92.6847 58.6335 93.59C59.1555 94.6436 59.3678 95.8238 59.2455 96.9932C59.1231 98.1627 58.6713 99.2734 57.9426 100.196C57.1949 101.101 56.2743 101.848 55.2346 102.393C54.195 102.938 53.0571 103.271 51.8875 103.371C50.5084 103.539 49.1096 103.413 47.7825 103.002C46.4555 102.591 45.2301 101.905 44.1866 100.988C43.1591 100.052 42.3932 98.8652 41.9644 97.5434C41.5356 96.2216 41.4587 94.8108 41.7413 93.4502C43.4414 86.3238 52.0738 88.0783 56.5142 91.3076Z" fill="white"/>
<path d="M50.7545 103.838C48.2407 103.864 45.8065 102.957 43.9231 101.291C42.8425 100.311 42.0374 99.0654 41.588 97.6776C41.1385 96.2897 41.0604 94.8084 41.3613 93.381C41.5616 92.3088 42.0347 91.3064 42.7349 90.4702C43.4351 89.6339 44.3389 88.9922 45.3592 88.6067C48.8759 87.3103 53.7432 88.8319 56.7398 91.0133C57.653 91.6411 58.4164 92.4628 58.9755 93.4198C59.5275 94.5408 59.7518 95.7948 59.6228 97.0376C59.4937 98.2805 59.0164 99.4617 58.2458 100.445C57.4698 101.396 56.5105 102.181 55.4248 102.753C54.3392 103.325 53.1496 103.673 51.9267 103.776C51.5386 103.838 51.1427 103.838 50.7545 103.838ZM48.2781 88.894C47.3772 88.8842 46.4814 89.0313 45.6309 89.3287C44.7276 89.6675 43.9282 90.2358 43.3116 90.9777C42.6949 91.7197 42.2823 92.6095 42.1143 93.5595C41.8437 94.852 41.9163 96.1929 42.3249 97.4486C42.7335 98.7044 43.4638 99.8312 44.4432 100.717C45.4438 101.592 46.6179 102.247 47.8887 102.637C49.1595 103.028 50.4985 103.146 51.818 102.984C52.9367 102.892 54.0257 102.577 55.0204 102.057C56.0152 101.537 56.8955 100.822 57.6092 99.9562C58.2977 99.0906 58.7254 98.0468 58.8423 96.947C58.9591 95.8471 58.7603 94.7368 58.2691 93.7458C57.7684 92.89 57.0844 92.1556 56.2662 91.5955C53.9306 89.9201 51.1508 88.9746 48.2781 88.8784V88.894Z" fill="#062226"/>
<path d="M143.708 131.948L137.979 119.814L83.0947 138.826L86.6579 152.062L143.708 131.948Z" fill="#062226"/>
<path d="M82.6133 146.921L143.164 127.25L160.429 159.164L93.07 179.619L82.6133 146.921Z" fill="#062226"/>
<path d="M93.0699 180C92.9878 180.001 92.9076 179.976 92.8406 179.929C92.7737 179.881 92.7235 179.814 92.6973 179.736L82.2483 147.038C82.2326 146.99 82.2267 146.94 82.2307 146.89C82.2348 146.839 82.2487 146.791 82.2719 146.746C82.295 146.701 82.3268 146.661 82.3654 146.629C82.404 146.596 82.4486 146.572 82.4967 146.557L143.048 126.886C143.133 126.855 143.226 126.856 143.311 126.889C143.395 126.922 143.464 126.984 143.506 127.064L160.771 158.955C160.799 159.005 160.815 159.061 160.818 159.119C160.821 159.176 160.811 159.234 160.788 159.287C160.766 159.34 160.732 159.387 160.688 159.425C160.645 159.463 160.593 159.491 160.538 159.506L93.1786 179.961C93.1459 179.982 93.1087 179.996 93.0699 180ZM83.1022 147.17L93.3183 179.138L159.862 158.955L142.978 127.74L83.1022 147.17Z" fill="#062226"/>
<path d="M135.565 106.803C135.565 106.803 135.177 73.5156 131.295 66.9093C127.414 60.303 115.164 32.5504 111.888 32.3563C108.612 32.1622 105.227 42.192 108.139 51.1271C109.827 56.3922 112.315 61.3668 115.513 65.8768C115.513 65.8768 107.028 73.2594 113.433 97.7438" fill="white"/>
<path d="M135.565 107.19C135.463 107.19 135.365 107.151 135.293 107.079C135.22 107.008 135.178 106.912 135.176 106.81C135.176 106.476 134.749 73.5456 130.961 67.1101C129.758 65.0685 127.786 61.055 125.527 56.4127C121.188 47.6095 113.929 32.8676 111.872 32.7434C111.481 32.7827 111.104 32.9143 110.773 33.1276C110.443 33.3408 110.167 33.6295 109.97 33.97C107.587 37.0752 106.329 44.4733 108.48 51.0485C110.16 56.2717 112.626 61.2085 115.792 65.6895C115.852 65.7679 115.88 65.8661 115.869 65.9642C115.859 66.0622 115.812 66.1527 115.738 66.2174C115.653 66.2872 107.525 73.7863 113.774 97.6885C113.8 97.7873 113.786 97.8924 113.735 97.9811C113.685 98.0697 113.601 98.1347 113.502 98.162C113.453 98.176 113.402 98.1801 113.351 98.174C113.301 98.1679 113.252 98.1516 113.208 98.1263C113.164 98.101 113.125 98.067 113.094 98.0265C113.064 97.9859 113.041 97.9396 113.029 97.8903C107.191 75.5873 113.549 67.3741 114.969 65.8836C111.863 61.3955 109.425 56.4792 107.734 51.2892C105.514 44.4733 106.849 36.7491 109.357 33.5042C109.623 33.0687 109.993 32.7056 110.433 32.447C110.873 32.1884 111.37 32.0422 111.88 32.0215C114.209 32.1535 119.286 42.1133 126.195 56.0867C128.477 60.7445 130.441 64.7114 131.629 66.7297C135.51 73.3438 135.937 105.451 135.953 106.81C135.954 106.861 135.945 106.912 135.926 106.959C135.908 107.007 135.88 107.05 135.845 107.087C135.809 107.123 135.767 107.153 135.72 107.173C135.674 107.194 135.623 107.205 135.572 107.206L135.565 107.19Z" fill="#062226"/>
<path d="M139.64 151.145C141.891 151.145 143.716 149.321 143.716 147.07C143.716 144.819 141.891 142.994 139.64 142.994C137.389 142.994 135.564 144.819 135.564 147.07C135.564 149.321 137.389 151.145 139.64 151.145Z" fill="white"/>
<path d="M90.2913 8.91211H18.3286C16.5209 8.91211 14.7872 9.63021 13.509 10.9084C12.2308 12.1867 11.5127 13.9203 11.5127 15.728V51.9267C11.5127 53.7351 12.2305 55.4696 13.5085 56.749C14.7866 58.0285 16.5202 58.7483 18.3286 58.7504H79.3533L89.3908 71.5205V58.7504H90.2913C92.0997 58.7483 93.8333 58.0285 95.1114 56.749C96.3894 55.4696 97.1072 53.7351 97.1072 51.9267V15.728C97.1072 13.9203 96.3891 12.1867 95.1109 10.9084C93.8326 9.63021 92.099 8.91211 90.2913 8.91211Z" fill="white"/>
<path d="M89.3903 71.9159C89.331 71.9165 89.2724 71.9027 89.2197 71.8757C89.1669 71.8486 89.1216 71.8091 89.0875 71.7606L79.1587 59.138H18.3281C16.4173 59.1339 14.5862 58.3725 13.2358 57.0207C11.8855 55.6689 11.1261 53.8369 11.124 51.9262V15.7275C11.1261 13.8175 11.8857 11.9863 13.2363 10.6357C14.5869 9.28514 16.4181 8.52549 18.3281 8.52344H90.2908C92.2008 8.52549 94.032 9.28514 95.3825 10.6357C96.7331 11.9863 97.4928 13.8175 97.4948 15.7275V51.9262C97.4928 53.8369 96.7334 55.6689 95.383 57.0207C94.0327 58.3725 92.2015 59.1339 90.2908 59.138H89.7784V71.5588C89.779 71.6397 89.7537 71.7188 89.7063 71.7844C89.6588 71.8501 89.5916 71.8988 89.5145 71.9236C89.473 71.9292 89.4308 71.9266 89.3903 71.9159ZM18.3281 9.29973C16.6246 9.30383 14.992 9.98236 13.7875 11.1869C12.5829 12.3915 11.9044 14.024 11.9003 15.7275V51.9262C11.9024 53.631 12.58 55.2656 13.7848 56.4718C14.9895 57.678 16.6232 58.3576 18.3281 58.3617H79.3528C79.4112 58.3614 79.4689 58.3745 79.5214 58.4001C79.5739 58.4257 79.6198 58.463 79.6555 58.5092L88.9711 70.4021V58.7576C88.9711 58.6547 89.012 58.5559 89.0848 58.4832C89.1576 58.4104 89.2563 58.3695 89.3592 58.3695H90.2597C91.9652 58.3674 93.6001 57.6885 94.8053 56.4818C96.0105 55.2751 96.6875 53.6394 96.6875 51.934V15.7275C96.6854 14.0234 96.0076 12.3896 94.8026 11.1846C93.5976 9.97965 91.9639 9.30179 90.2597 9.29973H18.3281Z" fill="#062226"/>
<path d="M62.0415 21.3789H46.5777C45.0171 21.3789 43.752 22.644 43.752 24.2046V32.0219C43.752 33.5825 45.0171 34.8477 46.5777 34.8477H62.0415C63.6021 34.8477 64.8672 33.5825 64.8672 32.0219V24.2046C64.8672 22.644 63.6021 21.3789 62.0415 21.3789Z" fill="#062226"/>
<path d="M59.581 24.5934H49.0389C48.6271 24.5934 48.2322 24.4298 47.941 24.1387C47.6499 23.8475 47.4863 23.4526 47.4863 23.0408V18.8566C47.4554 17.9406 47.6091 17.0278 47.9384 16.1725C48.2676 15.3171 48.7655 14.5368 49.4026 13.8779C50.0396 13.219 50.8027 12.695 51.6465 12.3372C52.4902 11.9793 53.3973 11.7949 54.3138 11.7949C55.2303 11.7949 56.1375 11.9793 56.9812 12.3372C57.825 12.695 58.5881 13.219 59.2251 13.8779C59.8622 14.5368 60.3601 15.3171 60.6893 16.1725C61.0185 17.0278 61.1723 17.9406 61.1414 18.8566V23.0408C61.1414 23.2454 61.101 23.4479 61.0224 23.6368C60.9439 23.8257 60.8289 23.9972 60.6839 24.1414C60.5389 24.2857 60.3668 24.3999 60.1775 24.4775C59.9883 24.555 59.7856 24.5944 59.581 24.5934ZM50.5837 21.4882H58.0284V18.8566C58.0514 18.3535 57.9721 17.8509 57.7954 17.3793C57.6187 16.9076 57.3483 16.4767 57.0004 16.1125C56.6524 15.7484 56.2343 15.4585 55.7712 15.2605C55.3081 15.0624 54.8097 14.9603 54.3061 14.9603C53.8024 14.9603 53.304 15.0624 52.8409 15.2605C52.3778 15.4585 51.9597 15.7484 51.6118 16.1125C51.2639 16.4767 50.9934 16.9076 50.8167 17.3793C50.64 17.8509 50.5608 18.3535 50.5837 18.8566V21.4882Z" fill="#062226"/>
<path d="M54.3094 28.0328C55.4241 28.0328 56.3278 27.1292 56.3278 26.0145C56.3278 24.8997 55.4241 23.9961 54.3094 23.9961C53.1947 23.9961 52.291 24.8997 52.291 26.0145C52.291 27.1292 53.1947 28.0328 54.3094 28.0328Z" fill="#062226"/>
<path d="M54.8766 26.4023H53.7432V31.1145H54.8766V26.4023Z" fill="#062226"/>
<path d="M87.0305 50.5995H21.2859C20.6271 50.5995 19.9952 50.3378 19.5293 49.8719C19.0635 49.406 18.8018 48.7742 18.8018 48.1154V41.1287C18.8018 40.4698 19.0635 39.838 19.5293 39.3721C19.9952 38.9063 20.6271 38.6445 21.2859 38.6445H87.0305C87.69 38.6445 88.3227 38.906 88.7898 39.3717C89.2569 39.8373 89.5204 40.4691 89.5224 41.1287V48.1154C89.5204 48.7749 89.2569 49.4067 88.7898 49.8724C88.3227 50.338 87.69 50.5995 87.0305 50.5995ZM21.2859 39.4053C20.833 39.4053 20.3986 39.5852 20.0783 39.9055C19.758 40.2258 19.5781 40.6602 19.5781 41.1132V48.0998C19.577 48.3244 19.6205 48.5469 19.706 48.7546C19.7914 48.9623 19.9172 49.151 20.076 49.3098C20.2348 49.4685 20.4235 49.5943 20.6311 49.6798C20.8388 49.7652 21.0613 49.8087 21.2859 49.8077H87.0305C87.2554 49.8087 87.4783 49.7653 87.6864 49.6799C87.8945 49.5945 88.0837 49.4689 88.2432 49.3102C88.4026 49.1515 88.5291 48.9629 88.6154 48.7552C88.7017 48.5475 88.7461 48.3248 88.7461 48.0998V41.1132C88.7441 40.6595 88.5624 40.2251 88.2409 39.905C87.9194 39.585 87.4842 39.4053 87.0305 39.4053H21.2859Z" fill="#D1D3D4"/>
<path d="M25.8512 44.9548L26.7284 46.1114L25.7502 46.7946L24.873 45.6146L24.0113 46.7558L23.0953 46.0726L23.9803 44.9392L22.5752 44.4734L22.9556 43.3866L24.3374 43.8679V42.4551H25.5251V43.8679L26.9069 43.4332L27.2718 44.52L25.8512 44.9548Z" fill="#062226"/>
<path d="M32.2396 44.9548L33.1168 46.1114L32.1387 46.7946L31.2615 45.6146L30.3998 46.7558L29.4449 46.0726L30.3299 44.9392L28.9248 44.4734L29.3052 43.3866L30.687 43.8679V42.4551H31.8747V43.8679L33.2565 43.4332L33.6214 44.52L32.2396 44.9548Z" fill="#062226"/>
<path d="M38.6205 44.9548L39.4977 46.1114L38.5196 46.7946L37.6501 45.6146L36.7884 46.7558L35.8336 46.0726L36.7186 44.9392L35.3135 44.4734L35.6939 43.3866L37.0757 43.8679V42.4551H38.2634V43.8679L39.6452 43.4332L40.0101 44.52L38.6205 44.9548Z" fill="#062226"/>
<path d="M45.017 44.9548L45.8942 46.1114L44.9161 46.7946L44.0544 45.6146L43.1927 46.7558L42.2456 46.0726L43.1229 44.9392L41.7178 44.4734L42.0982 43.3866L43.48 43.8679V42.4551H44.6755V43.8679L46.0495 43.4332L46.4221 44.52L45.017 44.9548Z" fill="#062226"/>
<path d="M51.4065 44.9548L52.2838 46.1114L51.3056 46.7946L50.4284 45.6146L49.5667 46.7558L48.6196 46.0726L49.4891 44.9392L48.084 44.4734L48.4644 43.3866L49.8462 43.8679V42.4551H51.0417V43.8679L52.4157 43.4332L52.7883 44.52L51.4065 44.9548Z" fill="#062226"/>
</svg>
