<svg width="50" height="50" viewBox="0 0 50 50" fill="none" xmlns="http://www.w3.org/2000/svg">
    <path opacity="0.5"
        d="M27.4 26.7H27.3V26.8V36.9H22.7V26.8V26.7H22.6H19.1V22.1H22.6H22.7V22V18.64C22.7 16.8359 23.2709 15.4538 24.2336 14.5225C25.1968 13.5907 26.5628 13.1 28.1716 13.1C29.6289 13.1 31.0127 13.2019 31.5 13.2566V17.1H29.8C28.5879 17.1 27.945 17.3937 27.6171 17.8806C27.4553 18.1208 27.377 18.3989 27.3384 18.6904C27.3 18.9799 27.3 19.2899 27.3 19.5962V19.6V22V22.1H27.4H31.4719L30.3219 26.7H27.4Z"
        fill="#6CC9E0" stroke="white" stroke-width="0.2" />
    <rect x="1.1" y="1.1" width="47.8" height="47.8" rx="7.7" stroke="#B1DBE6" stroke-width="2.2" />
</svg>
