<svg width="39" height="38" viewBox="0 0 39 38" fill="none" xmlns="http://www.w3.org/2000/svg">
<rect x="0.9" y="0.9" width="36.8628" height="36.2" rx="7.9" stroke="#B1DBE6" stroke-width="1.8"/>
<path d="M11.1317 17.8879L11.1314 17.887C9.97912 14.4931 12.0427 11.7617 14.2753 11.0784C16.5615 10.3788 18.0988 11.1148 18.8119 11.9694L19.4261 12.7055L20.0403 11.9694C20.7535 11.1149 22.2907 10.3818 24.567 11.0784C26.9576 11.81 28.8772 14.4807 27.7198 17.8868L27.7198 17.8868L27.7178 17.8928C26.9597 20.1828 25.0685 22.2787 23.1768 23.8294C22.2409 24.5965 21.3302 25.2094 20.6058 25.6264C20.2428 25.8354 19.9362 25.9896 19.7036 26.0888C19.587 26.1386 19.4987 26.1703 19.4376 26.1884C19.4332 26.1897 19.4291 26.1909 19.4253 26.192C19.4215 26.1909 19.4174 26.1897 19.413 26.1884C19.3522 26.1707 19.2645 26.1394 19.1487 26.0904C18.9177 25.9926 18.6132 25.8404 18.2525 25.6338C17.5328 25.2215 16.6276 24.6143 15.6953 23.851C13.8126 22.3094 11.9177 20.2118 11.1317 17.8879Z" fill="#6CC9E0" stroke="#6CC9E0" stroke-width="1.6"/>
</svg>
