<svg width="45" height="46" viewBox="0 0 45 46" fill="none" xmlns="http://www.w3.org/2000/svg">
<rect y="0.255859" width="45" height="45" rx="10" fill="#062226"/>
<path fill-rule="evenodd" clip-rule="evenodd" d="M19.571 17.8812C19.571 19.473 18.3245 20.7632 16.7855 20.7632C15.2474 20.7632 14 19.473 14 17.8812C14 16.2902 15.2474 15 16.7855 15C18.3245 15 19.571 16.2902 19.571 17.8812ZM28.9806 16.6187C29.6538 16.6187 30.201 17.1847 30.201 17.881C30.201 18.5783 29.6538 19.1443 28.9806 19.1443H23.6544C22.9803 19.1443 22.4331 18.5783 22.4331 17.881C22.4331 17.1847 22.9803 16.6187 23.6544 16.6187H28.9806ZM15.2213 26.0499H20.5475C21.2216 26.0499 21.7688 26.6159 21.7688 27.3131C21.7688 28.0094 21.2216 28.5764 20.5475 28.5764H15.2213C14.5472 28.5764 14 28.0094 14 27.3131C14 26.6159 14.5472 26.0499 15.2213 26.0499ZM27.4159 30.1605C28.9549 30.1605 30.2014 28.8702 30.2014 27.2793C30.2014 25.6875 28.9549 24.3972 27.4159 24.3972C25.8778 24.3972 24.6304 25.6875 24.6304 27.2793C24.6304 28.8702 25.8778 30.1605 27.4159 30.1605Z" fill="white"/>
</svg>
