<svg width="22" height="17" viewBox="0 0 22 17" fill="none" xmlns="http://www.w3.org/2000/svg">
<path fill-rule="evenodd" clip-rule="evenodd" d="M4.28276 5.12743C4.72455 6.48197 5.99797 7.46076 7.5 7.46076C9.00203 7.46076 10.2755 6.48197 10.7172 5.12742C13.9226 5.12742 17.128 5.12742 20.3333 5.12742C20.9132 5.12742 21.3833 4.65732 21.3833 4.07743C21.3833 3.49753 20.9132 3.02743 20.3333 3.02743C17.128 3.02743 13.9226 3.02743 10.7172 3.02743C10.7059 2.992 10.7211 3.0392 10.7172 3.02743C10.2755 1.67288 9.00203 0.694092 7.5 0.694092C5.99797 0.694092 4.72455 1.67288 4.28276 3.02743C3.41073 3.02743 2.5387 3.02743 1.66667 3.02743C1.08677 3.02743 0.616669 3.49753 0.616669 4.07743C0.616669 4.65732 1.08677 5.12742 1.66667 5.12742C2.5387 5.12742 3.41073 5.12742 4.28276 5.12743ZM7.5 2.79409C6.79124 2.79409 6.21667 3.36866 6.21667 4.07743C6.21667 4.78619 6.79124 5.36076 7.5 5.36076C8.20877 5.36076 8.78334 4.78619 8.78334 4.07743C8.78334 3.36866 8.20877 2.79409 7.5 2.79409Z" fill="black" fill-opacity="0.48"/>
<path fill-rule="evenodd" clip-rule="evenodd" d="M0.616669 13.4108C0.616669 12.8309 1.08677 12.3608 1.66667 12.3608C4.87203 12.3608 8.0774 12.3608 11.2828 12.3608C11.7246 11.0062 12.998 10.0274 14.5 10.0274C16.002 10.0274 17.2755 11.0062 17.7172 12.3608C17.7172 12.3608 19.725 12.3608 20.3333 12.3608C20.9132 12.3608 21.3833 12.8309 21.3833 13.4108C21.3833 13.9907 20.9132 14.4608 20.3333 14.4608C20.0741 14.4608 17.7172 14.4608 17.7172 14.4608C17.2755 15.8153 16.002 16.7941 14.5 16.7941C12.998 16.7941 11.7246 15.8153 11.2828 14.4608C8.0774 14.4608 4.87203 14.4608 1.66667 14.4608C1.08677 14.4608 0.616669 13.9907 0.616669 13.4108ZM13.2167 13.4108C13.2167 12.702 13.7912 12.1274 14.5 12.1274C15.2088 12.1274 15.7833 12.702 15.7833 13.4108C15.7833 14.1195 15.2088 14.6941 14.5 14.6941C13.7912 14.6941 13.2167 14.1195 13.2167 13.4108Z" fill="black" fill-opacity="0.48"/>
</svg>
