<svg width="22" height="22" viewBox="0 0 22 22" fill="none" xmlns="http://www.w3.org/2000/svg">
<path d="M21.7861 8.84565H20.9V8.8H11V13.2H17.2167C16.3097 15.7614 13.8727 17.6 11 17.6C7.35515 17.6 4.4 14.6448 4.4 11C4.4 7.35515 7.35515 4.4 11 4.4C12.6825 4.4 14.2131 5.0347 15.3786 6.07145L18.4899 2.9601C16.5253 1.12915 13.8974 0 11 0C4.92525 0 0 4.92525 0 11C0 17.0748 4.92525 22 11 22C17.0748 22 22 17.0748 22 11C22 10.2625 21.9241 9.5425 21.7861 8.84565Z" fill="#FFC107"/>
<path d="M1.2683 5.88005L4.88235 8.5305C5.86025 6.1094 8.22855 4.4 11 4.4C12.6825 4.4 14.2131 5.0347 15.3786 6.07145L18.4899 2.9601C16.5253 1.12915 13.8974 0 11 0C6.7749 0 3.1108 2.38535 1.2683 5.88005Z" fill="#FF3D00"/>
<path d="M11 22C13.8413 22 16.423 20.9126 18.375 19.1444L14.9705 16.2635C13.8289 17.1316 12.4341 17.6011 11 17.6C8.1389 17.6 5.70955 15.7757 4.79435 13.2297L1.20725 15.9934C3.02775 19.5558 6.72485 22 11 22Z" fill="#4CAF50"/>
<path d="M21.7861 8.84565H20.9V8.8H11V13.2H17.2167C16.7828 14.419 16.0013 15.4842 14.9688 16.264L14.9705 16.2635L18.375 19.1444C18.1341 19.3633 22 16.5 22 11C22 10.2625 21.9241 9.5425 21.7861 8.84565Z" fill="#1976D2"/>
</svg>
