<svg width="50" height="50" viewBox="0 0 50 50" fill="none" xmlns="http://www.w3.org/2000/svg">
<path d="M25 22.05C24.0452 22.05 23.1295 22.4135 22.4544 23.0605C21.7793 23.7075 21.4 24.585 21.4 25.5C21.4 26.415 21.7793 27.2925 22.4544 27.9395C23.1295 28.5865 24.0452 28.95 25 28.95C25.9548 28.95 26.8705 28.5865 27.5456 27.9395C28.2207 27.2925 28.6 26.415 28.6 25.5C28.6 24.585 28.2207 23.7075 27.5456 23.0605C26.8705 22.4135 25.9548 22.05 25 22.05ZM25 19.75C26.5913 19.75 28.1174 20.3558 29.2426 21.4341C30.3679 22.5125 31 23.975 31 25.5C31 27.025 30.3679 28.4875 29.2426 29.5659C28.1174 30.6442 26.5913 31.25 25 31.25C23.4087 31.25 21.8826 30.6442 20.7574 29.5659C19.6321 28.4875 19 27.025 19 25.5C19 23.975 19.6321 22.5125 20.7574 21.4341C21.8826 20.3558 23.4087 19.75 25 19.75ZM32.8 19.4625C32.8 19.8437 32.642 20.2094 32.3607 20.479C32.0794 20.7485 31.6978 20.9 31.3 20.9C30.9022 20.9 30.5206 20.7485 30.2393 20.479C29.958 20.2094 29.8 19.8437 29.8 19.4625C29.8 19.0813 29.958 18.7156 30.2393 18.446C30.5206 18.1764 30.9022 18.025 31.3 18.025C31.6978 18.025 32.0794 18.1764 32.3607 18.446C32.642 18.7156 32.8 19.0813 32.8 19.4625ZM25 16.3C22.0312 16.3 21.5464 16.308 20.1652 16.3667C19.2244 16.4093 18.5932 16.53 18.0076 16.7485C17.4868 16.9417 17.1112 17.1728 16.7116 17.5569C16.336 17.9047 16.0472 18.3293 15.8668 18.7989C15.6388 19.3624 15.5128 19.9662 15.4696 20.8667C15.4072 22.1362 15.4 22.5802 15.4 25.5C15.4 28.3451 15.4084 28.8097 15.4696 30.1333C15.514 31.0338 15.64 31.6399 15.8668 32.1999C16.0708 32.7001 16.3108 33.0601 16.7092 33.4419C17.1136 33.8283 17.4892 34.0594 18.0052 34.2503C18.598 34.47 19.2292 34.5919 20.1652 34.6333C21.49 34.6931 21.9532 34.7 25 34.7C27.9688 34.7 28.4536 34.6919 29.8348 34.6333C30.7732 34.5907 31.4056 34.47 31.9912 34.2526C32.5108 34.0583 32.8888 33.8271 33.2872 33.4453C33.6916 33.0578 33.9328 32.6978 34.132 32.2034C34.36 31.6364 34.4872 31.0303 34.5304 30.1333C34.5928 28.8637 34.6 28.4198 34.6 25.5C34.6 22.6549 34.5916 22.1903 34.5304 20.8667C34.486 19.9674 34.36 19.3601 34.132 18.7989C33.9512 18.3298 33.6629 17.9054 33.2884 17.5569C32.9257 17.1968 32.4826 16.92 31.9924 16.7473C31.4044 16.5288 30.7732 16.4081 29.8348 16.3667C28.51 16.3069 28.0468 16.3 25 16.3ZM25 14C28.2604 14 28.6672 14.0115 29.9464 14.069C31.2244 14.1265 32.0944 14.3186 32.86 14.6038C33.652 14.8959 34.3192 15.2914 34.9864 15.9297C35.5966 16.5046 36.0687 17.2 36.37 17.9675C36.6664 18.7 36.868 19.5349 36.928 20.7597C36.9844 21.9856 37 22.3755 37 25.5C37 28.6245 36.988 29.0144 36.928 30.2403C36.868 31.465 36.6664 32.2988 36.37 33.0325C36.0696 33.8004 35.5973 34.496 34.9864 35.0703C34.3864 35.6549 33.6608 36.1073 32.86 36.3962C32.0956 36.6803 31.2244 36.8735 29.9464 36.931C28.6672 36.9851 28.2604 37 25 37C21.7396 37 21.3328 36.9885 20.0536 36.931C18.7756 36.8735 17.9056 36.6803 17.14 36.3962C16.3388 36.1081 15.613 35.6556 15.0136 35.0703C14.4033 34.4955 13.9311 33.8001 13.63 33.0325C13.3324 32.2999 13.132 31.465 13.072 30.2403C13.0156 29.0144 13 28.6245 13 25.5C13 22.3755 13.012 21.9856 13.072 20.7597C13.132 19.5338 13.3324 18.7012 13.63 17.9675C13.9303 17.1995 14.4026 16.5039 15.0136 15.9297C15.6132 15.3446 16.3389 14.8921 17.14 14.6038C17.9056 14.3186 18.7744 14.1265 20.0536 14.069C21.3328 14.0149 21.7396 14 25 14Z" fill="#6CC9E0"/>
<rect x="1.1" y="1.1" width="47.8" height="47.8" rx="7.7" stroke="#B1DBE6" stroke-width="2.2"/>
</svg>
