<svg width="40" height="38" viewBox="0 0 40 38" fill="none" xmlns="http://www.w3.org/2000/svg">
<rect x="1.56309" y="0.9" width="36.8628" height="36.2" rx="7.9" stroke="#6CC9E0" stroke-width="1.8"/>
<path d="M19.5795 17.0635C18.9357 17.0635 18.3182 17.3149 17.8629 17.7624C17.4076 18.2099 17.1519 18.8168 17.1519 19.4496C17.1519 20.0824 17.4076 20.6893 17.8629 21.1368C18.3182 21.5842 18.9357 21.8356 19.5795 21.8356C20.2234 21.8356 20.8409 21.5842 21.2961 21.1368C21.7514 20.6893 22.0072 20.0824 22.0072 19.4496C22.0072 18.8168 21.7514 18.2099 21.2961 17.7624C20.8409 17.3149 20.2234 17.0635 19.5795 17.0635ZM19.5795 15.4728C20.6526 15.4728 21.6818 15.8918 22.4405 16.6376C23.1993 17.3834 23.6256 18.3949 23.6256 19.4496C23.6256 20.5043 23.1993 21.5158 22.4405 22.2616C21.6818 23.0074 20.6526 23.4263 19.5795 23.4263C18.5064 23.4263 17.4773 23.0074 16.7185 22.2616C15.9597 21.5158 15.5334 20.5043 15.5334 19.4496C15.5334 18.3949 15.9597 17.3834 16.7185 16.6376C17.4773 15.8918 18.5064 15.4728 19.5795 15.4728ZM24.8395 15.274C24.8395 15.5377 24.7329 15.7906 24.5432 15.977C24.3535 16.1634 24.0962 16.2682 23.8279 16.2682C23.5597 16.2682 23.3024 16.1634 23.1127 15.977C22.923 15.7906 22.8164 15.5377 22.8164 15.274C22.8164 15.0103 22.923 14.7575 23.1127 14.571C23.3024 14.3846 23.5597 14.2798 23.8279 14.2798C24.0962 14.2798 24.3535 14.3846 24.5432 14.571C24.7329 14.7575 24.8395 15.0103 24.8395 15.274ZM19.5795 13.0868C17.5775 13.0868 17.2506 13.0924 16.3192 13.1329C15.6847 13.1623 15.2591 13.2459 14.8642 13.397C14.513 13.5306 14.2597 13.6905 13.9902 13.9561C13.7369 14.1966 13.5422 14.4903 13.4205 14.8151C13.2668 15.2048 13.1818 15.6224 13.1527 16.2451C13.1106 17.1232 13.1057 17.4302 13.1057 19.4496C13.1057 21.4173 13.1114 21.7386 13.1527 22.654C13.1826 23.2768 13.2676 23.696 13.4205 24.0833C13.5581 24.4293 13.7199 24.6782 13.9886 24.9423C14.2613 25.2095 14.5146 25.3694 14.8626 25.5014C15.2623 25.6533 15.688 25.7376 16.3192 25.7662C17.2125 25.8076 17.5249 25.8124 19.5795 25.8124C21.5815 25.8124 21.9085 25.8068 22.8399 25.7662C23.4727 25.7368 23.8991 25.6533 24.294 25.503C24.6444 25.3686 24.8993 25.2087 25.168 24.9447C25.4407 24.6766 25.6034 24.4277 25.7377 24.0857C25.8914 23.6936 25.9772 23.2744 26.0064 22.654C26.0484 21.776 26.0533 21.469 26.0533 19.4496C26.0533 17.4819 26.0476 17.1606 26.0064 16.2451C25.9764 15.6232 25.8914 15.2032 25.7377 14.8151C25.6157 14.4906 25.4213 14.1971 25.1688 13.9561C24.9242 13.707 24.6254 13.5156 24.2949 13.3962C23.8983 13.2451 23.4727 13.1616 22.8399 13.1329C21.9465 13.0916 21.6341 13.0868 19.5795 13.0868ZM19.5795 11.4961C21.7782 11.4961 22.0525 11.504 22.9151 11.5438C23.7769 11.5836 24.3636 11.7164 24.8799 11.9137C25.414 12.1157 25.8639 12.3893 26.3139 12.8307C26.7253 13.2283 27.0437 13.7092 27.2469 14.24C27.4468 14.7467 27.5827 15.3241 27.6232 16.1712C27.6612 17.019 27.6717 17.2886 27.6717 19.4496C27.6717 21.6105 27.6636 21.8802 27.6232 22.728C27.5827 23.5751 27.4468 24.1517 27.2469 24.6591C27.0443 25.1902 26.7259 25.6713 26.3139 26.0685C25.9092 26.4728 25.4199 26.7857 24.8799 26.9855C24.3644 27.182 23.7769 27.3156 22.9151 27.3554C22.0525 27.3927 21.7782 27.4031 19.5795 27.4031C17.3809 27.4031 17.1065 27.3951 16.2439 27.3554C15.3821 27.3156 14.7954 27.182 14.2791 26.9855C13.7388 26.7863 13.2494 26.4733 12.8452 26.0685C12.4336 25.671 12.1152 25.19 11.9121 24.6591C11.7115 24.1525 11.5763 23.5751 11.5359 22.728C11.4978 21.8802 11.4873 21.6105 11.4873 19.4496C11.4873 17.2886 11.4954 17.019 11.5359 16.1712C11.5763 15.3233 11.7115 14.7475 11.9121 14.24C12.1146 13.7089 12.4331 13.2278 12.8452 12.8307C13.2495 12.426 13.7389 12.1131 14.2791 11.9137C14.7954 11.7164 15.3813 11.5836 16.2439 11.5438C17.1065 11.5064 17.3809 11.4961 19.5795 11.4961Z" fill=" #6CC9E0"/>
</svg>
