<svg width="24" height="23" viewBox="0 0 24 23" fill="none" xmlns="http://www.w3.org/2000/svg">
<path d="M12 8.05C11.0452 8.05 10.1295 8.41348 9.45442 9.06048C8.77928 9.70748 8.4 10.585 8.4 11.5C8.4 12.415 8.77928 13.2925 9.45442 13.9395C10.1295 14.5865 11.0452 14.95 12 14.95C12.9548 14.95 13.8705 14.5865 14.5456 13.9395C15.2207 13.2925 15.6 12.415 15.6 11.5C15.6 10.585 15.2207 9.70748 14.5456 9.06048C13.8705 8.41348 12.9548 8.05 12 8.05ZM12 5.75C13.5913 5.75 15.1174 6.3558 16.2426 7.43414C17.3679 8.51247 18 9.97501 18 11.5C18 13.025 17.3679 14.4875 16.2426 15.5659C15.1174 16.6442 13.5913 17.25 12 17.25C10.4087 17.25 8.88258 16.6442 7.75736 15.5659C6.63214 14.4875 6 13.025 6 11.5C6 9.97501 6.63214 8.51247 7.75736 7.43414C8.88258 6.3558 10.4087 5.75 12 5.75ZM19.8 5.4625C19.8 5.84375 19.642 6.20938 19.3607 6.47897C19.0794 6.74855 18.6978 6.9 18.3 6.9C17.9022 6.9 17.5206 6.74855 17.2393 6.47897C16.958 6.20938 16.8 5.84375 16.8 5.4625C16.8 5.08125 16.958 4.71562 17.2393 4.44603C17.5206 4.17645 17.9022 4.025 18.3 4.025C18.6978 4.025 19.0794 4.17645 19.3607 4.44603C19.642 4.71562 19.8 5.08125 19.8 5.4625ZM12 2.3C9.0312 2.3 8.5464 2.30805 7.1652 2.3667C6.2244 2.40925 5.5932 2.53 5.0076 2.7485C4.4868 2.9417 4.1112 3.17285 3.7116 3.55695C3.33601 3.90471 3.04722 4.32927 2.8668 4.79895C2.6388 5.36245 2.5128 5.9662 2.4696 6.86665C2.4072 8.13625 2.4 8.58015 2.4 11.5C2.4 14.3451 2.4084 14.8097 2.4696 16.1333C2.514 17.0338 2.64 17.6398 2.8668 18.1999C3.0708 18.7001 3.3108 19.0601 3.7092 19.4419C4.1136 19.8283 4.4892 20.0594 5.0052 20.2503C5.598 20.47 6.2292 20.5919 7.1652 20.6333C8.49 20.6931 8.9532 20.7 12 20.7C14.9688 20.7 15.4536 20.6919 16.8348 20.6333C17.7732 20.5907 18.4056 20.47 18.9912 20.2526C19.5108 20.0583 19.8888 19.8271 20.2872 19.4453C20.6916 19.0578 20.9328 18.6979 21.132 18.2034C21.36 17.6364 21.4872 17.0303 21.5304 16.1333C21.5928 14.8637 21.6 14.4198 21.6 11.5C21.6 8.6549 21.5916 8.1903 21.5304 6.86665C21.486 5.96735 21.36 5.36015 21.132 4.79895C20.9512 4.32975 20.6629 3.90535 20.2884 3.55695C19.9257 3.19682 19.4826 2.92004 18.9924 2.74735C18.4044 2.52885 17.7732 2.4081 16.8348 2.3667C15.51 2.3069 15.0468 2.3 12 2.3ZM12 0C15.2604 0 15.6672 0.0114999 16.9464 0.0689999C18.2244 0.1265 19.0944 0.31855 19.86 0.60375C20.652 0.89585 21.3192 1.29145 21.9864 1.9297C22.5966 2.50458 23.0687 3.19998 23.37 3.9675C23.6664 4.70005 23.868 5.53495 23.928 6.7597C23.9844 7.9856 24 8.37545 24 11.5C24 14.6245 23.988 15.0144 23.928 16.2403C23.868 17.465 23.6664 18.2988 23.37 19.0325C23.0696 19.8004 22.5973 20.496 21.9864 21.0703C21.3864 21.6549 20.6608 22.1073 19.86 22.3962C19.0956 22.6803 18.2244 22.8735 16.9464 22.931C15.6672 22.985 15.2604 23 12 23C8.7396 23 8.3328 22.9885 7.0536 22.931C5.7756 22.8735 4.9056 22.6803 4.14 22.3962C3.33879 22.1081 2.61303 21.6556 2.0136 21.0703C1.40329 20.4955 0.931118 19.8001 0.63 19.0325C0.3324 18.2999 0.132 17.465 0.0719999 16.2403C0.0155999 15.0144 0 14.6245 0 11.5C0 8.37545 0.0119999 7.9856 0.0719999 6.7597C0.132 5.5338 0.3324 4.7012 0.63 3.9675C0.930283 3.19951 1.40256 2.50392 2.0136 1.9297C2.61321 1.34462 3.33891 0.892089 4.14 0.60375C4.9056 0.31855 5.7744 0.1265 7.0536 0.0689999C8.3328 0.0149499 8.7396 0 12 0Z" fill="#99A2AD"/>
</svg>
