<svg width="30" height="30" viewBox="0 0 30 30" fill="none" xmlns="http://www.w3.org/2000/svg">
<rect width="30" height="30" rx="7" fill="#6CC9E0"/>
<path d="M18.2585 9.10659L20.7296 17.4546C20.7572 17.5477 20.7043 17.6457 20.6113 17.6737C19.8773 17.8954 19.1058 17.9653 18.3438 17.8792L13.4943 17.3313L14.7018 20.3591C14.8438 20.7153 14.6431 21.1156 14.2727 21.2148L13.4395 21.4381C13.1334 21.5201 12.8132 21.3658 12.6867 21.0752L11.1834 17.623L10.3587 17.844C10.0171 17.9355 9.66597 17.7328 9.57443 17.3912L9.02198 15.3294C8.93045 14.9878 9.13317 14.6366 9.47478 14.5451L11.7427 13.9374L16.0597 10.0752C16.6361 9.55954 17.3294 9.19204 18.0797 9.00447C18.157 8.98514 18.2359 9.03017 18.2585 9.10659Z" fill="#FDFDFD"/>
<path d="M21.1035 13.111C20.9169 12.4147 20.4777 12.198 20.1059 12.1482C19.7661 12.1028 19.5685 12.4524 19.6572 12.7835L20.0147 14.1178C20.1034 14.4489 20.4494 14.6529 20.7209 14.4436C21.0181 14.2146 21.2901 13.8074 21.1035 13.111Z" fill="#FDFDFD"/>
</svg>
