<svg width="12" height="14" viewBox="0 0 12 14" fill="none" xmlns="http://www.w3.org/2000/svg">
<path d="M5.92315 5.28568C6.55433 5.28568 7.06601 4.774 7.06601 4.14282C7.06601 3.51164 6.55433 2.99996 5.92315 2.99996C5.29197 2.99996 4.78029 3.51164 4.78029 4.14282C4.78029 4.774 5.29197 5.28568 5.92315 5.28568Z" fill="white"/>
<path fill-rule="evenodd" clip-rule="evenodd" d="M1.92315 4.14282C1.92315 1.93368 3.71401 0.142822 5.92315 0.142822C8.13229 0.142822 9.92315 1.93368 9.92315 4.14282C9.92315 6.7176 8.18703 8.85239 7.15466 9.904C6.46972 10.6017 5.37657 10.6017 4.69164 9.904C3.65927 8.85239 1.92315 6.7176 1.92315 4.14282ZM5.92315 1.28568C4.34519 1.28568 3.06601 2.56487 3.06601 4.14282C3.06601 6.2383 4.51071 8.08833 5.50719 9.10337C5.74416 9.34476 6.10213 9.34476 6.33911 9.10337C7.33559 8.08832 8.78029 6.2383 8.78029 4.14282C8.78029 2.56487 7.5011 1.28568 5.92315 1.28568Z" fill="white"/>
<path d="M2.07295 8.46993C2.27835 8.70953 2.25062 9.07028 2.01102 9.27568C1.56418 9.65874 1.35172 10.0815 1.35172 10.4285C1.35172 10.9157 1.71394 11.477 2.56411 11.9493C3.39493 12.4109 4.5814 12.7142 5.92315 12.7142C7.26489 12.7142 8.45137 12.4109 9.28219 11.9493C10.1324 11.477 10.4946 10.9157 10.4946 10.4285C10.4946 10.0719 10.2989 9.67736 9.84117 9.29263C9.59959 9.08956 9.56837 8.7291 9.77145 8.48752C9.97452 8.24595 10.335 8.21473 10.5766 8.4178C11.1924 8.93548 11.6374 9.62246 11.6374 10.4285C11.6374 11.5193 10.8484 12.3866 9.83721 12.9483C8.80668 13.5209 7.42172 13.8571 5.92315 13.8571C4.42457 13.8571 3.03962 13.5209 2.00909 12.9483C0.997914 12.3866 0.208862 11.5193 0.208862 10.4285C0.208862 9.6313 0.671564 8.91862 1.2672 8.408C1.5068 8.20261 1.86755 8.23033 2.07295 8.46993Z" fill="white"/>
</svg>
