<svg width="363" height="549" viewBox="0 0 363 549" fill="none" xmlns="http://www.w3.org/2000/svg">
<path d="M341.35 303.208C328.272 282.111 311.067 264.792 291.104 252.627C267.368 238.922 242.851 227.059 217.72 217.118C203.539 211.527 191.275 206.239 181.358 201.253C173.515 197.538 165.896 193.234 158.55 188.371C146.099 179.758 139.862 167.947 139.84 152.938C139.84 141.832 142.22 133.333 147.046 127.326C147.443 126.798 147.939 126.231 148.401 125.702C155.001 119.336 163.479 116.092 172.103 116.636C177.356 116.366 182.604 117.292 187.541 119.361C192.478 121.43 197.006 124.6 200.861 128.686C208.134 136.77 212.651 149.11 214.414 165.706H353.911C350.804 113.324 333.284 72.6531 301.352 43.6921C269.42 14.7311 226.557 0.250567 172.764 0.250567C142.443 -0.320936 112.324 5.96985 84.1405 18.7604C64.4708 27.7726 46.8004 41.6692 32.4078 59.4443C28.9255 63.7933 25.6694 68.372 22.6563 73.1567C20.2564 77.0416 18.0492 81.0773 16.0451 85.2448C5.22134 107.794 -0.238216 133.193 0.211214 158.906C0.211214 193.685 7.15299 222.142 21.0365 244.278C29.555 258.108 39.8782 270.363 51.6464 280.618C57.5903 285.789 63.9424 290.316 70.6206 294.142C94.2689 307.355 118.677 318.714 143.674 328.139C156.533 333.05 167.739 337.734 177.392 342.267C186.727 346.54 195.776 351.59 204.465 357.378C210.367 360.994 215.281 366.404 218.664 373.009C222.047 379.615 223.768 387.16 223.637 394.813C223.909 399.988 223.193 405.169 221.537 409.996C219.882 414.823 217.327 419.181 214.051 422.766C207.638 429.289 198.713 432.563 187.275 432.588C175.345 432.964 163.746 428.081 154.88 418.951C146.066 409.885 140.997 396.034 139.675 377.398H1.53346C4.61869 432.324 23.681 474.644 58.7204 504.361C93.7598 534.077 138.385 548.873 192.597 548.747C228.298 548.747 258.93 541.708 284.493 527.63C310.057 513.553 329.449 494.401 342.672 470.174C346.9 462.506 350.486 454.398 353.382 445.96C359.555 427.91 362.651 408.677 362.506 389.298C362.506 354.066 355.454 325.369 341.35 303.208Z" fill="url(#paint0_linear_1304_1995)"/>
<defs>
<linearGradient id="paint0_linear_1304_1995" x1="181.348" y1="0.214844" x2="181.348" y2="548.748" gradientUnits="userSpaceOnUse">
<stop stop-color="#8EE9FF"/>
<stop offset="1" stop-color="#00B1DD"/>
</linearGradient>
</defs>
</svg>
