<svg width="50" height="50" viewBox="0 0 50 50" fill="none" xmlns="http://www.w3.org/2000/svg">
    <path opacity="0.5"
        d="M37.3119 26.4273V36.9H32.4528V28.2405C32.4528 26.8882 32.0653 25.8907 31.4723 25.2372C30.8791 24.5835 30.0866 24.2814 29.2944 24.3108C27.7059 24.3697 26.1434 25.7546 26.1434 28.2405V36.9H21.2971V20.4076H26.1923L26.1434 22.5452L26.3319 22.594C27.3697 20.6221 30.1125 19.545 32.6075 19.9861C33.8507 20.2059 35.025 20.8021 35.8888 21.8463C36.7523 22.8901 37.3119 24.3895 37.3119 26.4273ZM18.0232 15.6678C18.0228 16.3498 17.7623 17.0029 17.2999 17.4837C16.8377 17.9643 16.2119 18.2334 15.5604 18.233C14.9088 18.2327 14.2833 17.963 13.8215 17.4818C13.3596 17.0006 13.0997 16.3472 13.1 15.6652C13.1003 14.9833 13.3609 14.3302 13.8233 13.8494C14.2855 13.3687 14.9113 13.0997 15.5628 13.1C16.2143 13.1003 16.8399 13.37 17.3017 13.8512C17.7635 14.3325 18.0235 14.9859 18.0232 15.6678ZM13.1768 36.9V20.4076H18.1V36.9H13.1768Z"
        fill="#6CC9E0" stroke="white" stroke-width="0.2" />
    <rect x="1.1" y="1.1" width="47.8" height="47.8" rx="7.7" stroke="#B1DBE6" stroke-width="2.2" />
</svg>
