<svg width="135" height="135" viewBox="0 0 135 135" fill="none" xmlns="http://www.w3.org/2000/svg">
<path d="M88.6339 80.0861C88.6339 87.2517 83.1543 92.7312 75.9888 92.7312H59.1286C51.963 92.7312 46.4834 87.2517 46.4834 80.0861V75.8711H4.33301V122.237C4.33301 129.402 9.81256 134.882 16.9781 134.882H118.139C125.305 134.882 130.784 129.402 130.784 122.237V75.8711H88.6339V80.0861Z" fill="#3AD6D6"/>
<path d="M122.354 25.2903H96.6427C94.5351 10.9591 82.3115 0 67.5589 0C52.8062 0 40.5826 10.9591 38.4751 25.2903H12.7633C5.59772 25.2903 0.118164 31.1914 0.118164 37.9354V67.4408H46.4836V63.2257C46.4836 56.4817 51.9632 50.5806 59.1288 50.5806H75.9889C83.1545 50.5806 88.6341 56.4817 88.6341 63.2257V67.4408H135V37.9354C135 30.7699 129.52 25.2903 122.354 25.2903ZM46.9051 25.2903C49.0127 15.5957 57.4428 8.4301 67.5589 8.4301C77.675 8.4301 86.1051 15.5957 88.2126 25.2903H46.9051Z" fill="#6CC9E0"/>
<path d="M80.2044 63.2258V80.0859C80.2044 82.6149 78.0968 84.301 75.9893 84.301H59.1291C56.6001 84.301 54.9141 82.6149 54.9141 80.0859C54.9141 73.7634 54.9141 77.9784 54.9141 63.2258C54.9141 61.1183 56.6001 59.0107 59.1291 59.0107H75.9893C78.0968 59.0107 80.2044 60.6968 80.2044 63.2258Z" fill="#6CC9E0"/>
</svg>
