<svg width="24" height="22" viewBox="0 0 24 22" fill="none" xmlns="http://www.w3.org/2000/svg">
<path d="M23.1312 12.3056V21.8761H18.5013V13.9626C18.5013 12.7259 18.1323 11.8138 17.5683 11.2167C17.0044 10.6198 16.2521 10.3447 15.5008 10.3715C13.9951 10.4251 12.5068 11.6875 12.5068 13.9626V21.8761H7.88911V6.80456H12.5533L12.5068 8.7579L12.6783 8.80398C13.1712 7.90436 14.0686 7.2068 15.1449 6.78454C16.2207 6.36247 17.4688 6.21826 18.6535 6.41947C19.8378 6.6206 20.9558 7.16614 21.7777 8.12065C22.5991 9.07459 23.1312 10.4443 23.1312 12.3056ZM4.78219 2.47312C4.78188 3.09516 4.53448 3.6916 4.09441 4.13122C3.65434 4.57085 3.05766 4.81766 2.43562 4.81735C1.81358 4.81704 1.21714 4.56963 0.777508 4.12957C0.33788 3.6895 0.0910739 3.09281 0.0913849 2.47077C0.0916959 1.84873 0.339098 1.25229 0.779167 0.812664C1.21924 0.373036 1.81592 0.12623 2.43796 0.126541C3.06 0.126852 3.65644 0.374255 4.09607 0.814323C4.5357 1.25439 4.7825 1.85108 4.78219 2.47312ZM0.164488 21.8761V6.80456H4.8553V21.8761H0.164488Z" fill="#99A2AD" stroke="white" stroke-width="0.182769"/>
</svg>
