<svg width="20" height="24" viewBox="0 0 20 24" fill="none" xmlns="http://www.w3.org/2000/svg">
<path d="M10 9C11.1046 9 12 8.10457 12 7C12 5.89543 11.1046 5 10 5C8.89543 5 8 5.89543 8 7C8 8.10457 8.89543 9 10 9Z" fill="black" fill-opacity="0.48"/>
<path fill-rule="evenodd" clip-rule="evenodd" d="M3 7C3 3.13401 6.13401 0 10 0C13.866 0 17 3.13401 17 7C17 11.5059 13.9618 15.2417 12.1551 17.0821C10.9565 18.303 9.0435 18.303 7.84486 17.0821C6.0382 15.2417 3 11.5059 3 7ZM10 2C7.23858 2 5 4.23858 5 7C5 10.6671 7.52823 13.9046 9.27207 15.681C9.68678 16.1034 10.3132 16.1034 10.7279 15.681C12.4718 13.9046 15 10.6671 15 7C15 4.23858 12.7614 2 10 2Z" fill="black" fill-opacity="0.48"/>
<path d="M3.26215 14.5724C3.62159 14.9917 3.57307 15.623 3.15377 15.9825C2.3718 16.6528 2 17.3927 2 18C2 18.8526 2.63388 19.8348 4.12168 20.6614C5.57561 21.4691 7.65195 22 10 22C12.3481 22 14.4244 21.4691 15.8783 20.6614C17.3661 19.8348 18 18.8526 18 18C18 17.3759 17.6575 16.6854 16.8565 16.0122C16.4338 15.6568 16.3791 15.026 16.7345 14.6032C17.0899 14.1805 17.7207 14.1258 18.1435 14.4812C19.2212 15.3871 20 16.5894 20 18C20 19.9088 18.6192 21.4266 16.8496 22.4097C15.0462 23.4116 12.6225 24 10 24C7.37749 24 4.95383 23.4116 3.1504 22.4097C1.38084 21.4266 0 19.9088 0 18C0 16.6048 0.809729 15.3576 1.85209 14.4641C2.27139 14.1046 2.9027 14.1531 3.26215 14.5724Z" fill="black" fill-opacity="0.48"/>
</svg>
