<svg width="40" height="38" viewBox="0 0 40 38" fill="none" xmlns="http://www.w3.org/2000/svg">
<rect x="1.88926" y="0.9" width="36.8628" height="36.2" rx="7.9" stroke="#6CC9E0" stroke-width="1.8"/>
<path d="M29 15.7946V23.8125C29 24.5584 28.7037 25.2738 28.1762 25.8012C27.6488 26.3287 26.9334 26.625 26.1875 26.625H13.8125C13.0666 26.625 12.3512 26.3287 11.8238 25.8012C11.2963 25.2738 11 24.5584 11 23.8125V15.7946L19.7143 20.9224C19.8008 20.9734 19.8995 21.0004 20 21.0004C20.1005 21.0004 20.1992 20.9734 20.2857 20.9224L29 15.7946ZM26.1875 12C26.8795 11.9999 27.5473 12.2549 28.0631 12.7163C28.5789 13.1777 28.9064 13.8131 28.9831 14.5009L20 19.785L11.0169 14.5009C11.0936 13.8131 11.4211 13.1777 11.9369 12.7163C12.4527 12.2549 13.1205 11.9999 13.8125 12H26.1875Z" fill="#6CC9E0"/>
</svg>
