<svg width="30" height="30" viewBox="0 0 30 30" fill="none" xmlns="http://www.w3.org/2000/svg">
<rect width="30" height="30" rx="7" fill="#6CC9E0"/>
<path fill-rule="evenodd" clip-rule="evenodd" d="M18.8846 13.4176C18.8846 14.234 19.1004 14.7151 19.5752 15.2696C19.935 15.6781 20.05 16.2025 20.05 16.7714C20.05 17.3397 19.8633 17.8791 19.4893 18.3171C18.9996 18.8421 18.309 19.1773 17.6042 19.2355C16.5829 19.3226 15.5609 19.3959 14.5253 19.3959C13.4891 19.3959 12.4678 19.3521 11.4464 19.2355C10.741 19.1773 10.0504 18.8421 9.56138 18.3171C9.18734 17.8791 9 17.3397 9 16.7714C9 16.2025 9.11564 15.6781 9.47482 15.2696C9.96449 14.7151 10.166 14.234 10.166 13.4176V13.1407C10.166 12.0474 10.4387 11.3325 11 10.6327C11.8347 9.6121 13.1726 9 14.4963 9H14.5544C15.9065 9 17.2877 9.64156 18.1081 10.706C18.6404 11.3915 18.8846 12.0762 18.8846 13.1407V13.4176ZM12.623 20.7394C12.623 20.4121 12.9234 20.2622 13.2012 20.198C13.5262 20.1293 15.5062 20.1293 15.8311 20.198C16.1089 20.2622 16.4093 20.4121 16.4093 20.7394C16.3932 21.0511 16.2103 21.3273 15.9578 21.5028C15.6302 21.7581 15.2458 21.9198 14.844 21.978C14.6218 22.0069 14.4035 22.0075 14.189 21.978C13.7865 21.9198 13.4021 21.7581 13.0753 21.5021C12.822 21.3273 12.6392 21.0511 12.623 20.7394Z" fill="white"/>
</svg>
