<svg width="326" height="18" viewBox="0 0 326 18" fill="none" xmlns="http://www.w3.org/2000/svg">
<line y1="11.5" x2="132" y2="11.5" stroke="#6CC9E0"/>
<line x1="194" y1="11.5" x2="326" y2="11.5" stroke="#6CC9E0"/>
<path d="M151.688 10.656C151.688 10.752 151.683 10.8907 151.672 11.072C151.672 11.2427 151.667 11.4293 151.656 11.632C151.645 11.824 151.635 12.0107 151.624 12.192C151.613 12.3627 151.603 12.5013 151.592 12.608L156.184 5.424H157.912V14H156.6V8.944C156.6 8.77333 156.6 8.54933 156.6 8.272C156.611 7.99467 156.621 7.72267 156.632 7.456C156.643 7.17867 156.653 6.97067 156.664 6.832L152.104 14H150.36V5.424H151.688V10.656ZM167.169 14H165.745V6.592H163.217C163.111 7.94667 162.977 9.104 162.817 10.064C162.657 11.0133 162.455 11.7867 162.209 12.384C161.964 12.9813 161.671 13.4187 161.329 13.696C160.988 13.9733 160.588 14.112 160.129 14.112C159.991 14.112 159.852 14.1013 159.713 14.08C159.585 14.0693 159.479 14.0427 159.393 14V12.944C159.457 12.9653 159.527 12.9813 159.601 12.992C159.676 13.0027 159.751 13.008 159.825 13.008C160.06 13.008 160.273 12.912 160.465 12.72C160.657 12.528 160.828 12.2347 160.977 11.84C161.137 11.4453 161.281 10.9493 161.409 10.352C161.537 9.744 161.649 9.02933 161.745 8.208C161.841 7.38667 161.927 6.45867 162.001 5.424H167.169V14ZM171.219 10.656C171.219 10.752 171.214 10.8907 171.203 11.072C171.203 11.2427 171.198 11.4293 171.187 11.632C171.177 11.824 171.166 12.0107 171.155 12.192C171.145 12.3627 171.134 12.5013 171.123 12.608L175.715 5.424H177.443V14H176.131V8.944C176.131 8.77333 176.131 8.54933 176.131 8.272C176.142 7.99467 176.153 7.72267 176.163 7.456C176.174 7.17867 176.185 6.97067 176.195 6.832L171.635 14H169.891V5.424H171.219V10.656Z" fill="#6CC9E0"/>
</svg>
