<svg width="50" height="50" viewBox="0 0 50 50" fill="none" xmlns="http://www.w3.org/2000/svg">
<path d="M29.3343 29.0566L31.3148 26.9892C31.5816 26.7142 31.9191 26.5259 32.2863 26.4473C32.6536 26.3686 33.0349 26.403 33.3838 26.5461L35.7975 27.5522C36.1501 27.7016 36.4525 27.9566 36.6665 28.2851C36.8805 28.6136 36.9965 29.0009 37 29.3981V34.013C36.9979 34.2833 36.9435 34.5502 36.84 34.7979C36.7365 35.0456 36.5861 35.2689 36.3977 35.4543C36.2094 35.6397 35.9871 35.7834 35.7441 35.8767C35.5012 35.9701 35.2426 36.0111 34.9841 35.9974C18.0701 34.8991 14.6572 19.9469 14.0118 14.2244C13.9818 13.9434 14.0092 13.6589 14.0921 13.3898C14.175 13.1206 14.3116 12.8728 14.4928 12.6627C14.6741 12.4526 14.8959 12.2849 15.1436 12.1707C15.3914 12.0565 15.6596 11.9983 15.9304 12H20.2009C20.582 12.0012 20.954 12.1214 21.2692 12.3451C21.5843 12.5688 21.8281 12.8858 21.9692 13.2553L22.933 15.775C23.0747 16.1378 23.1108 16.5361 23.0369 16.9203C22.963 17.3044 22.7823 17.6572 22.5174 17.9348L20.5369 20.0022C20.5369 20.0022 21.6775 28.0598 29.3343 29.0566Z" fill="#6CC9E0"/>
<path d="M8.8 1.1H41.2C45.4526 1.1 48.9 4.54741 48.9 8.8V41.2C48.9 45.4526 45.4526 48.9 41.2 48.9H8.8C4.54741 48.9 1.1 45.4526 1.1 41.2V8.8C1.1 4.54741 4.54741 1.1 8.8 1.1Z" stroke="#B1DBE6" stroke-width="2.2"/>
</svg>
