<svg width="42" height="42" viewBox="0 0 42 42" fill="none" xmlns="http://www.w3.org/2000/svg">
<rect width="41.4286" height="41.5324" rx="13" fill="white"/>
<path fill-rule="evenodd" clip-rule="evenodd" d="M26.5837 14.4848C26.6267 14.5601 26.7019 14.6139 26.7985 14.6139C29.3763 14.6139 31.4815 16.722 31.4815 19.3034V25.6923C31.4815 28.2737 29.3763 30.3818 26.7985 30.3818H14.683C12.0944 30.3818 10 28.2737 10 25.6923V19.3034C10 16.722 12.0944 14.6139 14.683 14.6139C14.7689 14.6139 14.8548 14.5709 14.887 14.4848L14.9515 14.3558C14.9885 14.2776 15.0265 14.1974 15.0651 14.1159C15.3399 13.5357 15.6439 12.8938 15.8322 12.5166C16.3263 11.5485 17.1641 11.0108 18.2059 11H23.2648C24.3067 11.0108 25.1552 11.5485 25.6493 12.5166C25.8184 12.8554 26.0762 13.4012 26.3246 13.9273C26.3759 14.0358 26.4267 14.1434 26.4763 14.2482L26.5837 14.4848ZM25.7988 18.6116C25.7988 19.1494 26.2285 19.5796 26.7655 19.5796C27.3025 19.5796 27.7429 19.1494 27.7429 18.6116C27.7429 18.0738 27.3025 17.6328 26.7655 17.6328C26.2285 17.6328 25.7988 18.0738 25.7988 18.6116ZM18.883 20.2822C19.3878 19.7767 20.043 19.5078 20.7412 19.5078C21.4393 19.5078 22.0945 19.7767 22.5886 20.2715C23.0827 20.7662 23.3512 21.4223 23.3512 22.1214C23.3404 23.5627 22.1804 24.7351 20.7412 24.7351C20.043 24.7351 19.3878 24.4662 18.8938 23.9714C18.3997 23.4767 18.1312 22.8206 18.1312 22.1214V22.1107C18.1204 21.4331 18.3889 20.777 18.883 20.2822ZM23.716 25.1155C22.9534 25.8792 21.9008 26.3524 20.7408 26.3524C19.6131 26.3524 18.5605 25.9114 17.7549 25.1155C16.9601 24.3088 16.5197 23.2548 16.5197 22.1254C16.509 21.0068 16.9494 19.9528 17.7442 19.1461C18.5497 18.3394 19.6131 17.8984 20.7408 17.8984C21.8686 17.8984 22.9319 18.3394 23.7268 19.1353C24.5216 19.942 24.9619 21.0068 24.9619 22.1254C24.9512 23.2978 24.4786 24.3519 23.716 25.1155Z" fill="#6CC9E0"/>
</svg>
