<svg width="22" height="22" viewBox="0 0 22 22" fill="none" xmlns="http://www.w3.org/2000/svg">
<path d="M14.9216 15.2901L14.9659 15.2956L14.9975 15.264L16.8078 13.4538C16.8079 13.4537 16.808 13.4536 16.8081 13.4535C17.0393 13.2253 17.3318 13.069 17.6501 13.0037C17.9684 12.9384 18.2988 12.9669 18.6013 13.0857C18.6014 13.0858 18.6015 13.0858 18.6016 13.0858L20.8073 13.9665C20.8074 13.9666 20.8075 13.9666 20.8076 13.9666C21.1131 14.0907 21.3751 14.3024 21.5605 14.5751C21.7459 14.8478 21.8465 15.1692 21.8496 15.4989V19.5398C21.8478 19.764 21.8006 19.9854 21.711 20.1909C21.6213 20.3965 21.4909 20.5819 21.3277 20.7358C21.1645 20.8897 20.9718 21.009 20.7613 21.0865C20.5509 21.1639 20.327 21.198 20.1032 21.1867C12.4017 20.7074 7.78091 17.2092 5.00917 13.2104C2.23463 9.20755 1.30983 4.69794 1.01562 2.1994C0.989706 1.96621 1.01344 1.73017 1.08526 1.50681C1.15711 1.28336 1.27546 1.07765 1.43252 0.903218C1.58958 0.728788 1.78179 0.589588 1.99651 0.494778C2.21123 0.399967 2.44359 0.351694 2.67831 0.353135V0.353136H2.67887H6.58289C6.913 0.35414 7.23526 0.453866 7.50824 0.639492C7.78126 0.825143 7.99249 1.08823 8.11477 1.39491L8.11479 1.39495L8.99585 3.60164L8.9961 3.60226C9.11885 3.90335 9.15017 4.23394 9.08614 4.55273C9.02211 4.87152 8.86557 5.16437 8.63607 5.39471L6.82557 7.20522L6.79306 7.23772L6.79978 7.2832L6.89019 7.26984C6.79978 7.2832 6.79979 7.28327 6.79981 7.28336L6.79986 7.28369L6.80003 7.28482L6.80067 7.289L6.8032 7.30485C6.80547 7.3187 6.80891 7.33905 6.81367 7.3655C6.82319 7.41839 6.83802 7.49567 6.85935 7.59411C6.90201 7.79097 6.97072 8.07253 7.07512 8.41287C7.28386 9.09332 7.63572 10.01 8.2084 10.9546C9.35471 12.8454 11.3872 14.8493 14.9216 15.2901Z" fill="#99A2AD" stroke="white" stroke-width="0.182769"/>
</svg>
