<svg width="39" height="38" viewBox="0 0 39 38" fill="none" xmlns="http://www.w3.org/2000/svg">
<rect x="1.22617" y="0.9" width="36.8628" height="36.2" rx="7.9" stroke="#6CC9E0" stroke-width="1.8"/>
<path d="M21.9764 22.8011L23.3462 21.4308C23.5307 21.2485 23.7641 21.1237 24.0181 21.0716C24.2721 21.0195 24.5357 21.0423 24.7771 21.1371L26.4464 21.8039C26.6903 21.903 26.8994 22.072 27.0474 22.2897C27.1954 22.5075 27.2757 22.7641 27.2781 23.0274V26.0861C27.2767 26.2652 27.239 26.4422 27.1674 26.6064C27.0958 26.7705 26.9918 26.9185 26.8615 27.0414C26.7313 27.1643 26.5775 27.2595 26.4095 27.3214C26.2415 27.3832 26.0627 27.4104 25.8839 27.4014C14.186 26.6734 11.8256 16.7632 11.3792 12.9704C11.3585 12.7842 11.3774 12.5956 11.4348 12.4172C11.4921 12.2388 11.5866 12.0746 11.7119 11.9353C11.8373 11.796 11.9907 11.6849 12.162 11.6092C12.3334 11.5335 12.5189 11.495 12.7062 11.4961H15.6597C15.9233 11.4969 16.1806 11.5765 16.3985 11.7248C16.6164 11.8731 16.7851 12.0832 16.8827 12.3281L17.5492 13.9981C17.6472 14.2386 17.6722 14.5026 17.6211 14.7572C17.57 15.0118 17.445 15.2457 17.2618 15.4296L15.8921 16.7999C15.8921 16.7999 16.6809 22.1404 21.9764 22.8011Z" fill="#6CC9E0"/>
</svg>
