<svg width="50" height="50" viewBox="0 0 50 50" fill="none" xmlns="http://www.w3.org/2000/svg">
<path opacity="0.5" d="M29.3281 30.4452L29.3766 30.4512L29.4112 30.4167L31.3921 28.4358C31.3922 28.4357 31.3922 28.4356 31.3923 28.4355C31.6454 28.1857 31.9655 28.0147 32.3138 27.9433C32.6622 27.8718 33.0238 27.903 33.3548 28.0331C33.3549 28.0331 33.3549 28.0331 33.355 28.0331L35.7687 28.9968C35.7688 28.9969 35.7688 28.9969 35.7689 28.9969C36.1033 29.1327 36.39 29.3644 36.5929 29.6628C36.7958 29.9612 36.9059 30.3129 36.9093 30.6737V35.0955C36.9073 35.3408 36.8557 35.5832 36.7576 35.808C36.6594 36.0331 36.5168 36.2359 36.3382 36.4043C36.1596 36.5727 35.9487 36.7032 35.7183 36.788C35.4882 36.8727 35.2433 36.91 34.9983 36.8977C26.5707 36.3733 21.5142 32.5453 18.4812 28.1694C15.4451 23.7892 14.4331 18.8545 14.1111 16.1204C14.0828 15.8652 14.1087 15.6069 14.1873 15.3625C14.266 15.118 14.3955 14.8929 14.5673 14.702C14.7392 14.5111 14.9495 14.3588 15.1845 14.255C15.4195 14.1513 15.6737 14.0985 15.9306 14.1V14.1H15.9312H20.2033C20.5645 14.1011 20.9171 14.2103 21.2159 14.4134C21.5146 14.6165 21.7458 14.9044 21.8796 15.24L21.8796 15.2401L22.8437 17.6548L22.844 17.6555C22.9783 17.985 23.0126 18.3467 22.9425 18.6955C22.8725 19.0443 22.7012 19.3647 22.4501 19.6168C22.4501 19.6168 22.4501 19.6169 22.45 19.6169L20.4688 21.5981L20.4333 21.6337L20.4406 21.6834L20.5395 21.6688C20.4406 21.6834 20.4406 21.6835 20.4406 21.6836L20.4407 21.684L20.4409 21.6852L20.4416 21.6898L20.4443 21.7071C20.4468 21.7223 20.4506 21.7446 20.4558 21.7735C20.4662 21.8314 20.4824 21.9159 20.5058 22.0237C20.5525 22.2391 20.6277 22.5472 20.7419 22.9196C20.9703 23.6642 21.3553 24.6673 21.982 25.701C23.2364 27.77 25.4605 29.9628 29.3281 30.4452Z" fill="#6CC9E0" stroke="white" stroke-width="0.2"/>
<rect x="1.1" y="1.1" width="47.8" height="47.8" rx="7.7" stroke="#B1DBE6" stroke-width="2.2"/>
</svg>
