<svg width="23" height="23" viewBox="0 0 23 23" fill="none" xmlns="http://www.w3.org/2000/svg">
<path d="M4.13468 16.2633C4.16909 15.9495 4.1863 15.7926 4.20785 15.6806C4.46938 14.3218 5.56844 13.407 6.95217 13.3964C7.06618 13.3955 7.2442 13.4086 7.60024 13.4347C8.70606 13.5159 9.95171 13.5823 11.0656 13.5823C12.2282 13.5823 13.5175 13.5099 14.6383 13.424C14.9817 13.3977 15.1534 13.3845 15.265 13.3848C16.576 13.3884 17.6351 14.2018 17.9767 15.4675C18.0058 15.5753 18.0336 15.7242 18.0892 16.0222C18.1505 16.3507 18.1811 16.515 18.193 16.6485C18.3313 18.1916 17.1973 19.5566 15.655 19.7037C15.5216 19.7164 15.3545 19.7164 15.0203 19.7164L7.22977 19.7164C6.92567 19.7164 6.77362 19.7164 6.64929 19.7054C5.17368 19.5743 4.05176 18.3227 4.08237 16.8415C4.08495 16.7168 4.10152 16.5656 4.13468 16.2633Z" fill="#6CC9E0"/>
<path fill-rule="evenodd" clip-rule="evenodd" d="M15.2637 13.8543C15.1759 13.854 15.0295 13.8648 14.6742 13.8921C13.5478 13.9784 12.2453 14.0518 11.0656 14.0518C9.9354 14.0518 8.67698 13.9844 7.56587 13.9029C7.19751 13.8759 7.0454 13.8652 6.95576 13.8658C5.79573 13.8747 4.88808 14.6302 4.66882 15.7694C4.65184 15.8576 4.63693 15.9897 4.60131 16.3145C4.56702 16.6272 4.55375 16.7526 4.55171 16.8512C4.5262 18.0855 5.46113 19.1286 6.69081 19.2378C6.78911 19.2465 6.91519 19.247 7.22976 19.247L15.0203 19.247C15.3661 19.247 15.505 19.2464 15.6104 19.2364C16.8957 19.1138 17.8406 17.9763 17.7255 16.6903C17.716 16.5849 17.6911 16.4482 17.6277 16.1083C17.5702 15.7999 17.5464 15.6748 17.5235 15.5898C17.237 14.5285 16.363 13.8572 15.2637 13.8543ZM14.6381 12.9532C14.9481 12.9294 15.1357 12.915 15.2663 12.9154C16.7889 12.9195 18.0331 13.8751 18.4299 15.3451C18.4639 15.4712 18.4948 15.6365 18.5451 15.9064L18.5565 15.9677C18.6122 16.2662 18.6466 16.4506 18.6606 16.6066C18.8219 18.4069 17.4989 19.9994 15.6995 20.171C15.5436 20.1859 15.3561 20.1859 15.0525 20.1859L7.20074 20.1859C6.92428 20.1859 6.7531 20.1859 6.60776 20.173C4.88621 20.0201 3.57731 18.5598 3.61302 16.8318C3.61603 16.686 3.6347 16.5158 3.66486 16.241C3.6659 16.2315 3.66695 16.2219 3.66802 16.2121C3.66919 16.2015 3.67034 16.191 3.67148 16.1806C3.70261 15.8966 3.72166 15.7228 3.74686 15.5919C4.05067 14.0134 5.34114 12.9393 6.94857 12.927C7.0819 12.926 7.27605 12.9402 7.59744 12.9638L7.63458 12.9665C8.73512 13.0473 9.96801 13.1129 11.0656 13.1129C12.2112 13.1129 13.4871 13.0414 14.6024 12.9559L14.6381 12.9532Z" fill="#6CC9E0"/>
<path d="M7.51153 6.57196C7.51153 4.49783 9.19295 2.81641 11.2671 2.81641C13.3412 2.81641 15.0226 4.49783 15.0226 6.57196V7.10847C15.0226 8.8863 13.5814 10.3275 11.8036 10.3275H10.7306C8.95275 10.3275 7.51153 8.8863 7.51153 7.10847V6.57196Z" fill="#6CC9E0"/>
</svg>
