<svg width="26" height="26" viewBox="0 0 26 26" fill="none" xmlns="http://www.w3.org/2000/svg">
<path fill-rule="evenodd" clip-rule="evenodd" d="M3.23022 11.609C2.77832 12.6598 2.77832 13.8488 2.77832 16.2267V17.7781C2.77832 20.9208 2.77832 22.4922 3.75463 23.4685C4.70765 24.4215 6.22766 24.4442 9.22276 24.4448C9.29595 24.4448 9.37002 24.4448 9.44499 24.4448H17.2228C17.2977 24.4448 17.3718 24.4448 17.445 24.4448C20.4401 24.4442 21.9601 24.4215 22.9131 23.4685C23.8894 22.4922 23.8894 20.9208 23.8894 17.7781V16.2267C23.8894 13.8488 23.8894 12.6598 23.4375 11.609C23.3715 11.4554 23.2986 11.3049 23.2189 11.1579C22.6742 10.1521 21.741 9.41532 19.8746 7.94184C16.9075 5.59944 15.424 4.42824 13.7049 4.31318C13.4578 4.29665 13.2099 4.29665 12.9629 4.31318C11.2437 4.42824 9.76023 5.59944 6.79319 7.94184C4.92678 9.41532 3.99358 10.1521 3.4488 11.1579C3.3692 11.3049 3.29626 11.4554 3.23022 11.609ZM17.445 24.4448C17.445 23.9049 17.3386 23.3703 17.132 22.8715C16.9254 22.3728 16.6226 21.9195 16.2409 21.5378C15.8591 21.156 15.4059 20.8532 14.9071 20.6466C14.4083 20.44 13.8738 20.3337 13.3339 20.3337C12.794 20.3337 12.2594 20.44 11.7606 20.6466C11.2618 20.8532 10.8086 21.156 10.4269 21.5378C10.0451 21.9195 9.74231 22.3728 9.5357 22.8715C9.3291 23.3703 9.22276 23.9049 9.22276 24.4448H10.7783C10.7783 24.1092 10.8444 23.7769 10.9728 23.4668C11.1013 23.1568 11.2895 22.875 11.5268 22.6377C11.7641 22.4004 12.0459 22.2122 12.3559 22.0838C12.666 21.9553 12.9983 21.8892 13.3339 21.8892C13.6695 21.8892 14.0018 21.9553 14.3118 22.0838C14.6219 22.2122 14.9036 22.4004 15.1409 22.6377C15.3782 22.875 15.5665 23.1568 15.6949 23.4668C15.8233 23.7769 15.8894 24.1092 15.8894 24.4448H17.445Z" fill="#6CC9E0"/>
</svg>
