<svg width="27" height="26" viewBox="0 0 27 26" fill="none" xmlns="http://www.w3.org/2000/svg">
<path d="M5.6619 18.7653C5.69344 18.4777 5.70921 18.3339 5.72594 18.2357C6.01058 16.567 7.36426 15.4402 9.05698 15.4632C9.15651 15.4645 9.32455 15.4768 9.66062 15.5015C10.9366 15.5951 12.3739 15.6718 13.6591 15.6718C15.0006 15.6718 16.4882 15.5883 17.7815 15.4891C18.1077 15.4641 18.2708 15.4516 18.3691 15.4499C19.9725 15.4217 21.2762 16.423 21.6627 17.9794C21.6864 18.0749 21.712 18.2123 21.7632 18.487V18.487C21.8172 18.7764 21.8442 18.921 21.8576 19.0383C22.0727 20.9231 20.6737 22.6071 18.7814 22.7413C18.6637 22.7496 18.5165 22.7496 18.2222 22.7496L13.6591 22.7496H9.23316C8.96762 22.7496 8.83486 22.7496 8.72613 22.7425C6.91695 22.6241 5.53417 21.0814 5.6137 19.2701C5.61848 19.1612 5.63295 19.0292 5.6619 18.7653V18.7653Z" stroke="#1B877E" stroke-opacity="0.5" stroke-width="1.56"/>
<path d="M9.55828 7.58291C9.55828 5.18967 11.4984 3.24957 13.8916 3.24957V3.24957C16.2848 3.24957 18.2249 5.18967 18.2249 7.58291V8.20195C18.2249 10.2533 16.562 11.9162 14.5107 11.9162V11.9162H13.2726V11.9162C11.2212 11.9162 9.55828 10.2533 9.55828 8.20195V7.58291Z" stroke="#1B877E" stroke-opacity="0.5" stroke-width="1.56"/>
</svg>
