<svg width="26" height="26" viewBox="0 0 26 26" fill="none" xmlns="http://www.w3.org/2000/svg">
<path d="M2.16706 12.4583C2.16706 11.9553 2.16706 11.7039 2.17634 11.4913C2.39686 6.44073 6.44116 2.39642 11.4918 2.17591C11.7043 2.16663 11.9558 2.16663 12.4587 2.16663C12.9617 2.16663 13.2131 2.16663 13.4257 2.17591C18.4763 2.39642 22.5206 6.44073 22.7411 11.4913C22.7504 11.7039 22.7504 11.9553 22.7504 12.4583C22.7504 12.9612 22.7504 13.2127 22.7411 13.4252C22.5206 18.4759 18.4763 22.5202 13.4257 22.7407C13.2131 22.75 12.9617 22.75 12.4587 22.75C11.9558 22.75 11.7043 22.75 11.4918 22.7407C6.44116 22.5202 2.39686 18.4759 2.17634 13.4252C2.16706 13.2127 2.16706 12.9612 2.16706 12.4583Z" fill="#6CC9E0"/>
<path fill-rule="evenodd" clip-rule="evenodd" d="M20.0435 20.587C20.3404 20.2916 20.8206 20.2928 21.116 20.5897L23.3212 22.8057C23.6166 23.1026 23.6154 23.5828 23.3185 23.8782C23.0216 24.1736 22.5415 24.1724 22.2461 23.8755L20.0409 21.6595C19.7455 21.3626 19.7467 20.8824 20.0435 20.587Z" fill="#6CC9E0"/>
</svg>
