<svg width="26" height="26" viewBox="0 0 26 26" fill="none" xmlns="http://www.w3.org/2000/svg">
<path d="M2.70872 15.8206C2.70872 13.5692 2.70872 12.4435 3.11476 11.4406C3.20731 11.212 3.31497 10.9899 3.43704 10.7756C3.97259 9.83546 4.85613 9.13793 6.62322 7.74286V7.74286C9.43091 5.52626 10.8348 4.41796 12.4537 4.25786C12.8173 4.22191 13.1835 4.22191 13.5471 4.25786C15.166 4.41796 16.5699 5.52626 19.3776 7.74286V7.74286C21.1446 9.13793 22.0282 9.83546 22.5637 10.7756C22.6858 10.9899 22.7935 11.212 22.886 11.4406C23.2921 12.4435 23.2921 13.5692 23.2921 15.8206V17.1666C23.2921 20.3093 23.2921 21.8806 22.3157 22.8569C21.3394 23.8333 19.7681 23.8333 16.6254 23.8333H13.0004H9.37539C6.23269 23.8333 4.66135 23.8333 3.68504 22.8569C2.70872 21.8806 2.70872 20.3093 2.70872 17.1666V15.8206Z" stroke="#1B877E" stroke-opacity="0.5" stroke-width="1.56"/>
<path d="M16.2504 23.8333C16.2504 23.4065 16.1663 22.9838 16.003 22.5895C15.8397 22.1952 15.6003 21.8369 15.2985 21.5352C14.9967 21.2334 14.6384 20.994 14.2441 20.8306C13.8498 20.6673 13.4272 20.5833 13.0004 20.5833C12.5736 20.5833 12.151 20.6673 11.7567 20.8306C11.3624 20.994 11.0041 21.2334 10.7023 21.5352C10.4005 21.8369 10.1611 22.1952 9.99778 22.5895C9.83445 22.9838 9.75039 23.4065 9.75039 23.8333L13.0004 23.8333H16.2504Z" stroke="#1B877E" stroke-opacity="0.5" stroke-width="1.56"/>
</svg>
