<svg width="39" height="38" viewBox="0 0 39 38" fill="none" xmlns="http://www.w3.org/2000/svg">
<rect width="38.6628" height="38" rx="8.8" fill="#6BC7DE"/>
<path fill-rule="evenodd" clip-rule="evenodd" d="M30.4048 13.2765C30.5637 12.7595 30.4048 12.3789 29.6437 12.3789H27.1307C26.4912 12.3789 26.1963 12.7075 26.0364 13.0701C26.0364 13.0701 24.7584 16.0962 22.948 18.0619C22.3622 18.6319 22.096 18.8127 21.7763 18.8127C21.6164 18.8127 21.3761 18.6319 21.3761 18.1139V13.2765C21.3761 12.6554 21.1999 12.3789 20.6677 12.3789H16.7157C16.3165 12.3789 16.0762 12.6667 16.0762 12.9404C16.0762 13.5284 16.9819 13.6647 17.0747 15.3198V18.9159C17.0747 19.7046 16.9283 19.8476 16.6085 19.8476C15.7565 19.8476 13.6838 16.8073 12.4536 13.3286C12.2153 12.6516 11.974 12.3789 11.3316 12.3789H8.81669C8.09868 12.3789 7.95508 12.7075 7.95508 13.0701C7.95508 13.7158 8.80711 16.9238 11.9233 21.1666C14.0007 24.0639 16.9254 25.6347 19.5897 25.6347C21.1875 25.6347 21.3847 25.2863 21.3847 24.685V22.495C21.3847 21.7972 21.536 21.658 22.0424 21.658C22.4158 21.658 23.0543 21.8398 24.5459 23.2364C26.2499 24.8924 26.5304 25.6347 27.4897 25.6347H30.0027C30.7207 25.6347 31.0807 25.2863 30.8739 24.597C30.6461 23.9115 29.8323 22.9163 28.7534 21.7356C28.1675 21.0634 27.2886 20.339 27.0215 19.9764C26.6491 19.5115 26.7554 19.3041 27.0215 18.8904C27.0215 18.8904 30.0851 14.6996 30.4038 13.2765H30.4048Z" fill="white"/>
</svg>
