<svg width="21" height="12" viewBox="0 0 21 12" fill="none" xmlns="http://www.w3.org/2000/svg">
<path fill-rule="evenodd" clip-rule="evenodd" d="M20.1 0.812571C20.2423 0.344571 20.1 0 19.4186 0H17.1686C16.596 0 16.332 0.297429 16.1889 0.625714C16.1889 0.625714 15.0446 3.36514 13.4237 5.14457C12.8991 5.66057 12.6609 5.82429 12.3746 5.82429C12.2314 5.82429 12.0163 5.66057 12.0163 5.19171V0.812571C12.0163 0.250286 11.8586 0 11.382 0H7.84371C7.48629 0 7.27114 0.260571 7.27114 0.508286C7.27114 1.04057 8.082 1.164 8.16514 2.66229V5.91771C8.16514 6.63171 8.034 6.76114 7.74771 6.76114C6.98486 6.76114 5.12914 4.00886 4.02771 0.859714C3.81429 0.246857 3.59829 0 3.02314 0H0.771429C0.128571 0 0 0.297429 0 0.625714C0 1.21029 0.762857 4.11429 3.55286 7.95514C5.41286 10.578 8.03143 12 10.4169 12C11.8474 12 12.024 11.6846 12.024 11.1403V9.15771C12.024 8.526 12.1594 8.4 12.6129 8.4C12.9471 8.4 13.5189 8.56457 14.8543 9.82886C16.38 11.328 16.6311 12 17.49 12H19.74C20.3829 12 20.7051 11.6846 20.52 11.0606C20.316 10.44 19.5874 9.53914 18.6214 8.47029C18.0969 7.86171 17.31 7.206 17.0709 6.87771C16.7374 6.45686 16.8326 6.26914 17.0709 5.89457C17.0709 5.89457 19.8137 2.10086 20.0991 0.812571H20.1Z" fill="white"/>
</svg>
