<svg width="22" height="23" viewBox="0 0 22 23" fill="none" xmlns="http://www.w3.org/2000/svg">
<path d="M15.6567 13.8398L15.6443 13.9422H15.7474H19.454H19.5253L19.5426 13.873C19.7195 13.1653 19.8305 12.423 19.8305 11.6576C19.8305 10.8921 19.7195 10.1498 19.5426 9.44217L19.5253 9.37294H19.454H15.7474H15.6443L15.6567 9.47533C15.7442 10.1974 15.8095 10.9171 15.8095 11.6576C15.8095 12.398 15.7442 13.1177 15.6567 13.8398ZM13.726 19.9045L13.6146 20.1107L13.8361 20.0344C15.8572 19.3386 17.5603 17.9384 18.6338 16.0899L18.7135 15.9526H18.5547H15.3197H15.2488L15.2312 16.0214C14.882 17.3854 14.3802 18.6943 13.726 19.9045ZM13.5322 13.9422H13.612L13.6228 13.8631C13.7217 13.1378 13.7991 12.4093 13.7991 11.6576C13.7991 10.9058 13.7217 10.1664 13.6228 9.4518L13.6118 9.37294H13.5322H8.40007H8.32167L8.30975 9.45043C8.1995 10.1671 8.13323 10.9065 8.13323 11.6576C8.13323 12.4087 8.19951 13.1371 8.30972 13.8645L8.32149 13.9422H8.40007H13.5322ZM10.891 20.4386L10.9662 20.5473L11.0413 20.4386C11.9563 19.1157 12.6958 17.6483 13.1485 16.0692L13.182 15.9526H13.0607H8.87162H8.75035L8.78377 16.0692C9.23651 17.6483 9.97599 19.1157 10.891 20.4386ZM6.57969 7.36248H6.649L6.66769 7.29574C7.05016 5.9298 7.54135 4.6205 8.19535 3.4106L8.30622 3.20548L8.0855 3.28064C6.0629 3.96934 4.36085 5.37196 3.29829 7.22565L3.21986 7.36248H3.37758H6.57969ZM3.37758 15.9526H3.21913L3.29847 16.0898C4.36755 17.9377 6.06702 19.3382 8.08515 20.0344L8.30688 20.1109L8.19535 19.9045C7.54135 18.6946 7.05016 17.3853 6.66769 16.0194L6.649 15.9526H6.57969H3.37758ZM2.38969 13.873L2.407 13.9422H2.47835H6.18491H6.28804L6.27563 13.8398C6.1881 13.1177 6.12277 12.398 6.12277 11.6576C6.12277 10.9171 6.1881 10.1974 6.27563 9.47533L6.28804 9.37294H6.18491H2.47835H2.407L2.38969 9.44217C2.21278 10.1498 2.10185 10.8921 2.10185 11.6576C2.10185 12.423 2.21278 13.1653 2.38969 13.873ZM11.0413 2.86555L10.9662 2.75689L10.891 2.86555C9.97588 4.18861 9.23646 5.66703 8.78377 7.24591L8.75035 7.36248H8.87162H13.0607H13.182L13.1485 7.24591C12.6958 5.66703 11.9564 4.18861 11.0413 2.86555ZM18.5547 7.36248H18.7131L18.6338 7.22535C17.5701 5.386 15.8748 3.97875 13.836 3.28069L13.616 3.20536L13.7258 3.41032C14.3842 4.63843 14.8897 5.94252 15.2311 7.29349L15.2486 7.36248H15.3197H18.5547ZM0.0913846 11.6576C0.0913846 5.67647 4.95252 0.782791 10.9662 0.782791C12.3942 0.782791 13.8084 1.06408 15.1277 1.61058C16.4471 2.15709 17.646 2.95812 18.6558 3.96794C19.6656 4.97775 20.4666 6.17658 21.0131 7.49597C21.5596 8.81535 21.8409 10.2295 21.8409 11.6576C21.8409 14.5417 20.6952 17.3078 18.6558 19.3472C16.6164 21.3866 13.8503 22.5323 10.9662 22.5323C9.53806 22.5323 8.12395 22.251 6.80456 21.7045C5.48517 21.158 4.28635 20.357 3.27653 19.3472C1.23712 17.3078 0.0913846 14.5417 0.0913846 11.6576Z" fill="#99A2AD" stroke="white" stroke-width="0.182769"/>
</svg>
