<svg width="50" height="50" viewBox="0 0 50 50" fill="none" xmlns="http://www.w3.org/2000/svg">
<path d="M29.4232 27.3895L29.4114 27.4914H29.514H33.401H33.4731L33.4899 27.4213C33.6752 26.6477 33.7914 25.8364 33.7914 25C33.7914 24.1636 33.6752 23.3523 33.4899 22.5787L33.4731 22.5086H33.401H29.514H29.4114L29.4232 22.6105C29.515 23.401 29.5836 24.189 29.5836 25C29.5836 25.811 29.515 26.599 29.4232 27.3895ZM27.3974 34.03L27.2902 34.2367L27.5094 34.158C29.6286 33.3967 31.4133 31.8651 32.5379 29.8444L32.6134 29.7086H32.458H29.0655H28.9938L28.9767 29.7782C28.6103 31.2717 28.0838 32.7049 27.3974 34.03ZM27.191 27.4914H27.2712L27.2816 27.4118C27.3853 26.6184 27.4664 25.8218 27.4664 25C27.4664 24.1782 27.3853 23.3697 27.2816 22.588L27.2711 22.5086H27.191H21.809H21.7301L21.7186 22.5867C21.603 23.3704 21.5336 24.1789 21.5336 25C21.5336 25.8212 21.6031 26.6177 21.7186 27.4131L21.7299 27.4914H21.809H27.191ZM24.4238 34.6025L24.5 34.7174L24.5762 34.6025C25.5353 33.1555 26.3102 31.5508 26.7846 29.8242L26.8164 29.7086H26.6965H22.3035H22.1836L22.2154 29.8242C22.6898 31.5508 23.4647 33.1555 24.4238 34.6025ZM19.9 20.2914H19.9701L19.9883 20.2237C20.3895 18.7283 20.9049 17.2948 21.5911 15.97L21.6977 15.7643L21.4794 15.8419C19.3587 16.5954 17.575 18.1296 16.4619 20.156L16.3875 20.2914H16.542H19.9ZM16.542 29.7086H16.3868L16.4621 29.8443C17.5821 31.8643 19.363 33.3963 21.479 34.158L21.6984 34.2369L21.5911 34.03C20.9049 32.7052 20.3895 31.2717 19.9883 29.7763L19.9701 29.7086H19.9H16.542ZM15.5101 27.4213L15.5269 27.4914H15.599H19.486H19.5886L19.5768 27.3895C19.485 26.599 19.4164 25.811 19.4164 25C19.4164 24.189 19.485 23.401 19.5768 22.6105L19.5886 22.5086H19.486H15.599H15.5269L15.5101 22.5787C15.3248 23.3523 15.2086 24.1636 15.2086 25C15.2086 25.8364 15.3248 26.6477 15.5101 27.4213ZM24.5762 15.3855L24.5 15.2706L24.4238 15.3855C23.4646 16.8326 22.6897 18.4494 22.2154 20.1758L22.1836 20.2914H22.3035H26.6965H26.8164L26.7846 20.1758C26.3103 18.4494 25.5354 16.8326 24.5762 15.3855ZM32.458 20.2914H32.6131L32.5379 20.1557C31.4236 18.145 29.6469 16.6057 27.5092 15.8419L27.2916 15.7642L27.3972 15.9698C28.088 17.3144 28.6184 18.7422 28.9767 20.2215L28.9936 20.2914H29.0655H32.458ZM13.0914 25C13.0914 18.4466 18.1948 13.0914 24.5 13.0914C25.9976 13.0914 27.4807 13.3992 28.8646 13.9973C30.2485 14.5955 31.5062 15.4723 32.5657 16.5779C33.6253 17.6836 34.466 18.9964 35.0397 20.4415C35.6133 21.8866 35.9086 23.4356 35.9086 25C35.9086 28.1596 34.7057 31.189 32.5657 33.4221C30.4259 35.655 27.5245 36.9086 24.5 36.9086C23.0024 36.9086 21.5193 36.6008 20.1354 36.0027C18.7515 35.4045 17.4938 34.5277 16.4343 33.4221C14.2943 31.189 13.0914 28.1596 13.0914 25Z" fill="#6BC7DE" stroke="white" stroke-width="0.182769"/>
<rect x="1.1" y="1.1" width="47.8" height="47.8" rx="7.7" stroke="#B1DBE6" stroke-width="2.2"/>
</svg>
