<svg width="50" height="50" viewBox="0 0 50 50" fill="none" xmlns="http://www.w3.org/2000/svg">
<path opacity="0.5" d="M30.1327 27.388L30.1192 27.5H30.232H34.288H34.3661L34.385 27.4243C34.5786 26.6499 34.7 25.8377 34.7 25C34.7 24.1623 34.5786 23.3501 34.385 22.5757L34.3661 22.5H34.288H30.232H30.1192L30.1327 22.612C30.2285 23.4022 30.3 24.1897 30.3 25C30.3 25.8103 30.2285 26.5978 30.1327 27.388ZM28.02 34.0244L27.8981 34.25L28.1406 34.1666C30.3522 33.4051 32.2158 31.8729 33.3905 29.8502L33.4777 29.7H33.304H29.764H29.6864L29.6671 29.7752C29.285 31.2678 28.7359 32.7001 28.02 34.0244ZM27.808 27.5H27.8953L27.9071 27.4135C28.0153 26.6198 28.1 25.8227 28.1 25C28.1 24.1774 28.0153 23.3683 27.9071 22.5863L27.8951 22.5H27.808H22.192H22.1062L22.0932 22.5848C21.9725 23.369 21.9 24.1782 21.9 25C21.9 25.8219 21.9725 26.619 22.0931 27.415L22.106 27.5H22.192H27.808ZM24.9178 34.6089L25 34.7278L25.0822 34.6089C26.0835 33.1613 26.8927 31.5555 27.3881 29.8276L27.4247 29.7H27.292H22.708H22.5753L22.6119 29.8276C23.1073 31.5555 23.9165 33.1613 24.9178 34.6089ZM20.2 20.3H20.2758L20.2963 20.227C20.7148 18.7323 21.2523 17.2995 21.968 15.9756L22.0893 15.7511L21.8478 15.8333C19.6345 16.587 17.772 18.1218 16.6092 20.1503L16.5234 20.3H16.696H20.2ZM16.696 29.7H16.5226L16.6094 29.8501C17.7793 31.8722 19.639 33.4047 21.8474 34.1665L22.09 34.2502L21.968 34.0244C21.2523 32.7005 20.7148 31.2677 20.2963 29.773L20.2758 29.7H20.2H16.696ZM15.615 27.4243L15.6339 27.5H15.712H19.768H19.8809L19.8673 27.388C19.7715 26.5978 19.7 25.8103 19.7 25C19.7 24.1897 19.7715 23.4022 19.8673 22.612L19.8809 22.5H19.768H15.712H15.6339L15.615 22.5757C15.4214 23.3501 15.3 24.1623 15.3 25C15.3 25.8377 15.4214 26.6499 15.615 27.4243ZM25.0822 15.3791L25 15.2602L24.9178 15.3791C23.9164 16.8269 23.1072 18.4447 22.6119 20.1724L22.5753 20.3H22.708H27.292H27.4247L27.3881 20.1724C26.8928 18.4447 26.0836 16.8269 25.0822 15.3791ZM33.304 20.3H33.4774L33.3906 20.1499C32.2266 18.1372 30.3714 16.5973 28.1404 15.8334L27.8996 15.751L28.0199 15.9752C28.7403 17.3191 29.2935 18.7462 29.667 20.2245L29.6861 20.3H29.764H33.304ZM13.1 25C13.1 18.455 18.4194 13.1 25 13.1C26.5627 13.1 28.1102 13.4078 29.5539 14.0058C30.9977 14.6039 32.3096 15.4804 33.4146 16.5854C34.5196 17.6904 35.3961 19.0023 35.9942 20.4461C36.5922 21.8898 36.9 23.4373 36.9 25C36.9 28.1561 35.6463 31.1829 33.4146 33.4146C31.1829 35.6463 28.1561 36.9 25 36.9C23.4373 36.9 21.8898 36.5922 20.4461 35.9942C19.0023 35.3961 17.6904 34.5196 16.5854 33.4146C14.3537 31.1829 13.1 28.1561 13.1 25Z" fill="#6CC9E0" stroke="white" stroke-width="0.2"/>
<rect x="1.1" y="1.1" width="47.8" height="47.8" rx="7.7" stroke="#B1DBE6" stroke-width="2.2"/>
</svg>
