<svg width="375" height="18" viewBox="0 0 375 18" fill="none" xmlns="http://www.w3.org/2000/svg">
<line x1="16" y1="9.5" x2="158" y2="9.50001" stroke="black" stroke-opacity="0.12"/>
<line x1="217" y1="9.5" x2="359" y2="9.5" stroke="black" stroke-opacity="0.12"/>
<path d="M175.688 10.656C175.688 10.752 175.683 10.8907 175.672 11.072C175.672 11.2427 175.667 11.4293 175.656 11.632C175.645 11.824 175.635 12.0107 175.624 12.192C175.613 12.3627 175.603 12.5013 175.592 12.608L180.184 5.424H181.912V14H180.6V8.944C180.6 8.77333 180.6 8.54933 180.6 8.272C180.611 7.99467 180.621 7.72267 180.632 7.456C180.643 7.17867 180.653 6.97067 180.664 6.832L176.104 14H174.36V5.424H175.688V10.656ZM191.169 14H189.745V6.592H187.217C187.111 7.94667 186.977 9.104 186.817 10.064C186.657 11.0133 186.455 11.7867 186.209 12.384C185.964 12.9813 185.671 13.4187 185.329 13.696C184.988 13.9733 184.588 14.112 184.129 14.112C183.991 14.112 183.852 14.1013 183.713 14.08C183.585 14.0693 183.479 14.0427 183.393 14V12.944C183.457 12.9653 183.527 12.9813 183.601 12.992C183.676 13.0027 183.751 13.008 183.825 13.008C184.06 13.008 184.273 12.912 184.465 12.72C184.657 12.528 184.828 12.2347 184.977 11.84C185.137 11.4453 185.281 10.9493 185.409 10.352C185.537 9.744 185.649 9.02933 185.745 8.208C185.841 7.38667 185.927 6.45867 186.001 5.424H191.169V14ZM195.219 10.656C195.219 10.752 195.214 10.8907 195.203 11.072C195.203 11.2427 195.198 11.4293 195.187 11.632C195.177 11.824 195.166 12.0107 195.155 12.192C195.145 12.3627 195.134 12.5013 195.123 12.608L199.715 5.424H201.443V14H200.131V8.944C200.131 8.77333 200.131 8.54933 200.131 8.272C200.142 7.99467 200.153 7.72267 200.163 7.456C200.174 7.17867 200.185 6.97067 200.195 6.832L195.635 14H193.891V5.424H195.219V10.656Z" fill="#99A2AD"/>
</svg>
