<svg width="22" height="22" viewBox="0 0 22 22" fill="none" xmlns="http://www.w3.org/2000/svg">
<path fill-rule="evenodd" clip-rule="evenodd" d="M18.782 0.335282C17.9264 -0.100693 16.9137 -0.100693 16.0581 0.335282C15.6302 0.553277 15.2582 0.926219 14.8279 1.35769L1.67698 14.5087C1.32287 14.8626 1.06847 15.1169 0.85947 15.4046C0.442056 15.9791 0.166542 16.6443 0.0554503 17.3457C-0.000174128 17.6969 -8.81181e-05 18.0566 3.41906e-05 18.5572L4.56347e-05 19.5999L-0.00015273 19.6809C-0.00117972 19.9626 -0.00244101 20.309 0.0979346 20.6179C0.29577 21.2268 0.773135 21.7042 1.38201 21.902C1.69094 22.0024 2.0373 22.0011 2.31907 22.0001L2.40005 21.9999L3.44273 21.9999C3.94338 22 4.30306 22.0001 4.65425 21.9445C5.35566 21.8334 6.02081 21.5579 6.59533 21.1405C6.883 20.9315 7.13727 20.6771 7.49119 20.323L20.6422 7.17207C21.0737 6.74169 21.4466 6.36969 21.6646 5.94185C22.1006 5.0862 22.1006 4.07356 21.6646 3.21791C21.4467 2.79008 21.0737 2.41809 20.6423 1.98772L20.0122 1.3577C19.5819 0.926224 19.2099 0.553278 18.782 0.335282ZM16.9661 2.11729C17.2513 1.97197 17.5888 1.97197 17.874 2.11729C17.9796 2.17107 18.1114 2.28539 18.6928 2.86688L19.133 3.30709C19.7145 3.88857 19.8288 4.02034 19.8826 4.12589C20.028 4.4111 20.028 4.74865 19.8826 5.03387C19.8288 5.13942 19.7145 5.27118 19.133 5.85267L18.275 6.71069L15.2892 3.7249L16.1473 2.86688C16.7287 2.28539 16.8605 2.17107 16.9661 2.11729ZM13.875 5.13911L3.14233 15.8718C2.71687 16.2973 2.58239 16.4358 2.4775 16.5802C2.24561 16.8993 2.09254 17.2689 2.03083 17.6585C2.00291 17.8348 2.00005 18.0278 2.00005 18.6295V19.5999C2.00005 19.7969 2.00039 19.9047 2.00467 19.9829L2.00536 19.9946L2.01702 19.9953C2.09529 19.9995 2.20302 19.9999 2.40005 19.9999H3.3704C3.97209 19.9999 4.16513 19.997 4.34138 19.9691C4.73105 19.9074 5.10058 19.7543 5.41976 19.5224C5.56413 19.4175 5.70266 19.2831 6.12812 18.8576L16.8608 8.1249L13.875 5.13911Z" fill="black" fill-opacity="0.48"/>
</svg>
