<svg width="40" height="38" viewBox="0 0 40 38" fill="none" xmlns="http://www.w3.org/2000/svg">
<rect x="1.88926" y="0.9" width="36.8628" height="36.2" rx="7.9" stroke="#6CC9E0" stroke-width="1.8"/>
<path d="M12.4686 18.8879L12.4683 18.887C11.316 15.4931 13.3796 12.7617 15.6122 12.0784C17.8984 11.3788 19.4357 12.1148 20.1488 12.9694L20.763 13.7055L21.3772 12.9694C22.0904 12.1149 23.6276 11.3818 25.9039 12.0784C28.2945 12.81 30.2141 15.4807 29.0567 18.8868L29.0567 18.8868L29.0547 18.8928C28.2966 21.1828 26.4054 23.2787 24.5137 24.8294C23.5778 25.5965 22.6672 26.2094 21.9427 26.6264C21.5797 26.8354 21.2731 26.9896 21.0405 27.0888C20.9239 27.1386 20.8356 27.1703 20.7745 27.1884C20.7702 27.1897 20.7661 27.1909 20.7622 27.192C20.7584 27.1909 20.7543 27.1897 20.7499 27.1884C20.6891 27.1707 20.6014 27.1394 20.4856 27.0904C20.2546 26.9926 19.9501 26.8404 19.5894 26.6338C18.8697 26.2215 17.9645 25.6143 17.0323 24.851C15.1495 23.3094 13.2546 21.2118 12.4686 18.8879Z" fill="#6CC9E0" stroke="#6CC9E0" stroke-width="1.6"/>
</svg>
