<svg width="20" height="20" viewBox="0 0 20 20" fill="none" xmlns="http://www.w3.org/2000/svg">
<path fill-rule="evenodd" clip-rule="evenodd" d="M9.10339 0.52832L9.14285 0.528321C9.63991 0.528321 10.0429 0.931264 10.0429 1.42832C10.0429 1.92538 9.63991 2.32832 9.14285 2.32832C7.77252 2.32832 6.79856 2.32901 6.03728 2.39077C5.2859 2.45172 4.82259 2.56763 4.458 2.7534C3.72417 3.1273 3.12755 3.72393 2.75364 4.45776C2.56748 4.82312 2.45182 5.28423 2.39097 6.02898C2.32926 6.78424 2.32856 7.74935 2.32856 9.10832V10.8912C2.32856 12.2502 2.32926 13.2153 2.39097 13.9705C2.45182 14.7153 2.56748 15.1764 2.75364 15.5417C3.12755 16.2756 3.72417 16.8722 4.458 17.2461C4.82259 17.4319 5.2859 17.5478 6.03728 17.6087C6.79856 17.6705 7.77252 17.6712 9.14285 17.6712C9.63991 17.6712 10.0429 18.0741 10.0429 18.5712C10.0429 19.0682 9.63991 19.4712 9.14285 19.4712H9.10337C7.78125 19.4712 6.73433 19.4712 5.89173 19.4028C5.03086 19.333 4.303 19.1873 3.64082 18.8499C2.5683 18.3034 1.69631 17.4314 1.14983 16.3589C0.812823 15.6975 0.666893 14.9732 0.59695 14.1171C0.528552 13.2799 0.528558 12.2413 0.528565 10.9308V9.06872C0.528558 7.75815 0.528552 6.71955 0.59695 5.8824C0.666893 5.02633 0.812823 4.30198 1.14983 3.64057C1.69631 2.56805 2.5683 1.69606 3.64082 1.14958C4.303 0.812183 5.03086 0.666501 5.89173 0.596664C6.73433 0.528308 7.78127 0.528314 9.10339 0.52832ZM14.5065 5.93478C14.8579 5.58331 15.4278 5.58331 15.7792 5.93478L19.2078 9.36335C19.5593 9.71482 19.5593 10.2847 19.2078 10.6361L15.7792 14.0647C15.4278 14.4162 14.8579 14.4162 14.5065 14.0647C14.155 13.7132 14.155 13.1434 14.5065 12.7919L16.3986 10.8997H8.28571C7.78865 10.8997 7.38571 10.4968 7.38571 9.99975C7.38571 9.50269 7.78865 9.09975 8.28571 9.09975H16.3986L14.5065 7.20757C14.155 6.8561 14.155 6.28625 14.5065 5.93478Z" fill="black" fill-opacity="0.48"/>
</svg>
