<svg width="22" height="19" viewBox="0 0 22 19" fill="none" xmlns="http://www.w3.org/2000/svg">
<path fill-rule="evenodd" clip-rule="evenodd" d="M18.6618 3.06652C18.4325 3.01992 18.1919 3.05574 17.9936 3.17135L17.9642 3.18847L13.5812 5.37634H5.8667C4.96803 5.37634 4.17166 5.70942 3.60647 6.22683C3.0913 6.69843 2.7167 7.59679 2.7167 8.4049C2.7167 9.21294 3.09126 10.1111 3.60647 10.5828C3.89583 10.8476 4.24579 11.0642 4.63905 11.2125C5.01392 11.3539 5.42813 11.4332 5.8667 11.4332H6.93463H7.90134H10.2211H13.5813L17.9642 13.6213L17.9935 13.6384C18.1285 13.7171 18.2929 13.7628 18.4667 13.7628C18.721 13.7628 18.9341 13.6688 19.077 13.538C19.2184 13.4085 19.2834 13.2537 19.2834 13.1023V3.70748C19.2834 3.60215 19.251 3.49139 19.1788 3.38765C19.0718 3.23368 18.8912 3.11315 18.6618 3.06652ZM16.9675 1.34193C17.631 0.966261 18.3886 0.871386 19.0807 1.01203C19.784 1.15496 20.4572 1.54971 20.9038 2.19185C21.2131 2.63661 21.3834 3.16258 21.3834 3.70748V13.1023C21.3834 13.8947 21.0304 14.5943 20.4962 15.0833C19.9636 15.5709 19.2433 15.8594 18.4667 15.8594C17.9427 15.8594 17.4239 15.7261 16.9675 15.4679L13.0855 13.5299H10.5918H8.45944H6.88097H5.8667C5.47677 13.5299 5.09567 13.4901 4.72818 13.4144C3.75654 13.2142 2.88009 12.7624 2.18724 12.1281C1.18234 11.2082 0.616699 9.7203 0.616699 8.4049C0.616699 7.08956 1.1823 5.60144 2.18724 4.68148C3.14214 3.80733 4.44577 3.27972 5.8667 3.27972H13.0855L16.9675 1.34193Z" fill="#6CC9E0"/>
<path fill-rule="evenodd" clip-rule="evenodd" d="M14.3834 4.32803L14.3834 12.4816L12.2834 12.4816L12.2834 4.32803H14.3834Z" fill="#6CC9E0"/>
<path d="M7.23851 15.5543L6.88097 13.5299H5.8667C5.47677 13.5299 5.09567 13.4901 4.72818 13.4144L5.17042 15.9184C5.30727 16.6933 5.76018 17.3292 6.36297 17.7313C6.96484 18.1327 7.72234 18.3068 8.49 18.1717C9.25766 18.0365 9.90984 17.6143 10.3379 17.0315C10.7666 16.4478 10.9743 15.6956 10.8375 14.9208L10.5918 13.5299H8.45944L8.76938 15.2848C8.80027 15.4597 8.75706 15.6383 8.6444 15.7917C8.53108 15.946 8.3515 16.0671 8.12534 16.1069C7.89917 16.1467 7.68893 16.0942 7.52959 15.9879C7.37118 15.8823 7.2694 15.7292 7.23851 15.5543Z" fill="#6CC9E0"/>
</svg>
