<svg width="24" height="20" viewBox="0 0 24 20" fill="none" xmlns="http://www.w3.org/2000/svg">
<path fill-rule="evenodd" clip-rule="evenodd" d="M0 9.6C0 6.23969 0 4.55953 0.653961 3.27606C1.2292 2.14708 2.14708 1.2292 3.27606 0.653961C4.55953 0 6.23969 0 9.6 0H14.4C17.7603 0 19.4405 0 20.7239 0.653961C21.8529 1.2292 22.7708 2.14708 23.346 3.27606C24 4.55953 24 6.23969 24 9.6V10.4C24 13.7603 24 15.4405 23.346 16.7239C22.7708 17.8529 21.8529 18.7708 20.7239 19.346C19.4405 20 17.7603 20 14.4 20H9.6C6.23969 20 4.55953 20 3.27606 19.346C2.14708 18.7708 1.2292 17.8529 0.653961 16.7239C0 15.4405 0 13.7603 0 10.4V9.6ZM9.6 2H14.4C16.1132 2 17.2777 2.00156 18.1779 2.0751C19.0548 2.14674 19.5032 2.27659 19.816 2.43597C19.8892 2.47327 19.961 2.51274 20.0315 2.55428L14.687 7.89878C14.0813 8.50447 13.669 8.91567 13.3248 9.20793C12.9894 9.4926 12.785 9.60523 12.618 9.65947C12.2163 9.78999 11.7837 9.78999 11.382 9.65947C11.215 9.60523 11.0106 9.4926 10.6752 9.20793C10.331 8.91567 9.91869 8.50447 9.31299 7.89878L3.96849 2.55428C4.03896 2.51274 4.11083 2.47327 4.18404 2.43597C4.49684 2.27659 4.94524 2.14674 5.82208 2.0751C6.72225 2.00156 7.88684 2 9.6 2ZM2.55428 3.96849C2.51274 4.03896 2.47327 4.11083 2.43597 4.18404C2.27659 4.49684 2.14674 4.94524 2.0751 5.82208C2.00156 6.72225 2 7.88684 2 9.6V10.4C2 12.1132 2.00156 13.2777 2.0751 14.1779C2.14674 15.0548 2.27659 15.5032 2.43597 15.816C2.81947 16.5686 3.43139 17.1805 4.18404 17.564C4.49684 17.7234 4.94524 17.8533 5.82208 17.9249C6.72225 17.9984 7.88684 18 9.6 18H14.4C16.1132 18 17.2777 17.9984 18.1779 17.9249C19.0548 17.8533 19.5032 17.7234 19.816 17.564C20.5686 17.1805 21.1805 16.5686 21.564 15.816C21.7234 15.5032 21.8533 15.0548 21.9249 14.1779C21.9984 13.2777 22 12.1132 22 10.4V9.6C22 7.88684 21.9984 6.72225 21.9249 5.82208C21.8533 4.94524 21.7234 4.49684 21.564 4.18404C21.5267 4.11083 21.4873 4.03896 21.4457 3.96849L16.072 9.34219C15.5029 9.91138 15.033 10.3812 14.6191 10.7326C14.1892 11.0976 13.7541 11.3933 13.2361 11.5616C12.4327 11.8226 11.5673 11.8226 10.7639 11.5616C10.2459 11.3933 9.81083 11.0976 9.38089 10.7326C8.96694 10.3812 8.49717 9.9114 7.92798 9.34219L2.55428 3.96849Z" fill="#6CC9E0"/>
</svg>
